<?xml version="1.0" standalone="no"?>
<!DOCTYPE svg PUBLIC "-//W3C//DTD SVG 20010904//EN"
 "http://www.w3.org/TR/2001/REC-SVG-20010904/DTD/svg10.dtd">
<svg version="1.0" xmlns="http://www.w3.org/2000/svg"
 width="16.000000pt" height="16.000000pt" viewBox="0 0 16.000000 16.000000"
 preserveAspectRatio="xMidYMid meet">
<metadata>
Created by potrace 1.11, written by Peter Selinger 2001-2013
</metadata>
<g transform="translate(0.000000,16.000000) scale(0.006250,-0.006250)"
fill="#000000" stroke="none">
<path d="M1130 2461 c-117 -42 -145 -55 -243 -115 -59 -35 -77 -54 -127 -128
-66 -98 -74 -120 -96 -263 -9 -55 -21 -128 -28 -162 -22 -108 2 -294 58 -448
36 -100 50 -98 44 6 -7 117 -2 132 51 142 23 5 45 6 48 4 2 -3 7 -20 9 -39 3
-18 11 -37 18 -43 7 -5 12 -23 12 -40 -1 -29 0 -30 42 -28 31 1 42 -2 42 -13
0 -8 7 -14 15 -14 8 0 19 -9 25 -20 7 -14 7 -20 0 -20 -5 0 -10 -15 -10 -34 0
-19 -5 -38 -10 -41 -16 -10 -1 -25 26 -25 13 0 24 -5 24 -11 0 -5 4 -7 10 -4
6 4 9 -7 6 -27 -2 -21 -9 -34 -20 -36 -9 -2 -19 -16 -22 -30 -4 -15 -13 -40
-21 -55 -9 -18 -11 -33 -5 -40 13 -17 2 -164 -13 -177 -7 -6 -20 -7 -29 -4
-15 6 -15 8 1 20 16 12 16 13 -11 14 -23 0 -27 -3 -23 -20 3 -11 1 -23 -4 -26
-15 -9 -10 -20 14 -31 20 -10 20 -12 4 -18 -11 -5 -24 -2 -35 7 -9 9 -22 13
-29 11 -7 -3 -18 18 -29 54 -20 71 -24 79 -34 63 -8 -14 -15 21 -25 130 -8 84
-25 115 -25 46 0 -50 -16 -86 -71 -156 -16 -19 -32 -55 -38 -80 -12 -53 -49
-90 -90 -90 -65 0 -89 -18 -126 -94 -35 -72 -43 -106 -26 -106 5 0 12 -7 15
-16 3 -9 2 -12 -4 -9 -6 4 -1 -10 10 -29 11 -20 20 -39 20 -44 1 -4 10 -18 22
-32 12 -13 22 -34 23 -46 0 -13 8 -31 18 -42 11 -12 15 -26 11 -37 -4 -11 -2
-22 7 -29 19 -15 23 -46 6 -46 -16 0 -40 24 -32 32 3 3 -6 3 -20 1 -15 -3 -25
-1 -25 6 0 6 9 11 20 11 11 0 20 5 20 11 0 7 -10 9 -28 4 -26 -6 -26 -6 -7 9
19 15 19 15 -7 16 -20 0 -26 4 -22 15 4 9 0 15 -9 15 -10 0 -13 7 -10 24 4 20
0 25 -18 28 -16 2 -25 11 -27 24 -2 12 -12 24 -23 27 -10 3 -17 11 -14 19 2 7
-2 21 -10 32 -11 15 -23 18 -55 13 -43 -6 -63 -17 -43 -24 7 -3 9 -14 4 -31
-13 -47 -5 -94 19 -112 13 -10 20 -22 17 -27 -4 -6 5 -21 19 -34 13 -12 22
-29 20 -36 -3 -7 3 -28 13 -46 10 -18 21 -55 24 -81 9 -67 23 -75 136 -76 78
0 96 3 107 17 12 16 15 16 23 3 7 -11 34 -16 92 -19 72 -3 81 -1 76 13 -9 22
9 20 22 -2 6 -9 11 -11 11 -4 0 8 17 12 48 13 26 0 41 3 35 6 -18 7 -16 23 2
23 8 0 15 4 15 10 0 10 -27 3 -48 -13 -17 -13 -28 -1 -14 15 8 11 3 13 -28 13
-44 0 -59 10 -42 27 9 9 13 7 18 -5 3 -9 13 -17 21 -17 12 0 13 3 4 14 -10 12
-5 16 24 26 19 6 35 16 35 21 0 12 -23 12 -35 0 -14 -14 -105 -23 -105 -11 0
6 6 10 13 10 8 0 7 4 -3 10 -11 7 -6 8 18 4 21 -4 32 -3 32 5 0 6 -8 11 -17
12 -11 0 -13 3 -5 6 24 10 11 24 -18 19 -17 -2 -28 0 -24 5 3 5 12 9 20 9 8 0
17 6 20 14 3 8 13 12 22 10 15 -5 15 -4 0 6 -13 8 -23 8 -38 0 -29 -16 -59 -4
-57 23 0 12 6 26 12 30 5 5 0 6 -11 2 -27 -7 -40 20 -22 43 11 13 10 15 -11 9
-33 -8 -61 9 -61 38 0 16 -6 25 -16 25 -13 0 -14 3 -5 14 9 11 7 15 -9 19 -11
3 -20 12 -20 21 0 9 -6 16 -14 16 -7 0 -19 6 -25 14 -10 12 -8 14 11 9 18 -4
20 -3 8 6 -20 14 -11 14 30 -1 30 -10 32 -12 14 -20 -14 -6 -11 -7 10 -3 23 5
40 -3 92 -42 35 -26 64 -54 64 -60 0 -7 7 -13 15 -13 9 0 33 -11 55 -25 22
-14 42 -25 45 -25 4 0 25 -13 48 -28 23 -16 65 -37 92 -47 28 -9 64 -24 80
-31 28 -14 29 -14 5 -13 -49 4 -80 -1 -80 -12 0 -7 10 -9 25 -7 33 7 32 -10 0
-18 -27 -7 -25 -18 3 -20 10 -1 29 -2 45 -3 27 -1 39 -21 13 -21 -8 0 -17 -6
-20 -12 -3 -9 -8 -8 -16 5 -6 9 -16 17 -22 17 -9 0 -9 -3 0 -12 18 -18 15 -26
-10 -30 -13 -2 -21 -7 -18 -13 5 -10 16 -10 65 1 29 6 29 6 10 -10 l-20 -17
20 3 c15 2 20 -3 19 -19 -1 -35 36 -48 90 -32 25 7 46 17 46 22 0 5 6 5 13 -1
14 -12 73 -15 264 -13 92 1 138 -2 152 -11 17 -10 25 -10 41 0 13 8 64 12 150
12 81 0 137 4 149 12 11 6 26 8 37 3 11 -4 55 -7 99 -5 44 1 148 3 230 4 l150
1 1 70 c1 39 3 95 4 125 4 91 6 88 -75 125 -284 131 -296 140 -389 270 -59 83
-70 111 -92 240 l-17 100 -75 72 c-60 58 -73 77 -69 95 11 50 58 217 80 287
25 76 41 93 99 105 27 6 27 7 14 45 -8 21 -23 56 -35 79 -12 23 -21 55 -21 71
0 27 -45 244 -71 343 -7 29 -89 142 -129 178 -3 3 -34 39 -69 80 -35 41 -75
81 -90 89 -34 19 -286 91 -314 90 -12 0 -69 -17 -127 -38z m228 -75 c63 -14
191 -63 214 -84 11 -9 20 -37 24 -72 5 -44 11 -59 24 -63 15 -4 16 0 9 32 -11
45 -11 67 -1 57 4 -4 8 -12 8 -17 1 -5 3 -10 4 -11 1 -2 4 -12 5 -23 1 -11 5
-35 10 -53 7 -32 6 -33 -13 -23 -29 15 -32 14 -32 -14 0 -20 5 -25 24 -25 13
0 26 -7 30 -15 6 -18 1 -19 -25 -5 -17 10 -19 7 -18 -32 1 -24 4 -54 8 -67 6
-22 8 -23 23 -8 21 22 24 21 24 -2 0 -11 -4 -17 -8 -15 -4 3 -16 -1 -26 -7
-15 -10 -36 -8 -103 9 -73 18 -94 19 -159 10 -107 -14 -148 -18 -204 -19 -27
0 -62 -7 -77 -15 -39 -19 -78 -18 -85 4 -13 41 -22 47 -70 48 -36 1 -48 5 -46
15 6 22 -19 170 -31 190 -8 13 -8 24 1 44 10 22 17 26 40 21 38 -8 124 6 130
22 2 6 -3 12 -12 12 -20 0 -21 26 -2 33 9 4 17 -1 19 -11 3 -9 5 0 6 20 1 35
3 37 54 52 28 8 63 17 77 20 27 5 140 0 178 -8z m332 -466 c0 -13 -11 -13 -30
0 -12 8 -11 10 8 10 12 0 22 -4 22 -10z m-389 -706 c11 -28 16 -51 11 -58 -5
-6 -15 -32 -22 -58 -14 -52 -16 -53 -72 -37 -45 12 -47 20 -12 54 21 21 25 33
20 56 -3 16 -1 29 4 29 6 0 10 -5 10 -11 0 -6 7 -4 15 5 8 8 15 26 15 40 0 38
8 32 31 -20z m-181 -249 c0 -8 -7 -15 -16 -15 -14 0 -14 3 -4 15 7 8 14 15 16
15 2 0 4 -7 4 -15z m-37 -40 c-3 -9 -8 -14 -10 -11 -3 3 -2 9 2 15 9 16 15 13
8 -4z m187 -164 c0 -11 -4 -23 -10 -26 -6 -4 -10 5 -10 19 0 14 5 26 10 26 6
0 10 -9 10 -19z m-40 0 c0 -5 -7 -14 -15 -21 -12 -10 -15 -10 -15 2 0 8 3 18
7 21 9 10 23 9 23 -2z m80 -6 c0 -8 -4 -15 -10 -15 -5 0 -10 7 -10 15 0 8 5
15 10 15 6 0 10 -7 10 -15z m-340 -53 c0 -15 -2 -15 -10 -2 -13 20 -13 33 0
25 6 -3 10 -14 10 -23z m110 -82 c0 -5 -4 -10 -9 -10 -6 0 -13 5 -16 10 -3 6
1 10 9 10 9 0 16 -4 16 -10z m210 -446 c0 -2 -9 0 -20 6 -11 6 -20 13 -20 16
0 2 9 0 20 -6 11 -6 20 -13 20 -16z m-220 -4 c0 -5 -5 -10 -11 -10 -5 0 -7 5
-4 10 3 6 8 10 11 10 2 0 4 -4 4 -10z m-492 -32 c5 -25 -20 -22 -36 3 -12 19
-11 20 10 17 12 -2 24 -11 26 -20z m1742 -28 c0 -5 -4 -10 -10 -10 -5 0 -10 5
-10 10 0 6 5 10 10 10 6 0 10 -4 10 -10z m-1727 -17 c-7 -2 -19 -2 -25 0 -7 3
-2 5 12 5 14 0 19 -2 13 -5z m1417 -33 c0 -5 -10 -10 -22 -9 -22 0 -22 1 -3 9
11 5 21 9 23 9 1 1 2 -3 2 -9z m-1207 -7 c-7 -2 -21 -2 -30 0 -10 3 -4 5 12 5
17 0 24 -2 18 -5z"/>
<path d="M1506 2265 c-6 -16 29 -49 42 -41 15 9 2 44 -18 49 -10 3 -21 -1 -24
-8z"/>
<path d="M1059 2185 c-3 -19 -13 -34 -29 -42 -14 -7 -18 -13 -10 -13 8 0 25 8
38 18 19 15 21 22 14 42 l-10 25 -3 -30z"/>
<path d="M1251 2041 c-1 -24 2 -32 9 -25 7 7 7 19 1 35 -9 23 -10 22 -10 -10z"/>
<path d="M1190 2052 c0 -10 22 -32 32 -32 15 0 8 15 -12 28 -11 7 -20 9 -20 4z"/>
<path d="M1280 2050 c0 -5 5 -10 10 -10 6 0 10 5 10 10 0 6 -4 10 -10 10 -5 0
-10 -4 -10 -10z"/>
<path d="M1313 2044 c-3 -8 -1 -20 6 -27 8 -8 11 -4 11 16 0 30 -7 35 -17 11z"/>
<path d="M1360 2036 c0 -22 3 -27 11 -19 8 8 8 16 0 30 -9 16 -10 14 -11 -11z"/>
<path d="M1395 2048 c-4 -10 -4 -26 0 -35 5 -13 9 -14 12 -5 4 10 9 8 19 -5 7
-10 14 -13 14 -6 0 6 -6 18 -13 25 -8 7 -16 20 -19 28 -5 12 -7 12 -13 -2z"/>
<path d="M1470 2041 c0 -5 -3 -18 -6 -28 -4 -13 -3 -14 4 -5 7 11 10 11 15 -2
4 -9 11 -16 17 -16 6 0 4 12 -5 30 -16 30 -25 38 -25 21z"/>
<path d="M1520 2024 c0 -3 9 -17 20 -31 11 -14 20 -20 20 -12 -1 23 -40 66
-40 43z"/>
<path d="M1578 2014 c-8 -14 7 -61 15 -47 4 6 3 21 -1 34 -5 12 -11 18 -14 13z"/>
<path d="M881 909 c8 -16 14 -18 22 -10 9 9 8 14 -3 21 -24 16 -31 11 -19 -11z"/>
<path d="M670 392 c0 -12 19 -26 26 -19 2 2 -2 10 -11 17 -9 8 -15 8 -15 2z"/>
<path d="M785 310 c3 -5 8 -10 11 -10 2 0 4 5 4 10 0 6 -5 10 -11 10 -5 0 -7
-4 -4 -10z"/>
<path d="M38 281 c-4 -26 -1 -29 19 -27 31 4 42 16 15 16 -12 0 -22 5 -22 10
0 6 5 10 11 10 5 0 7 5 4 10 -11 18 -23 10 -27 -19z"/>
<path d="M840 280 c0 -5 5 -10 10 -10 6 0 10 5 10 10 0 6 -4 10 -10 10 -5 0
-10 -4 -10 -10z"/>
<path d="M905 250 c-3 -5 1 -10 10 -10 9 0 13 5 10 10 -3 6 -8 10 -10 10 -2 0
-7 -4 -10 -10z"/>
<path d="M95 240 c3 -5 10 -10 16 -10 5 0 9 5 9 10 0 6 -7 10 -16 10 -8 0 -12
-4 -9 -10z"/>
<path d="M68 212 c-15 -3 -16 -7 -7 -24 7 -14 17 -18 32 -14 21 5 21 5 3 -9
-19 -14 -19 -15 8 -15 15 0 25 4 21 10 -8 12 5 13 24 1 11 -7 10 -12 -8 -22
-24 -16 -29 -59 -6 -59 8 0 15 -4 15 -10 0 -13 -17 -13 -25 0 -4 6 -14 10 -23
9 -32 -3 -35 1 -16 22 19 22 19 22 -4 14 -20 -6 -23 -4 -18 12 4 13 -2 21 -20
30 -32 15 -36 6 -32 -78 l3 -64 50 0 c28 0 63 3 80 7 16 4 33 4 39 -2 15 -15
46 8 46 35 0 15 -7 26 -20 30 -15 5 -19 12 -15 26 4 13 2 19 -9 19 -9 0 -16 8
-16 18 -1 39 -57 74 -102 64z"/>
<path d="M20 189 c0 -5 5 -7 10 -4 6 3 10 8 10 11 0 2 -4 4 -10 4 -5 0 -10 -5
-10 -11z"/>
<path d="M904 45 c-15 -11 -16 -14 -4 -15 21 0 44 16 33 23 -6 4 -19 0 -29 -8z"/>
</g>
</svg>
