<?xml version="1.0" encoding="utf-8"?>
<!-- Generator: Adobe Illustrator 21.0.0, SVG Export Plug-In . SVG Version: 6.00 Build 0)  -->
<svg version="1.1" id="Layer_1" xmlns="http://www.w3.org/2000/svg" xmlns:xlink="http://www.w3.org/1999/xlink" x="0px" y="0px"
	 viewBox="0 0 1366 896" style="enable-background:new 0 0 1366 896;" xml:space="preserve">
<style type="text/css">
	.st0{fill:none;}
</style>
<g>
	<rect x="0.5" y="-23.5" class="st0" width="1365" height="918"/>
	<path d="M1365-23v917H1V-23H1365 M1366-24H0v919h1366V-24L1366-24z"/>
</g>
<g>
	<path d="M399.3,556.6l48.5,116.2l-48.5,48.5l-48.5-48.5L399.3,556.6 M399.3,538.5l-56.8,136l56.8,56.8l56.8-56.8L399.3,538.5
		L399.3,538.5z"/>
</g>
<g>
	<path d="M399.6,607.3l33.4,80.4l-33.7,33.7l-33.5-33.5L399.6,607.3 M399.6,589.1l-42.1,100.4l41.8,41.8l42-42L399.6,589.1
		L399.6,589.1z"/>
</g>
<g>
	<path d="M399.6,582.3l40.8,98l-41.1,41.1l-40.9-40.9L399.6,582.3 M399.6,564.1l-49.5,118l49.1,49.1l49.3-49.3L399.6,564.1
		L399.6,564.1z"/>
</g>
<g>
	<path d="M399.6,658.2c17.2,0,33.5,5.9,46.6,16.9l-46.6,46.6L353,675.1C366.1,664.2,382.4,658.2,399.6,658.2 M399.6,651.2
		c-20.4,0-40.9,7.8-56.5,23.4l-0.3,0.3l56.7,56.7l56.7-56.7l-0.3-0.3C440.5,659,420,651.2,399.6,651.2L399.6,651.2z"/>
</g>
<g>
	<path d="M399.6,671c17.2,0,33.5,5.9,46.6,16.9l-46.6,46.6L353,687.9C366.1,677,382.4,671,399.6,671 M399.6,664
		c-20.4,0-40.9,7.8-56.5,23.4l-0.3,0.3l56.7,56.7l56.7-56.7l-0.3-0.3C440.5,671.8,420,664,399.6,664L399.6,664z"/>
</g>
<g>
	<path d="M512.7,556.6l48.5,116.2l-48.5,48.5l-48.5-48.5L512.7,556.6 M512.7,538.5l-56.8,136l56.8,56.8l56.8-56.8L512.7,538.5
		L512.7,538.5z"/>
</g>
<g>
	<path d="M513,607.3l33.4,80.4l-33.7,33.7l-33.5-33.5L513,607.3 M513,589.1l-42.1,100.4l41.8,41.8l42-42L513,589.1L513,589.1z"/>
</g>
<g>
	<path d="M513,582.3l40.8,98l-41.1,41.1l-40.9-40.9L513,582.3 M513,564.1l-49.5,118l49.1,49.1L562,682L513,564.1L513,564.1z"/>
</g>
<g>
	<path d="M513,658.2c17.2,0,33.5,5.9,46.6,16.9L513,721.7l-46.6-46.6C479.5,664.2,495.8,658.2,513,658.2 M513,651.2
		c-20.4,0-40.9,7.8-56.5,23.4l-0.3,0.3l56.7,56.7l56.7-56.7l-0.3-0.3C553.9,659,533.4,651.2,513,651.2L513,651.2z"/>
</g>
<g>
	<path d="M513,671c17.2,0,33.5,5.9,46.6,16.9L513,734.5l-46.6-46.6C479.5,677,495.8,671,513,671 M513,664
		c-20.4,0-40.9,7.8-56.5,23.4l-0.3,0.3l56.7,56.7l56.7-56.7l-0.3-0.3C553.9,671.8,533.4,664,513,664L513,664z"/>
</g>
<g>
	<path d="M626.1,556.6l48.5,116.2l-48.5,48.5l-48.5-48.5L626.1,556.6 M626.1,538.5l-56.8,136l56.8,56.8l56.8-56.8L626.1,538.5
		L626.1,538.5z"/>
</g>
<g>
	<path d="M626.4,607.3l33.4,80.4l-33.7,33.7l-33.5-33.5L626.4,607.3 M626.4,589.1l-42.1,100.4l41.8,41.8l42-42L626.4,589.1
		L626.4,589.1z"/>
</g>
<g>
	<path d="M626.4,582.3l40.8,98l-41.1,41.1l-40.9-40.9L626.4,582.3 M626.4,564.1l-49.5,118l49.1,49.1l49.3-49.3L626.4,564.1
		L626.4,564.1z"/>
</g>
<g>
	<path d="M626.4,658.2c17.2,0,33.5,5.9,46.6,16.9l-46.6,46.6l-46.6-46.6C592.9,664.2,609.2,658.2,626.4,658.2 M626.4,651.2
		c-20.4,0-40.9,7.8-56.5,23.4l-0.3,0.3l56.7,56.7l56.7-56.7l-0.3-0.3C667.3,659,646.9,651.2,626.4,651.2L626.4,651.2z"/>
</g>
<g>
	<path d="M626.4,671c17.2,0,33.5,5.9,46.6,16.9l-46.6,46.6l-46.6-46.6C592.9,677,609.2,671,626.4,671 M626.4,664
		c-20.4,0-40.9,7.8-56.5,23.4l-0.3,0.3l56.7,56.7l56.7-56.7l-0.3-0.3C667.3,671.8,646.9,664,626.4,664L626.4,664z"/>
</g>
<g>
	<path d="M285.2,556.6l48.5,116.2l-48.5,48.5l-48.5-48.5L285.2,556.6 M285.2,538.5l-56.8,136l56.8,56.8l56.8-56.8L285.2,538.5
		L285.2,538.5z"/>
</g>
<g>
	<path d="M285.5,607.3l33.4,80.4l-33.7,33.7l-33.5-33.5L285.5,607.3 M285.5,589.1l-42.1,100.4l41.8,41.8l42-42L285.5,589.1
		L285.5,589.1z"/>
</g>
<g>
	<path d="M285.5,582.3l40.8,98l-41.1,41.1l-40.9-40.9L285.5,582.3 M285.5,564.1l-49.5,118l49.1,49.1l49.3-49.3L285.5,564.1
		L285.5,564.1z"/>
</g>
<g>
	<path d="M285.5,658.2c17.2,0,33.5,5.9,46.6,16.9l-46.6,46.6l-46.6-46.6C252,664.2,268.3,658.2,285.5,658.2 M285.5,651.2
		c-20.4,0-40.9,7.8-56.5,23.4l-0.3,0.3l56.7,56.7l56.7-56.7l-0.3-0.3C326.4,659,306,651.2,285.5,651.2L285.5,651.2z"/>
</g>
<g>
	<path d="M285.5,671c17.2,0,33.5,5.9,46.6,16.9l-46.6,46.6l-46.6-46.6C252,677,268.3,671,285.5,671 M285.5,664
		c-20.4,0-40.9,7.8-56.5,23.4l-0.3,0.3l56.7,56.7l56.7-56.7l-0.3-0.3C326.4,671.8,306,664,285.5,664L285.5,664z"/>
</g>
<g>
	<path d="M171.1,556.6l48.5,116.2l-48.5,48.5l-48.5-48.5L171.1,556.6 M171.1,538.5l-56.8,136l56.8,56.8l56.8-56.8L171.1,538.5
		L171.1,538.5z"/>
</g>
<g>
	<path d="M171.4,607.3l33.4,80.4l-33.7,33.7l-33.5-33.5L171.4,607.3 M171.4,589.1l-42.1,100.4l41.8,41.8l42-42L171.4,589.1
		L171.4,589.1z"/>
</g>
<g>
	<path d="M171.4,582.3l40.8,98l-41.1,41.1l-40.9-40.9L171.4,582.3 M171.4,564.1l-49.5,118l49.1,49.1l49.3-49.3L171.4,564.1
		L171.4,564.1z"/>
</g>
<g>
	<path d="M171.4,658.2c17.2,0,33.5,5.9,46.6,16.9l-46.6,46.6l-46.6-46.6C137.9,664.2,154.2,658.2,171.4,658.2 M171.4,651.2
		c-20.4,0-40.9,7.8-56.5,23.4l-0.3,0.3l56.7,56.7l56.7-56.7l-0.3-0.3C212.3,659,191.9,651.2,171.4,651.2L171.4,651.2z"/>
</g>
<g>
	<path d="M171.4,671c17.2,0,33.5,5.9,46.6,16.9l-46.6,46.6l-46.6-46.6C137.9,677,154.2,671,171.4,671 M171.4,664
		c-20.4,0-40.9,7.8-56.5,23.4l-0.3,0.3l56.7,56.7l56.7-56.7l-0.3-0.3C212.3,671.8,191.9,664,171.4,664L171.4,664z"/>
</g>
<g>
	<path d="M57,556.6l48.5,116.2L57,721.4L8.5,672.9L57,556.6 M57,538.5l-56.8,136L57,731.3l56.8-56.8L57,538.5L57,538.5z"/>
</g>
<g>
	<path d="M57.3,607.3l33.4,80.4L57,721.4l-33.5-33.5L57.3,607.3 M57.4,589.1L15.2,689.5L57,731.3l42-42L57.4,589.1L57.4,589.1z"/>
</g>
<g>
	<path d="M57.3,582.3l40.8,98L57,721.4l-40.9-40.9L57.3,582.3 M57.4,564.1l-49.5,118L57,731.3l49.3-49.3L57.4,564.1L57.4,564.1z"/>
</g>
<g>
	<path d="M57.4,658.2c17.2,0,33.5,5.9,46.6,16.9l-46.6,46.6l-46.6-46.6C23.8,664.2,40.1,658.2,57.4,658.2 M57.4,651.2
		c-20.4,0-40.9,7.8-56.5,23.4l-0.3,0.3l56.7,56.7l56.7-56.7l-0.3-0.3C98.2,659,77.8,651.2,57.4,651.2L57.4,651.2z"/>
</g>
<g>
	<path d="M57.4,671c17.2,0,33.5,5.9,46.6,16.9l-46.6,46.6l-46.6-46.6C23.8,677,40.1,671,57.4,671 M57.4,664
		c-20.4,0-40.9,7.8-56.5,23.4l-0.3,0.3l56.7,56.7l56.7-56.7l-0.3-0.3C98.2,671.8,77.8,664,57.4,664L57.4,664z"/>
</g>
<g>
	<path d="M1081.4,556.6l48.5,116.2l-48.5,48.5l-48.5-48.5L1081.4,556.6 M1081.4,538.5l-56.8,136l56.8,56.8l56.8-56.8L1081.4,538.5
		L1081.4,538.5z"/>
</g>
<g>
	<path d="M1081.7,607.3l33.4,80.4l-33.7,33.7l-33.5-33.5L1081.7,607.3 M1081.8,589.1l-42.1,100.4l41.8,41.8l42-42L1081.8,589.1
		L1081.8,589.1z"/>
</g>
<g>
	<path d="M1081.7,582.3l40.8,98l-41.1,41.1l-40.9-40.9L1081.7,582.3 M1081.8,564.1l-49.5,118l49.1,49.1l49.3-49.3L1081.8,564.1
		L1081.8,564.1z"/>
</g>
<g>
	<path d="M1081.8,658.2c17.2,0,33.5,5.9,46.6,16.9l-46.6,46.6l-46.6-46.6C1048.2,664.2,1064.5,658.2,1081.8,658.2 M1081.8,651.2
		c-20.4,0-40.9,7.8-56.5,23.4l-0.3,0.3l56.7,56.7l56.7-56.7l-0.3-0.3C1122.6,659,1102.2,651.2,1081.8,651.2L1081.8,651.2z"/>
</g>
<g>
	<path d="M1081.8,671c17.2,0,33.5,5.9,46.6,16.9l-46.6,46.6l-46.6-46.6C1048.2,677,1064.5,671,1081.8,671 M1081.8,664
		c-20.4,0-40.9,7.8-56.5,23.4l-0.3,0.3l56.7,56.7l56.7-56.7l-0.3-0.3C1122.6,671.8,1102.2,664,1081.8,664L1081.8,664z"/>
</g>
<g>
	<path d="M1194.8,556.6l48.5,116.2l-48.5,48.5l-48.5-48.5L1194.8,556.6 M1194.8,538.5l-56.8,136l56.8,56.8l56.8-56.8L1194.8,538.5
		L1194.8,538.5z"/>
</g>
<g>
	<path d="M1195.2,607.3l33.4,80.4l-33.7,33.7l-33.5-33.5L1195.2,607.3 M1195.2,589.1l-42.1,100.4l41.8,41.8l42-42L1195.2,589.1
		L1195.2,589.1z"/>
</g>
<g>
	<path d="M1195.2,582.3l40.8,98l-41.1,41.1l-40.9-40.9L1195.2,582.3 M1195.2,564.1l-49.5,118l49.1,49.1l49.3-49.3L1195.2,564.1
		L1195.2,564.1z"/>
</g>
<g>
	<path d="M1195.2,658.2c17.2,0,33.5,5.9,46.6,16.9l-46.6,46.6l-46.6-46.6C1161.6,664.2,1178,658.2,1195.2,658.2 M1195.2,651.2
		c-20.4,0-40.9,7.8-56.5,23.4l-0.3,0.3l56.7,56.7l56.7-56.7l-0.3-0.3C1236.1,659,1215.6,651.2,1195.2,651.2L1195.2,651.2z"/>
</g>
<g>
	<path d="M1195.2,671c17.2,0,33.5,5.9,46.6,16.9l-46.6,46.6l-46.6-46.6C1161.6,677,1178,671,1195.2,671 M1195.2,664
		c-20.4,0-40.9,7.8-56.5,23.4l-0.3,0.3l56.7,56.7l56.7-56.7l-0.3-0.3C1236.1,671.8,1215.6,664,1195.2,664L1195.2,664z"/>
</g>
<g>
	<path d="M1308.3,556.6l48.5,116.2l-48.5,48.5l-48.5-48.5L1308.3,556.6 M1308.3,538.5l-56.8,136l56.8,56.8l56.8-56.8L1308.3,538.5
		L1308.3,538.5z"/>
</g>
<g>
	<path d="M1308.6,607.3l33.4,80.4l-33.7,33.7l-33.5-33.5L1308.6,607.3 M1308.6,589.1l-42.1,100.4l41.8,41.8l42-42L1308.6,589.1
		L1308.6,589.1z"/>
</g>
<g>
	<path d="M1308.6,582.3l40.8,98l-41.1,41.1l-40.9-40.9L1308.6,582.3 M1308.6,564.1l-49.5,118l49.1,49.1l49.3-49.3L1308.6,564.1
		L1308.6,564.1z"/>
</g>
<g>
	<path d="M1308.6,658.2c17.2,0,33.5,5.9,46.6,16.9l-46.6,46.6l-46.6-46.6C1275,664.2,1291.4,658.2,1308.6,658.2 M1308.6,651.2
		c-20.4,0-40.9,7.8-56.5,23.4l-0.3,0.3l56.7,56.7l56.7-56.7l-0.3-0.3C1349.5,659,1329,651.2,1308.6,651.2L1308.6,651.2z"/>
</g>
<g>
	<path d="M1308.6,671c17.2,0,33.5,5.9,46.6,16.9l-46.6,46.6l-46.6-46.6C1275,677,1291.4,671,1308.6,671 M1308.6,664
		c-20.4,0-40.9,7.8-56.5,23.4l-0.3,0.3l56.7,56.7l56.7-56.7l-0.3-0.3C1349.5,671.8,1329,664,1308.6,664L1308.6,664z"/>
</g>
<g>
	<path d="M967.4,556.6l48.5,116.2l-48.5,48.5l-48.5-48.5L967.4,556.6 M967.4,538.5l-56.8,136l56.8,56.8l56.8-56.8L967.4,538.5
		L967.4,538.5z"/>
</g>
<g>
	<path d="M967.7,607.3l33.4,80.4l-33.7,33.7l-33.5-33.5L967.7,607.3 M967.7,589.1l-42.1,100.4l41.8,41.8l42-42L967.7,589.1
		L967.7,589.1z"/>
</g>
<g>
	<path d="M967.7,582.3l40.8,98l-41.1,41.1l-40.9-40.9L967.7,582.3 M967.7,564.1l-49.5,118l49.1,49.1l49.3-49.3L967.7,564.1
		L967.7,564.1z"/>
</g>
<g>
	<path d="M967.7,658.2c17.2,0,33.5,5.9,46.6,16.9l-46.6,46.6l-46.6-46.6C934.1,664.2,950.5,658.2,967.7,658.2 M967.7,651.2
		c-20.4,0-40.9,7.8-56.5,23.4l-0.3,0.3l56.7,56.7l56.7-56.7l-0.3-0.3C1008.6,659,988.1,651.2,967.7,651.2L967.7,651.2z"/>
</g>
<g>
	<path d="M967.7,671c17.2,0,33.5,5.9,46.6,16.9l-46.6,46.6l-46.6-46.6C934.1,677,950.5,671,967.7,671 M967.7,664
		c-20.4,0-40.9,7.8-56.5,23.4l-0.3,0.3l56.7,56.7l56.7-56.7l-0.3-0.3C1008.6,671.8,988.1,664,967.7,664L967.7,664z"/>
</g>
<g>
	<path d="M853.3,556.6l48.5,116.2l-48.5,48.5l-48.5-48.5L853.3,556.6 M853.3,538.5l-56.8,136l56.8,56.8l56.8-56.8L853.3,538.5
		L853.3,538.5z"/>
</g>
<g>
	<path d="M853.6,607.3l33.4,80.4l-33.7,33.7l-33.5-33.5L853.6,607.3 M853.6,589.1l-42.1,100.4l41.8,41.8l42-42L853.6,589.1
		L853.6,589.1z"/>
</g>
<g>
	<path d="M853.6,582.3l40.8,98l-41.1,41.1l-40.9-40.9L853.6,582.3 M853.6,564.1l-49.5,118l49.1,49.1l49.3-49.3L853.6,564.1
		L853.6,564.1z"/>
</g>
<g>
	<path d="M853.6,658.2c17.2,0,33.5,5.9,46.6,16.9l-46.6,46.6L807,675.1C820.1,664.2,836.4,658.2,853.6,658.2 M853.6,651.2
		c-20.4,0-40.9,7.8-56.5,23.4l-0.3,0.3l56.7,56.7l56.7-56.7l-0.3-0.3C894.5,659,874,651.2,853.6,651.2L853.6,651.2z"/>
</g>
<g>
	<path d="M853.6,671c17.2,0,33.5,5.9,46.6,16.9l-46.6,46.6L807,687.9C820.1,677,836.4,671,853.6,671 M853.6,664
		c-20.4,0-40.9,7.8-56.5,23.4l-0.3,0.3l56.7,56.7l56.7-56.7l-0.3-0.3C894.5,671.8,874,664,853.6,664L853.6,664z"/>
</g>
<g>
	<path d="M739.2,556.6l48.5,116.2l-48.5,48.5l-48.5-48.5L739.2,556.6 M739.2,538.5l-56.8,136l56.8,56.8l56.8-56.8L739.2,538.5
		L739.2,538.5z"/>
</g>
<g>
	<path d="M739.5,607.3l33.4,80.4l-33.7,33.7l-33.5-33.5L739.5,607.3 M739.5,589.1l-42.1,100.4l41.8,41.8l42-42L739.5,589.1
		L739.5,589.1z"/>
</g>
<g>
	<path d="M739.5,582.3l40.8,98l-41.1,41.1l-40.9-40.9L739.5,582.3 M739.5,564.1l-49.5,118l49.1,49.1l49.3-49.3L739.5,564.1
		L739.5,564.1z"/>
</g>
<g>
	<path d="M739.5,658.2c17.2,0,33.5,5.9,46.6,16.9l-46.6,46.6l-46.6-46.6C706,664.2,722.3,658.2,739.5,658.2 M739.5,651.2
		c-20.4,0-40.9,7.8-56.5,23.4l-0.3,0.3l56.7,56.7l56.7-56.7l-0.3-0.3C780.4,659,760,651.2,739.5,651.2L739.5,651.2z"/>
</g>
<g>
	<path d="M739.5,671c17.2,0,33.5,5.9,46.6,16.9l-46.6,46.6l-46.6-46.6C706,677,722.3,671,739.5,671 M739.5,664
		c-20.4,0-40.9,7.8-56.5,23.4l-0.3,0.3l56.7,56.7l56.7-56.7l-0.3-0.3C780.4,671.8,760,664,739.5,664L739.5,664z"/>
</g>
<g>
	<path d="M342.8,408.1l48.5,116.2l-48.5,48.5l-48.5-48.5L342.8,408.1 M342.8,390L286,526l56.8,56.8l56.8-56.8L342.8,390L342.8,390z"
		/>
</g>
<g>
	<path d="M343.1,458.8l33.4,80.4l-33.7,33.7l-33.5-33.5L343.1,458.8 M343.1,440.6L301,541l41.8,41.8l42-42L343.1,440.6L343.1,440.6z
		"/>
</g>
<g>
	<path d="M343.1,433.8l40.8,98l-41.1,41.1L301.9,532L343.1,433.8 M343.1,415.6l-49.5,118l49.1,49.1l49.3-49.3L343.1,415.6
		L343.1,415.6z"/>
</g>
<g>
	<path d="M343.1,509.7c17.2,0,33.5,5.9,46.6,16.9l-46.6,46.6l-46.6-46.6C309.6,515.7,325.9,509.7,343.1,509.7 M343.1,502.7
		c-20.4,0-40.9,7.8-56.5,23.4l-0.3,0.3l56.7,56.7l56.7-56.7l-0.3-0.3C384,510.5,363.5,502.7,343.1,502.7L343.1,502.7z"/>
</g>
<g>
	<path d="M343.1,522.5c17.2,0,33.5,5.9,46.6,16.9L343.1,586l-46.6-46.6C309.6,528.5,325.9,522.5,343.1,522.5 M343.1,515.5
		c-20.4,0-40.9,7.8-56.5,23.4l-0.3,0.3l56.7,56.7l56.7-56.7l-0.3-0.3C384,523.3,363.5,515.5,343.1,515.5L343.1,515.5z"/>
</g>
<g>
	<path d="M456.2,408.1l48.5,116.2l-48.5,48.5l-48.5-48.5L456.2,408.1 M456.2,390l-56.8,136l56.8,56.8L513,526L456.2,390L456.2,390z"
		/>
</g>
<g>
	<path d="M456.5,458.8l33.4,80.4l-33.7,33.7l-33.5-33.5L456.5,458.8 M456.5,440.6L414.4,541l41.8,41.8l42-42L456.5,440.6
		L456.5,440.6z"/>
</g>
<g>
	<path d="M456.5,433.8l40.8,98l-41.1,41.1L415.3,532L456.5,433.8 M456.5,415.6l-49.5,118l49.1,49.1l49.3-49.3L456.5,415.6
		L456.5,415.6z"/>
</g>
<g>
	<path d="M456.5,509.7c17.2,0,33.5,5.9,46.6,16.9l-46.6,46.6l-46.6-46.6C423,515.7,439.3,509.7,456.5,509.7 M456.5,502.7
		c-20.4,0-40.9,7.8-56.5,23.4l-0.3,0.3l56.7,56.7l56.7-56.7l-0.3-0.3C497.4,510.5,476.9,502.7,456.5,502.7L456.5,502.7z"/>
</g>
<g>
	<path d="M456.5,522.5c17.2,0,33.5,5.9,46.6,16.9L456.5,586l-46.6-46.6C423,528.5,439.3,522.5,456.5,522.5 M456.5,515.5
		c-20.4,0-40.9,7.8-56.5,23.4l-0.3,0.3l56.7,56.7l56.7-56.7l-0.3-0.3C497.4,523.3,476.9,515.5,456.5,515.5L456.5,515.5z"/>
</g>
<g>
	<path d="M569.6,408.1l48.5,116.2l-48.5,48.5L521,524.4L569.6,408.1 M569.6,390l-56.8,136l56.8,56.8l56.8-56.8L569.6,390L569.6,390z
		"/>
</g>
<g>
	<path d="M569.9,458.8l33.4,80.4l-33.7,33.7l-33.5-33.5L569.9,458.8 M569.9,440.6L527.8,541l41.8,41.8l42-42L569.9,440.6
		L569.9,440.6z"/>
</g>
<g>
	<path d="M569.9,433.8l40.8,98l-41.1,41.1L528.7,532L569.9,433.8 M569.9,415.6l-49.5,118l49.1,49.1l49.3-49.3L569.9,415.6
		L569.9,415.6z"/>
</g>
<g>
	<path d="M569.9,509.7c17.2,0,33.5,5.9,46.6,16.9l-46.6,46.6l-46.6-46.6C536.4,515.7,552.7,509.7,569.9,509.7 M569.9,502.7
		c-20.4,0-40.9,7.8-56.5,23.4l-0.3,0.3l56.7,56.7l56.7-56.7l-0.3-0.3C610.8,510.5,590.4,502.7,569.9,502.7L569.9,502.7z"/>
</g>
<g>
	<path d="M569.9,522.5c17.2,0,33.5,5.9,46.6,16.9L569.9,586l-46.6-46.6C536.4,528.5,552.7,522.5,569.9,522.5 M569.9,515.5
		c-20.4,0-40.9,7.8-56.5,23.4l-0.3,0.3l56.7,56.7l56.7-56.7l-0.3-0.3C610.8,523.3,590.4,515.5,569.9,515.5L569.9,515.5z"/>
</g>
<g>
	<path d="M228.7,408.1l48.5,116.2l-48.5,48.5l-48.5-48.5L228.7,408.1 M228.7,390l-56.8,136l56.8,56.8l56.8-56.8L228.7,390L228.7,390
		z"/>
</g>
<g>
	<path d="M229,458.8l33.4,80.4l-33.7,33.7l-33.5-33.5L229,458.8 M229,440.6L186.9,541l41.8,41.8l42-42L229,440.6L229,440.6z"/>
</g>
<g>
	<path d="M229,433.8l40.8,98l-41.1,41.1L187.8,532L229,433.8 M229,415.6l-49.5,118l49.1,49.1l49.3-49.3L229,415.6L229,415.6z"/>
</g>
<g>
	<path d="M229,509.7c17.2,0,33.5,5.9,46.6,16.9L229,573.2l-46.6-46.6C195.5,515.7,211.8,509.7,229,509.7 M229,502.7
		c-20.4,0-40.9,7.8-56.5,23.4l-0.3,0.3l56.7,56.7l56.7-56.7l-0.3-0.3C269.9,510.5,249.5,502.7,229,502.7L229,502.7z"/>
</g>
<g>
	<path d="M229,522.5c17.2,0,33.5,5.9,46.6,16.9L229,586l-46.6-46.6C195.5,528.5,211.8,522.5,229,522.5 M229,515.5
		c-20.4,0-40.9,7.8-56.5,23.4l-0.3,0.3l56.7,56.7l56.7-56.7l-0.3-0.3C269.9,523.3,249.5,515.5,229,515.5L229,515.5z"/>
</g>
<g>
	<path d="M114.6,408.1l48.5,116.2l-48.5,48.5l-48.5-48.5L114.6,408.1 M114.6,390L57.8,526l56.8,56.8l56.8-56.8L114.6,390L114.6,390z
		"/>
</g>
<g>
	<path d="M114.9,458.8l33.4,80.4l-33.7,33.7l-33.5-33.5L114.9,458.8 M114.9,440.6L72.8,541l41.8,41.8l42-42L114.9,440.6L114.9,440.6
		z"/>
</g>
<g>
	<path d="M114.9,433.8l40.8,98l-41.1,41.1L73.7,532L114.9,433.8 M114.9,415.6l-49.5,118l49.1,49.1l49.3-49.3L114.9,415.6
		L114.9,415.6z"/>
</g>
<g>
	<path d="M114.9,509.7c17.2,0,33.5,5.9,46.6,16.9l-46.6,46.6l-46.6-46.6C81.4,515.7,97.7,509.7,114.9,509.7 M114.9,502.7
		c-20.4,0-40.9,7.8-56.5,23.4l-0.3,0.3l56.7,56.7l56.7-56.7l-0.3-0.3C155.8,510.5,135.4,502.7,114.9,502.7L114.9,502.7z"/>
</g>
<g>
	<path d="M114.9,522.5c17.2,0,33.5,5.9,46.6,16.9L114.9,586l-46.6-46.6C81.4,528.5,97.7,522.5,114.9,522.5 M114.9,515.5
		c-20.4,0-40.9,7.8-56.5,23.4l-0.3,0.3l56.7,56.7l56.7-56.7l-0.3-0.3C155.8,523.3,135.4,515.5,114.9,515.5L114.9,515.5z"/>
</g>
<g>
	<path d="M0.5,408.1l48.5,116.2L0.5,572.9L-48,524.4L0.5,408.1 M0.5,390l-56.8,136l56.8,56.8L57.3,526L0.5,390L0.5,390z"/>
</g>
<g>
	<path d="M0.8,458.8l33.4,80.4L0.5,572.9L-33,539.4L0.8,458.8 M0.9,440.6L-41.3,541l41.8,41.8l42-42L0.9,440.6L0.9,440.6z"/>
</g>
<g>
	<path d="M0.8,433.8l40.8,98L0.5,572.9L-40.4,532L0.8,433.8 M0.9,415.6l-49.5,118l49.1,49.1l49.3-49.3L0.9,415.6L0.9,415.6z"/>
</g>
<g>
	<path d="M0.9,509.7c17.2,0,33.5,5.9,46.6,16.9L0.9,573.2l-46.6-46.6C-32.7,515.7-16.4,509.7,0.9,509.7 M0.9,502.7
		c-20.4,0-40.9,7.8-56.5,23.4l-0.3,0.3l56.7,56.7l56.7-56.7l-0.3-0.3C41.7,510.5,21.3,502.7,0.9,502.7L0.9,502.7z"/>
</g>
<g>
	<path d="M0.9,522.5c17.2,0,33.5,5.9,46.6,16.9L0.9,586l-46.6-46.6C-32.7,528.5-16.4,522.5,0.9,522.5 M0.9,515.5
		c-20.4,0-40.9,7.8-56.5,23.4l-0.3,0.3l56.7,56.7l56.7-56.7l-0.3-0.3C41.7,523.3,21.3,515.5,0.9,515.5L0.9,515.5z"/>
</g>
<g>
	<path d="M1365.5,408.1l48.5,116.2l-48.5,48.5l-48.5-48.5L1365.5,408.1 M1365.5,390l-56.8,136l56.8,56.8l56.8-56.8L1365.5,390
		L1365.5,390z"/>
</g>
<g>
	<path d="M1365.8,458.8l33.4,80.4l-33.7,33.7l-33.5-33.5L1365.8,458.8 M1365.9,440.6L1323.7,541l41.8,41.8l42-42L1365.9,440.6
		L1365.9,440.6z"/>
</g>
<g>
	<path d="M1365.8,433.8l40.8,98l-41.1,41.1l-40.9-40.9L1365.8,433.8 M1365.9,415.6l-49.5,118l49.1,49.1l49.3-49.3L1365.9,415.6
		L1365.9,415.6z"/>
</g>
<g>
	<path d="M1365.9,509.7c17.2,0,33.5,5.9,46.6,16.9l-46.6,46.6l-46.6-46.6C1332.3,515.7,1348.6,509.7,1365.9,509.7 M1365.9,502.7
		c-20.4,0-40.9,7.8-56.5,23.4l-0.3,0.3l56.7,56.7l56.7-56.7l-0.3-0.3C1406.7,510.5,1386.3,502.7,1365.9,502.7L1365.9,502.7z"/>
</g>
<g>
	<path d="M1365.9,522.5c17.2,0,33.5,5.9,46.6,16.9l-46.6,46.6l-46.6-46.6C1332.3,528.5,1348.6,522.5,1365.9,522.5 M1365.9,515.5
		c-20.4,0-40.9,7.8-56.5,23.4l-0.3,0.3l56.7,56.7l56.7-56.7l-0.3-0.3C1406.7,523.3,1386.3,515.5,1365.9,515.5L1365.9,515.5z"/>
</g>
<g>
	<path d="M1024.9,408.1l48.5,116.2l-48.5,48.5l-48.5-48.5L1024.9,408.1 M1024.9,390l-56.8,136l56.8,56.8l56.8-56.8L1024.9,390
		L1024.9,390z"/>
</g>
<g>
	<path d="M1025.2,458.8l33.4,80.4l-33.7,33.7l-33.5-33.5L1025.2,458.8 M1025.3,440.6L983.1,541l41.8,41.8l42-42L1025.3,440.6
		L1025.3,440.6z"/>
</g>
<g>
	<path d="M1025.2,433.8l40.8,98l-41.1,41.1L984.1,532L1025.2,433.8 M1025.3,415.6l-49.5,118l49.1,49.1l49.3-49.3L1025.3,415.6
		L1025.3,415.6z"/>
</g>
<g>
	<path d="M1025.3,509.7c17.2,0,33.5,5.9,46.6,16.9l-46.6,46.6l-46.6-46.6C991.7,515.7,1008,509.7,1025.3,509.7 M1025.3,502.7
		c-20.4,0-40.9,7.8-56.5,23.4l-0.3,0.3l56.7,56.7l56.7-56.7l-0.3-0.3C1066.1,510.5,1045.7,502.7,1025.3,502.7L1025.3,502.7z"/>
</g>
<g>
	<path d="M1025.3,522.5c17.2,0,33.5,5.9,46.6,16.9l-46.6,46.6l-46.6-46.6C991.7,528.5,1008,522.5,1025.3,522.5 M1025.3,515.5
		c-20.4,0-40.9,7.8-56.5,23.4l-0.3,0.3l56.7,56.7l56.7-56.7l-0.3-0.3C1066.1,523.3,1045.7,515.5,1025.3,515.5L1025.3,515.5z"/>
</g>
<g>
	<path d="M1138.3,408.1l48.5,116.2l-48.5,48.5l-48.5-48.5L1138.3,408.1 M1138.3,390l-56.8,136l56.8,56.8l56.8-56.8L1138.3,390
		L1138.3,390z"/>
</g>
<g>
	<path d="M1138.7,458.8l33.4,80.4l-33.7,33.7l-33.5-33.5L1138.7,458.8 M1138.7,440.6L1096.6,541l41.8,41.8l42-42L1138.7,440.6
		L1138.7,440.6z"/>
</g>
<g>
	<path d="M1138.7,433.8l40.8,98l-41.1,41.1l-40.9-40.9L1138.7,433.8 M1138.7,415.6l-49.5,118l49.1,49.1l49.3-49.3L1138.7,415.6
		L1138.7,415.6z"/>
</g>
<g>
	<path d="M1138.7,509.7c17.2,0,33.5,5.9,46.6,16.9l-46.6,46.6l-46.6-46.6C1105.1,515.7,1121.5,509.7,1138.7,509.7 M1138.7,502.7
		c-20.4,0-40.9,7.8-56.5,23.4l-0.3,0.3l56.7,56.7l56.7-56.7l-0.3-0.3C1179.6,510.5,1159.1,502.7,1138.7,502.7L1138.7,502.7z"/>
</g>
<g>
	<path d="M1138.7,522.5c17.2,0,33.5,5.9,46.6,16.9l-46.6,46.6l-46.6-46.6C1105.1,528.5,1121.5,522.5,1138.7,522.5 M1138.7,515.5
		c-20.4,0-40.9,7.8-56.5,23.4l-0.3,0.3l56.7,56.7l56.7-56.7l-0.3-0.3C1179.6,523.3,1159.1,515.5,1138.7,515.5L1138.7,515.5z"/>
</g>
<g>
	<path d="M1251.8,408.1l48.5,116.2l-48.5,48.5l-48.5-48.5L1251.8,408.1 M1251.8,390L1195,526l56.8,56.8l56.8-56.8L1251.8,390
		L1251.8,390z"/>
</g>
<g>
	<path d="M1252.1,458.8l33.4,80.4l-33.7,33.7l-33.5-33.5L1252.1,458.8 M1252.1,440.6L1210,541l41.8,41.8l42-42L1252.1,440.6
		L1252.1,440.6z"/>
</g>
<g>
	<path d="M1252.1,433.8l40.8,98l-41.1,41.1l-40.9-40.9L1252.1,433.8 M1252.1,415.6l-49.5,118l49.1,49.1l49.3-49.3L1252.1,415.6
		L1252.1,415.6z"/>
</g>
<g>
	<path d="M1252.1,509.7c17.2,0,33.5,5.9,46.6,16.9l-46.6,46.6l-46.6-46.6C1218.5,515.7,1234.9,509.7,1252.1,509.7 M1252.1,502.7
		c-20.4,0-40.9,7.8-56.5,23.4l-0.3,0.3l56.7,56.7l56.7-56.7l-0.3-0.3C1293,510.5,1272.5,502.7,1252.1,502.7L1252.1,502.7z"/>
</g>
<g>
	<path d="M1252.1,522.5c17.2,0,33.5,5.9,46.6,16.9l-46.6,46.6l-46.6-46.6C1218.5,528.5,1234.9,522.5,1252.1,522.5 M1252.1,515.5
		c-20.4,0-40.9,7.8-56.5,23.4l-0.3,0.3l56.7,56.7l56.7-56.7l-0.3-0.3C1293,523.3,1272.5,515.5,1252.1,515.5L1252.1,515.5z"/>
</g>
<g>
	<path d="M910.9,408.1l48.5,116.2l-48.5,48.5l-48.5-48.5L910.9,408.1 M910.9,390l-56.8,136l56.8,56.8l56.8-56.8L910.9,390L910.9,390
		z"/>
</g>
<g>
	<path d="M911.2,458.8l33.4,80.4l-33.7,33.7l-33.5-33.5L911.2,458.8 M911.2,440.6L869.1,541l41.8,41.8l42-42L911.2,440.6
		L911.2,440.6z"/>
</g>
<g>
	<path d="M911.2,433.8l40.8,98l-41.1,41.1L870,532L911.2,433.8 M911.2,415.6l-49.5,118l49.1,49.1l49.3-49.3L911.2,415.6L911.2,415.6
		z"/>
</g>
<g>
	<path d="M911.2,509.7c17.2,0,33.5,5.9,46.6,16.9l-46.6,46.6l-46.6-46.6C877.6,515.7,894,509.7,911.2,509.7 M911.2,502.7
		c-20.4,0-40.9,7.8-56.5,23.4l-0.3,0.3l56.7,56.7l56.7-56.7l-0.3-0.3C952.1,510.5,931.6,502.7,911.2,502.7L911.2,502.7z"/>
</g>
<g>
	<path d="M911.2,522.5c17.2,0,33.5,5.9,46.6,16.9L911.2,586l-46.6-46.6C877.6,528.5,894,522.5,911.2,522.5 M911.2,515.5
		c-20.4,0-40.9,7.8-56.5,23.4l-0.3,0.3l56.7,56.7l56.7-56.7l-0.3-0.3C952.1,523.3,931.6,515.5,911.2,515.5L911.2,515.5z"/>
</g>
<g>
	<path d="M796.8,408.1l48.5,116.2l-48.5,48.5l-48.5-48.5L796.8,408.1 M796.8,390L740,526l56.8,56.8l56.8-56.8L796.8,390L796.8,390z"
		/>
</g>
<g>
	<path d="M797.1,458.8l33.4,80.4l-33.7,33.7l-33.5-33.5L797.1,458.8 M797.1,440.6L755,541l41.8,41.8l42-42L797.1,440.6L797.1,440.6z
		"/>
</g>
<g>
	<path d="M797.1,433.8l40.8,98l-41.1,41.1L755.9,532L797.1,433.8 M797.1,415.6l-49.5,118l49.1,49.1l49.3-49.3L797.1,415.6
		L797.1,415.6z"/>
</g>
<g>
	<path d="M797.1,509.7c17.2,0,33.5,5.9,46.6,16.9l-46.6,46.6l-46.6-46.6C763.6,515.7,779.9,509.7,797.1,509.7 M797.1,502.7
		c-20.4,0-40.9,7.8-56.5,23.4l-0.3,0.3l56.7,56.7l56.7-56.7l-0.3-0.3C838,510.5,817.5,502.7,797.1,502.7L797.1,502.7z"/>
</g>
<g>
	<path d="M797.1,522.5c17.2,0,33.5,5.9,46.6,16.9L797.1,586l-46.6-46.6C763.6,528.5,779.9,522.5,797.1,522.5 M797.1,515.5
		c-20.4,0-40.9,7.8-56.5,23.4l-0.3,0.3l56.7,56.7l56.7-56.7l-0.3-0.3C838,523.3,817.5,515.5,797.1,515.5L797.1,515.5z"/>
</g>
<g>
	<path d="M682.7,408.1l48.5,116.2l-48.5,48.5l-48.5-48.5L682.7,408.1 M682.7,390l-56.8,136l56.8,56.8l56.8-56.8L682.7,390L682.7,390
		z"/>
</g>
<g>
	<path d="M683,458.8l33.4,80.4l-33.7,33.7l-33.5-33.5L683,458.8 M683,440.6L640.9,541l41.8,41.8l42-42L683,440.6L683,440.6z"/>
</g>
<g>
	<path d="M683,433.8l40.8,98l-41.1,41.1L641.8,532L683,433.8 M683,415.6l-49.5,118l49.1,49.1l49.3-49.3L683,415.6L683,415.6z"/>
</g>
<g>
	<path d="M683,509.7c17.2,0,33.5,5.9,46.6,16.9L683,573.2l-46.6-46.6C649.5,515.7,665.8,509.7,683,509.7 M683,502.7
		c-20.4,0-40.9,7.8-56.5,23.4l-0.3,0.3l56.7,56.7l56.7-56.7l-0.3-0.3C723.9,510.5,703.5,502.7,683,502.7L683,502.7z"/>
</g>
<g>
	<path d="M683,522.5c17.2,0,33.5,5.9,46.6,16.9L683,586l-46.6-46.6C649.5,528.5,665.8,522.5,683,522.5 M683,515.5
		c-20.4,0-40.9,7.8-56.5,23.4l-0.3,0.3l56.7,56.7l56.7-56.7l-0.3-0.3C723.9,523.3,703.5,515.5,683,515.5L683,515.5z"/>
</g>
<g>
	<path d="M399.3,855.6l48.5,116.2l-48.5,48.5l-48.5-48.5L399.3,855.6 M399.3,837.5l-56.8,136l56.8,56.8l56.8-56.8L399.3,837.5
		L399.3,837.5z"/>
</g>
<g>
	<path d="M399.6,906.3l33.4,80.4l-33.7,33.7l-33.5-33.5L399.6,906.3 M399.6,888.1l-42.1,100.4l41.8,41.8l42-42L399.6,888.1
		L399.6,888.1z"/>
</g>
<g>
	<path d="M399.6,881.3l40.8,98l-41.1,41.1l-40.9-40.9L399.6,881.3 M399.6,863.1l-49.5,118l49.1,49.1l49.3-49.3L399.6,863.1
		L399.6,863.1z"/>
</g>
<g>
	<path d="M512.7,855.6l48.5,116.2l-48.5,48.5l-48.5-48.5L512.7,855.6 M512.7,837.5l-56.8,136l56.8,56.8l56.8-56.8L512.7,837.5
		L512.7,837.5z"/>
</g>
<g>
	<path d="M513,906.3l33.4,80.4l-33.7,33.7l-33.5-33.5L513,906.3 M513,888.1l-42.1,100.4l41.8,41.8l42-42L513,888.1L513,888.1z"/>
</g>
<g>
	<path d="M513,881.3l40.8,98l-41.1,41.1l-40.9-40.9L513,881.3 M513,863.1l-49.5,118l49.1,49.1L562,981L513,863.1L513,863.1z"/>
</g>
<g>
	<path d="M626.1,855.6l48.5,116.2l-48.5,48.5l-48.5-48.5L626.1,855.6 M626.1,837.5l-56.8,136l56.8,56.8l56.8-56.8L626.1,837.5
		L626.1,837.5z"/>
</g>
<g>
	<path d="M626.4,906.3l33.4,80.4l-33.7,33.7l-33.5-33.5L626.4,906.3 M626.4,888.1l-42.1,100.4l41.8,41.8l42-42L626.4,888.1
		L626.4,888.1z"/>
</g>
<g>
	<path d="M626.4,881.3l40.8,98l-41.1,41.1l-40.9-40.9L626.4,881.3 M626.4,863.1l-49.5,118l49.1,49.1l49.3-49.3L626.4,863.1
		L626.4,863.1z"/>
</g>
<g>
	<path d="M285.2,855.6l48.5,116.2l-48.5,48.5l-48.5-48.5L285.2,855.6 M285.2,837.5l-56.8,136l56.8,56.8l56.8-56.8L285.2,837.5
		L285.2,837.5z"/>
</g>
<g>
	<path d="M285.5,906.3l33.4,80.4l-33.7,33.7l-33.5-33.5L285.5,906.3 M285.5,888.1l-42.1,100.4l41.8,41.8l42-42L285.5,888.1
		L285.5,888.1z"/>
</g>
<g>
	<path d="M285.5,881.3l40.8,98l-41.1,41.1l-40.9-40.9L285.5,881.3 M285.5,863.1l-49.5,118l49.1,49.1l49.3-49.3L285.5,863.1
		L285.5,863.1z"/>
</g>
<g>
	<path d="M171.1,855.6l48.5,116.2l-48.5,48.5l-48.5-48.5L171.1,855.6 M171.1,837.5l-56.8,136l56.8,56.8l56.8-56.8L171.1,837.5
		L171.1,837.5z"/>
</g>
<g>
	<path d="M171.4,906.3l33.4,80.4l-33.7,33.7l-33.5-33.5L171.4,906.3 M171.4,888.1l-42.1,100.4l41.8,41.8l42-42L171.4,888.1
		L171.4,888.1z"/>
</g>
<g>
	<path d="M171.4,881.3l40.8,98l-41.1,41.1l-40.9-40.9L171.4,881.3 M171.4,863.1l-49.5,118l49.1,49.1l49.3-49.3L171.4,863.1
		L171.4,863.1z"/>
</g>
<g>
	<path d="M57,855.6l48.5,116.2L57,1020.4L8.5,971.9L57,855.6 M57,837.5l-56.8,136l56.8,56.8l56.8-56.8L57,837.5L57,837.5z"/>
</g>
<g>
	<path d="M57.3,906.3l33.4,80.4L57,1020.4l-33.5-33.5L57.3,906.3 M57.4,888.1L15.2,988.5l41.8,41.8l42-42L57.4,888.1L57.4,888.1z"/>
</g>
<g>
	<path d="M57.3,881.3l40.8,98L57,1020.4l-40.9-40.9L57.3,881.3 M57.4,863.1l-49.5,118l49.1,49.1l49.3-49.3L57.4,863.1L57.4,863.1z"
		/>
</g>
<g>
	<path d="M1081.4,855.6l48.5,116.2l-48.5,48.5l-48.5-48.5L1081.4,855.6 M1081.4,837.5l-56.8,136l56.8,56.8l56.8-56.8L1081.4,837.5
		L1081.4,837.5z"/>
</g>
<g>
	<path d="M1081.7,906.3l33.4,80.4l-33.7,33.7l-33.5-33.5L1081.7,906.3 M1081.8,888.1l-42.1,100.4l41.8,41.8l42-42L1081.8,888.1
		L1081.8,888.1z"/>
</g>
<g>
	<path d="M1081.7,881.3l40.8,98l-41.1,41.1l-40.9-40.9L1081.7,881.3 M1081.8,863.1l-49.5,118l49.1,49.1l49.3-49.3L1081.8,863.1
		L1081.8,863.1z"/>
</g>
<g>
	<path d="M1194.8,855.6l48.5,116.2l-48.5,48.5l-48.5-48.5L1194.8,855.6 M1194.8,837.5l-56.8,136l56.8,56.8l56.8-56.8L1194.8,837.5
		L1194.8,837.5z"/>
</g>
<g>
	<path d="M1195.2,906.3l33.4,80.4l-33.7,33.7l-33.5-33.5L1195.2,906.3 M1195.2,888.1l-42.1,100.4l41.8,41.8l42-42L1195.2,888.1
		L1195.2,888.1z"/>
</g>
<g>
	<path d="M1195.2,881.3l40.8,98l-41.1,41.1l-40.9-40.9L1195.2,881.3 M1195.2,863.1l-49.5,118l49.1,49.1l49.3-49.3L1195.2,863.1
		L1195.2,863.1z"/>
</g>
<g>
	<path d="M1308.3,855.6l48.5,116.2l-48.5,48.5l-48.5-48.5L1308.3,855.6 M1308.3,837.5l-56.8,136l56.8,56.8l56.8-56.8L1308.3,837.5
		L1308.3,837.5z"/>
</g>
<g>
	<path d="M1308.6,906.3l33.4,80.4l-33.7,33.7l-33.5-33.5L1308.6,906.3 M1308.6,888.1l-42.1,100.4l41.8,41.8l42-42L1308.6,888.1
		L1308.6,888.1z"/>
</g>
<g>
	<path d="M1308.6,881.3l40.8,98l-41.1,41.1l-40.9-40.9L1308.6,881.3 M1308.6,863.1l-49.5,118l49.1,49.1l49.3-49.3L1308.6,863.1
		L1308.6,863.1z"/>
</g>
<g>
	<path d="M967.4,855.6l48.5,116.2l-48.5,48.5l-48.5-48.5L967.4,855.6 M967.4,837.5l-56.8,136l56.8,56.8l56.8-56.8L967.4,837.5
		L967.4,837.5z"/>
</g>
<g>
	<path d="M967.7,906.3l33.4,80.4l-33.7,33.7l-33.5-33.5L967.7,906.3 M967.7,888.1l-42.1,100.4l41.8,41.8l42-42L967.7,888.1
		L967.7,888.1z"/>
</g>
<g>
	<path d="M967.7,881.3l40.8,98l-41.1,41.1l-40.9-40.9L967.7,881.3 M967.7,863.1l-49.5,118l49.1,49.1l49.3-49.3L967.7,863.1
		L967.7,863.1z"/>
</g>
<g>
	<path d="M853.3,855.6l48.5,116.2l-48.5,48.5l-48.5-48.5L853.3,855.6 M853.3,837.5l-56.8,136l56.8,56.8l56.8-56.8L853.3,837.5
		L853.3,837.5z"/>
</g>
<g>
	<path d="M853.6,906.3l33.4,80.4l-33.7,33.7l-33.5-33.5L853.6,906.3 M853.6,888.1l-42.1,100.4l41.8,41.8l42-42L853.6,888.1
		L853.6,888.1z"/>
</g>
<g>
	<path d="M853.6,881.3l40.8,98l-41.1,41.1l-40.9-40.9L853.6,881.3 M853.6,863.1l-49.5,118l49.1,49.1l49.3-49.3L853.6,863.1
		L853.6,863.1z"/>
</g>
<g>
	<path d="M739.2,855.6l48.5,116.2l-48.5,48.5l-48.5-48.5L739.2,855.6 M739.2,837.5l-56.8,136l56.8,56.8l56.8-56.8L739.2,837.5
		L739.2,837.5z"/>
</g>
<g>
	<path d="M739.5,906.3l33.4,80.4l-33.7,33.7l-33.5-33.5L739.5,906.3 M739.5,888.1l-42.1,100.4l41.8,41.8l42-42L739.5,888.1
		L739.5,888.1z"/>
</g>
<g>
	<path d="M739.5,881.3l40.8,98l-41.1,41.1l-40.9-40.9L739.5,881.3 M739.5,863.1l-49.5,118l49.1,49.1l49.3-49.3L739.5,863.1
		L739.5,863.1z"/>
</g>
<g>
	<path d="M342.8,707.1l48.5,116.2l-48.5,48.5l-48.5-48.5L342.8,707.1 M342.8,689L286,825l56.8,56.8l56.8-56.8L342.8,689L342.8,689z"
		/>
</g>
<g>
	<path d="M343.1,757.8l33.4,80.4l-33.7,33.7l-33.5-33.5L343.1,757.8 M343.1,739.6L301,840l41.8,41.8l42-42L343.1,739.6L343.1,739.6z
		"/>
</g>
<g>
	<path d="M343.1,732.8l40.8,98l-41.1,41.1L301.9,831L343.1,732.8 M343.1,714.6l-49.5,118l49.1,49.1l49.3-49.3L343.1,714.6
		L343.1,714.6z"/>
</g>
<g>
	<path d="M343.1,808.7c17.2,0,33.5,5.9,46.6,16.9l-46.6,46.6l-46.6-46.6C309.6,814.7,325.9,808.7,343.1,808.7 M343.1,801.7
		c-20.4,0-40.9,7.8-56.5,23.4l-0.3,0.3l56.7,56.7l56.7-56.7l-0.3-0.3C384,809.5,363.5,801.7,343.1,801.7L343.1,801.7z"/>
</g>
<g>
	<path d="M343.1,821.5c17.2,0,33.5,5.9,46.6,16.9L343.1,885l-46.6-46.6C309.6,827.5,325.9,821.5,343.1,821.5 M343.1,814.5
		c-20.4,0-40.9,7.8-56.5,23.4l-0.3,0.3l56.7,56.7l56.7-56.7l-0.3-0.3C384,822.3,363.5,814.5,343.1,814.5L343.1,814.5z"/>
</g>
<g>
	<path d="M456.2,707.1l48.5,116.2l-48.5,48.5l-48.5-48.5L456.2,707.1 M456.2,689l-56.8,136l56.8,56.8L513,825L456.2,689L456.2,689z"
		/>
</g>
<g>
	<path d="M456.5,757.8l33.4,80.4l-33.7,33.7l-33.5-33.5L456.5,757.8 M456.5,739.6L414.4,840l41.8,41.8l42-42L456.5,739.6
		L456.5,739.6z"/>
</g>
<g>
	<path d="M456.5,732.8l40.8,98l-41.1,41.1L415.3,831L456.5,732.8 M456.5,714.6l-49.5,118l49.1,49.1l49.3-49.3L456.5,714.6
		L456.5,714.6z"/>
</g>
<g>
	<path d="M456.5,808.7c17.2,0,33.5,5.9,46.6,16.9l-46.6,46.6l-46.6-46.6C423,814.7,439.3,808.7,456.5,808.7 M456.5,801.7
		c-20.4,0-40.9,7.8-56.5,23.4l-0.3,0.3l56.7,56.7l56.7-56.7l-0.3-0.3C497.4,809.5,476.9,801.7,456.5,801.7L456.5,801.7z"/>
</g>
<g>
	<path d="M456.5,821.5c17.2,0,33.5,5.9,46.6,16.9L456.5,885l-46.6-46.6C423,827.5,439.3,821.5,456.5,821.5 M456.5,814.5
		c-20.4,0-40.9,7.8-56.5,23.4l-0.3,0.3l56.7,56.7l56.7-56.7l-0.3-0.3C497.4,822.3,476.9,814.5,456.5,814.5L456.5,814.5z"/>
</g>
<g>
	<path d="M569.6,707.1l48.5,116.2l-48.5,48.5L521,823.4L569.6,707.1 M569.6,689l-56.8,136l56.8,56.8l56.8-56.8L569.6,689L569.6,689z
		"/>
</g>
<g>
	<path d="M569.9,757.8l33.4,80.4l-33.7,33.7l-33.5-33.5L569.9,757.8 M569.9,739.6L527.8,840l41.8,41.8l42-42L569.9,739.6
		L569.9,739.6z"/>
</g>
<g>
	<path d="M569.9,732.8l40.8,98l-41.1,41.1L528.7,831L569.9,732.8 M569.9,714.6l-49.5,118l49.1,49.1l49.3-49.3L569.9,714.6
		L569.9,714.6z"/>
</g>
<g>
	<path d="M569.9,808.7c17.2,0,33.5,5.9,46.6,16.9l-46.6,46.6l-46.6-46.6C536.4,814.7,552.7,808.7,569.9,808.7 M569.9,801.7
		c-20.4,0-40.9,7.8-56.5,23.4l-0.3,0.3l56.7,56.7l56.7-56.7l-0.3-0.3C610.8,809.5,590.4,801.7,569.9,801.7L569.9,801.7z"/>
</g>
<g>
	<path d="M569.9,821.5c17.2,0,33.5,5.9,46.6,16.9L569.9,885l-46.6-46.6C536.4,827.5,552.7,821.5,569.9,821.5 M569.9,814.5
		c-20.4,0-40.9,7.8-56.5,23.4l-0.3,0.3l56.7,56.7l56.7-56.7l-0.3-0.3C610.8,822.3,590.4,814.5,569.9,814.5L569.9,814.5z"/>
</g>
<g>
	<path d="M228.7,707.1l48.5,116.2l-48.5,48.5l-48.5-48.5L228.7,707.1 M228.7,689l-56.8,136l56.8,56.8l56.8-56.8L228.7,689L228.7,689
		z"/>
</g>
<g>
	<path d="M229,757.8l33.4,80.4l-33.7,33.7l-33.5-33.5L229,757.8 M229,739.6L186.9,840l41.8,41.8l42-42L229,739.6L229,739.6z"/>
</g>
<g>
	<path d="M229,732.8l40.8,98l-41.1,41.1L187.8,831L229,732.8 M229,714.6l-49.5,118l49.1,49.1l49.3-49.3L229,714.6L229,714.6z"/>
</g>
<g>
	<path d="M229,808.7c17.2,0,33.5,5.9,46.6,16.9L229,872.2l-46.6-46.6C195.5,814.7,211.8,808.7,229,808.7 M229,801.7
		c-20.4,0-40.9,7.8-56.5,23.4l-0.3,0.3l56.7,56.7l56.7-56.7l-0.3-0.3C269.9,809.5,249.5,801.7,229,801.7L229,801.7z"/>
</g>
<g>
	<path d="M229,821.5c17.2,0,33.5,5.9,46.6,16.9L229,885l-46.6-46.6C195.5,827.5,211.8,821.5,229,821.5 M229,814.5
		c-20.4,0-40.9,7.8-56.5,23.4l-0.3,0.3l56.7,56.7l56.7-56.7l-0.3-0.3C269.9,822.3,249.5,814.5,229,814.5L229,814.5z"/>
</g>
<g>
	<path d="M114.6,707.1l48.5,116.2l-48.5,48.5l-48.5-48.5L114.6,707.1 M114.6,689L57.8,825l56.8,56.8l56.8-56.8L114.6,689L114.6,689z
		"/>
</g>
<g>
	<path d="M114.9,757.8l33.4,80.4l-33.7,33.7l-33.5-33.5L114.9,757.8 M114.9,739.6L72.8,840l41.8,41.8l42-42L114.9,739.6L114.9,739.6
		z"/>
</g>
<g>
	<path d="M114.9,732.8l40.8,98l-41.1,41.1L73.7,831L114.9,732.8 M114.9,714.6l-49.5,118l49.1,49.1l49.3-49.3L114.9,714.6
		L114.9,714.6z"/>
</g>
<g>
	<path d="M114.9,808.7c17.2,0,33.5,5.9,46.6,16.9l-46.6,46.6l-46.6-46.6C81.4,814.7,97.7,808.7,114.9,808.7 M114.9,801.7
		c-20.4,0-40.9,7.8-56.5,23.4l-0.3,0.3l56.7,56.7l56.7-56.7l-0.3-0.3C155.8,809.5,135.4,801.7,114.9,801.7L114.9,801.7z"/>
</g>
<g>
	<path d="M114.9,821.5c17.2,0,33.5,5.9,46.6,16.9L114.9,885l-46.6-46.6C81.4,827.5,97.7,821.5,114.9,821.5 M114.9,814.5
		c-20.4,0-40.9,7.8-56.5,23.4l-0.3,0.3l56.7,56.7l56.7-56.7l-0.3-0.3C155.8,822.3,135.4,814.5,114.9,814.5L114.9,814.5z"/>
</g>
<g>
	<path d="M0.5,707.1l48.5,116.2L0.5,871.9L-48,823.4L0.5,707.1 M0.5,689l-56.8,136l56.8,56.8L57.3,825L0.5,689L0.5,689z"/>
</g>
<g>
	<path d="M0.8,757.8l33.4,80.4L0.5,871.9L-33,838.4L0.8,757.8 M0.9,739.6L-41.3,840l41.8,41.8l42-42L0.9,739.6L0.9,739.6z"/>
</g>
<g>
	<path d="M0.8,732.8l40.8,98L0.5,871.9L-40.4,831L0.8,732.8 M0.9,714.6l-49.5,118l49.1,49.1l49.3-49.3L0.9,714.6L0.9,714.6z"/>
</g>
<g>
	<path d="M0.9,808.7c17.2,0,33.5,5.9,46.6,16.9L0.9,872.2l-46.6-46.6C-32.7,814.7-16.4,808.7,0.9,808.7 M0.9,801.7
		c-20.4,0-40.9,7.8-56.5,23.4l-0.3,0.3l56.7,56.7l56.7-56.7l-0.3-0.3C41.7,809.5,21.3,801.7,0.9,801.7L0.9,801.7z"/>
</g>
<g>
	<path d="M0.9,821.5c17.2,0,33.5,5.9,46.6,16.9L0.9,885l-46.6-46.6C-32.7,827.5-16.4,821.5,0.9,821.5 M0.9,814.5
		c-20.4,0-40.9,7.8-56.5,23.4l-0.3,0.3l56.7,56.7l56.7-56.7l-0.3-0.3C41.7,822.3,21.3,814.5,0.9,814.5L0.9,814.5z"/>
</g>
<g>
	<path d="M1365.5,707.1l48.5,116.2l-48.5,48.5l-48.5-48.5L1365.5,707.1 M1365.5,689l-56.8,136l56.8,56.8l56.8-56.8L1365.5,689
		L1365.5,689z"/>
</g>
<g>
	<path d="M1365.8,757.8l33.4,80.4l-33.7,33.7l-33.5-33.5L1365.8,757.8 M1365.9,739.6L1323.7,840l41.8,41.8l42-42L1365.9,739.6
		L1365.9,739.6z"/>
</g>
<g>
	<path d="M1365.8,732.8l40.8,98l-41.1,41.1l-40.9-40.9L1365.8,732.8 M1365.9,714.6l-49.5,118l49.1,49.1l49.3-49.3L1365.9,714.6
		L1365.9,714.6z"/>
</g>
<g>
	<path d="M1365.9,808.7c17.2,0,33.5,5.9,46.6,16.9l-46.6,46.6l-46.6-46.6C1332.3,814.7,1348.6,808.7,1365.9,808.7 M1365.9,801.7
		c-20.4,0-40.9,7.8-56.5,23.4l-0.3,0.3l56.7,56.7l56.7-56.7l-0.3-0.3C1406.7,809.5,1386.3,801.7,1365.9,801.7L1365.9,801.7z"/>
</g>
<g>
	<path d="M1365.9,821.5c17.2,0,33.5,5.9,46.6,16.9l-46.6,46.6l-46.6-46.6C1332.3,827.5,1348.6,821.5,1365.9,821.5 M1365.9,814.5
		c-20.4,0-40.9,7.8-56.5,23.4l-0.3,0.3l56.7,56.7l56.7-56.7l-0.3-0.3C1406.7,822.3,1386.3,814.5,1365.9,814.5L1365.9,814.5z"/>
</g>
<g>
	<path d="M1024.9,707.1l48.5,116.2l-48.5,48.5l-48.5-48.5L1024.9,707.1 M1024.9,689l-56.8,136l56.8,56.8l56.8-56.8L1024.9,689
		L1024.9,689z"/>
</g>
<g>
	<path d="M1025.2,757.8l33.4,80.4l-33.7,33.7l-33.5-33.5L1025.2,757.8 M1025.3,739.6L983.1,840l41.8,41.8l42-42L1025.3,739.6
		L1025.3,739.6z"/>
</g>
<g>
	<path d="M1025.2,732.8l40.8,98l-41.1,41.1L984.1,831L1025.2,732.8 M1025.3,714.6l-49.5,118l49.1,49.1l49.3-49.3L1025.3,714.6
		L1025.3,714.6z"/>
</g>
<g>
	<path d="M1025.3,808.7c17.2,0,33.5,5.9,46.6,16.9l-46.6,46.6l-46.6-46.6C991.7,814.7,1008,808.7,1025.3,808.7 M1025.3,801.7
		c-20.4,0-40.9,7.8-56.5,23.4l-0.3,0.3l56.7,56.7l56.7-56.7l-0.3-0.3C1066.1,809.5,1045.7,801.7,1025.3,801.7L1025.3,801.7z"/>
</g>
<g>
	<path d="M1025.3,821.5c17.2,0,33.5,5.9,46.6,16.9l-46.6,46.6l-46.6-46.6C991.7,827.5,1008,821.5,1025.3,821.5 M1025.3,814.5
		c-20.4,0-40.9,7.8-56.5,23.4l-0.3,0.3l56.7,56.7l56.7-56.7l-0.3-0.3C1066.1,822.3,1045.7,814.5,1025.3,814.5L1025.3,814.5z"/>
</g>
<g>
	<path d="M1138.3,707.1l48.5,116.2l-48.5,48.5l-48.5-48.5L1138.3,707.1 M1138.3,689l-56.8,136l56.8,56.8l56.8-56.8L1138.3,689
		L1138.3,689z"/>
</g>
<g>
	<path d="M1138.7,757.8l33.4,80.4l-33.7,33.7l-33.5-33.5L1138.7,757.8 M1138.7,739.6L1096.6,840l41.8,41.8l42-42L1138.7,739.6
		L1138.7,739.6z"/>
</g>
<g>
	<path d="M1138.7,732.8l40.8,98l-41.1,41.1l-40.9-40.9L1138.7,732.8 M1138.7,714.6l-49.5,118l49.1,49.1l49.3-49.3L1138.7,714.6
		L1138.7,714.6z"/>
</g>
<g>
	<path d="M1138.7,808.7c17.2,0,33.5,5.9,46.6,16.9l-46.6,46.6l-46.6-46.6C1105.1,814.7,1121.5,808.7,1138.7,808.7 M1138.7,801.7
		c-20.4,0-40.9,7.8-56.5,23.4l-0.3,0.3l56.7,56.7l56.7-56.7l-0.3-0.3C1179.6,809.5,1159.1,801.7,1138.7,801.7L1138.7,801.7z"/>
</g>
<g>
	<path d="M1138.7,821.5c17.2,0,33.5,5.9,46.6,16.9l-46.6,46.6l-46.6-46.6C1105.1,827.5,1121.5,821.5,1138.7,821.5 M1138.7,814.5
		c-20.4,0-40.9,7.8-56.5,23.4l-0.3,0.3l56.7,56.7l56.7-56.7l-0.3-0.3C1179.6,822.3,1159.1,814.5,1138.7,814.5L1138.7,814.5z"/>
</g>
<g>
	<path d="M1251.8,707.1l48.5,116.2l-48.5,48.5l-48.5-48.5L1251.8,707.1 M1251.8,689L1195,825l56.8,56.8l56.8-56.8L1251.8,689
		L1251.8,689z"/>
</g>
<g>
	<path d="M1252.1,757.8l33.4,80.4l-33.7,33.7l-33.5-33.5L1252.1,757.8 M1252.1,739.6L1210,840l41.8,41.8l42-42L1252.1,739.6
		L1252.1,739.6z"/>
</g>
<g>
	<path d="M1252.1,732.8l40.8,98l-41.1,41.1l-40.9-40.9L1252.1,732.8 M1252.1,714.6l-49.5,118l49.1,49.1l49.3-49.3L1252.1,714.6
		L1252.1,714.6z"/>
</g>
<g>
	<path d="M1252.1,808.7c17.2,0,33.5,5.9,46.6,16.9l-46.6,46.6l-46.6-46.6C1218.5,814.7,1234.9,808.7,1252.1,808.7 M1252.1,801.7
		c-20.4,0-40.9,7.8-56.5,23.4l-0.3,0.3l56.7,56.7l56.7-56.7l-0.3-0.3C1293,809.5,1272.5,801.7,1252.1,801.7L1252.1,801.7z"/>
</g>
<g>
	<path d="M1252.1,821.5c17.2,0,33.5,5.9,46.6,16.9l-46.6,46.6l-46.6-46.6C1218.5,827.5,1234.9,821.5,1252.1,821.5 M1252.1,814.5
		c-20.4,0-40.9,7.8-56.5,23.4l-0.3,0.3l56.7,56.7l56.7-56.7l-0.3-0.3C1293,822.3,1272.5,814.5,1252.1,814.5L1252.1,814.5z"/>
</g>
<g>
	<path d="M910.9,707.1l48.5,116.2l-48.5,48.5l-48.5-48.5L910.9,707.1 M910.9,689l-56.8,136l56.8,56.8l56.8-56.8L910.9,689L910.9,689
		z"/>
</g>
<g>
	<path d="M911.2,757.8l33.4,80.4l-33.7,33.7l-33.5-33.5L911.2,757.8 M911.2,739.6L869.1,840l41.8,41.8l42-42L911.2,739.6
		L911.2,739.6z"/>
</g>
<g>
	<path d="M911.2,732.8l40.8,98l-41.1,41.1L870,831L911.2,732.8 M911.2,714.6l-49.5,118l49.1,49.1l49.3-49.3L911.2,714.6L911.2,714.6
		z"/>
</g>
<g>
	<path d="M911.2,808.7c17.2,0,33.5,5.9,46.6,16.9l-46.6,46.6l-46.6-46.6C877.6,814.7,894,808.7,911.2,808.7 M911.2,801.7
		c-20.4,0-40.9,7.8-56.5,23.4l-0.3,0.3l56.7,56.7l56.7-56.7l-0.3-0.3C952.1,809.5,931.6,801.7,911.2,801.7L911.2,801.7z"/>
</g>
<g>
	<path d="M911.2,821.5c17.2,0,33.5,5.9,46.6,16.9L911.2,885l-46.6-46.6C877.6,827.5,894,821.5,911.2,821.5 M911.2,814.5
		c-20.4,0-40.9,7.8-56.5,23.4l-0.3,0.3l56.7,56.7l56.7-56.7l-0.3-0.3C952.1,822.3,931.6,814.5,911.2,814.5L911.2,814.5z"/>
</g>
<g>
	<path d="M796.8,707.1l48.5,116.2l-48.5,48.5l-48.5-48.5L796.8,707.1 M796.8,689L740,825l56.8,56.8l56.8-56.8L796.8,689L796.8,689z"
		/>
</g>
<g>
	<path d="M797.1,757.8l33.4,80.4l-33.7,33.7l-33.5-33.5L797.1,757.8 M797.1,739.6L755,840l41.8,41.8l42-42L797.1,739.6L797.1,739.6z
		"/>
</g>
<g>
	<path d="M797.1,732.8l40.8,98l-41.1,41.1L755.9,831L797.1,732.8 M797.1,714.6l-49.5,118l49.1,49.1l49.3-49.3L797.1,714.6
		L797.1,714.6z"/>
</g>
<g>
	<path d="M797.1,808.7c17.2,0,33.5,5.9,46.6,16.9l-46.6,46.6l-46.6-46.6C763.6,814.7,779.9,808.7,797.1,808.7 M797.1,801.7
		c-20.4,0-40.9,7.8-56.5,23.4l-0.3,0.3l56.7,56.7l56.7-56.7l-0.3-0.3C838,809.5,817.5,801.7,797.1,801.7L797.1,801.7z"/>
</g>
<g>
	<path d="M797.1,821.5c17.2,0,33.5,5.9,46.6,16.9L797.1,885l-46.6-46.6C763.6,827.5,779.9,821.5,797.1,821.5 M797.1,814.5
		c-20.4,0-40.9,7.8-56.5,23.4l-0.3,0.3l56.7,56.7l56.7-56.7l-0.3-0.3C838,822.3,817.5,814.5,797.1,814.5L797.1,814.5z"/>
</g>
<g>
	<path d="M682.7,707.1l48.5,116.2l-48.5,48.5l-48.5-48.5L682.7,707.1 M682.7,689l-56.8,136l56.8,56.8l56.8-56.8L682.7,689L682.7,689
		z"/>
</g>
<g>
	<path d="M683,757.8l33.4,80.4l-33.7,33.7l-33.5-33.5L683,757.8 M683,739.6L640.9,840l41.8,41.8l42-42L683,739.6L683,739.6z"/>
</g>
<g>
	<path d="M683,732.8l40.8,98l-41.1,41.1L641.8,831L683,732.8 M683,714.6l-49.5,118l49.1,49.1l49.3-49.3L683,714.6L683,714.6z"/>
</g>
<g>
	<path d="M683,808.7c17.2,0,33.5,5.9,46.6,16.9L683,872.2l-46.6-46.6C649.5,814.7,665.8,808.7,683,808.7 M683,801.7
		c-20.4,0-40.9,7.8-56.5,23.4l-0.3,0.3l56.7,56.7l56.7-56.7l-0.3-0.3C723.9,809.5,703.5,801.7,683,801.7L683,801.7z"/>
</g>
<g>
	<path d="M683,821.5c17.2,0,33.5,5.9,46.6,16.9L683,885l-46.6-46.6C649.5,827.5,665.8,821.5,683,821.5 M683,814.5
		c-20.4,0-40.9,7.8-56.5,23.4l-0.3,0.3l56.7,56.7l56.7-56.7l-0.3-0.3C723.9,822.3,703.5,814.5,683,814.5L683,814.5z"/>
</g>
<g>
	<path d="M399.3,259.6l48.5,116.2l-48.5,48.5l-48.5-48.5L399.3,259.6 M399.3,241.5l-56.8,136l56.8,56.8l56.8-56.8L399.3,241.5
		L399.3,241.5z"/>
</g>
<g>
	<path d="M399.6,310.3l33.4,80.4l-33.7,33.7l-33.5-33.5L399.6,310.3 M399.6,292.1l-42.1,100.4l41.8,41.8l42-42L399.6,292.1
		L399.6,292.1z"/>
</g>
<g>
	<path d="M399.6,285.3l40.8,98l-41.1,41.1l-40.9-40.9L399.6,285.3 M399.6,267.1l-49.5,118l49.1,49.1l49.3-49.3L399.6,267.1
		L399.6,267.1z"/>
</g>
<g>
	<path d="M399.6,361.2c17.2,0,33.5,5.9,46.6,16.9l-46.6,46.6L353,378.1C366.1,367.2,382.4,361.2,399.6,361.2 M399.6,354.2
		c-20.4,0-40.9,7.8-56.5,23.4l-0.3,0.3l56.7,56.7l56.7-56.7l-0.3-0.3C440.5,362,420,354.2,399.6,354.2L399.6,354.2z"/>
</g>
<g>
	<path d="M399.6,374c17.2,0,33.5,5.9,46.6,16.9l-46.6,46.6L353,390.9C366.1,380,382.4,374,399.6,374 M399.6,367
		c-20.4,0-40.9,7.8-56.5,23.4l-0.3,0.3l56.7,56.7l56.7-56.7l-0.3-0.3C440.5,374.8,420,367,399.6,367L399.6,367z"/>
</g>
<g>
	<path d="M512.7,259.6l48.5,116.2l-48.5,48.5l-48.5-48.5L512.7,259.6 M512.7,241.5l-56.8,136l56.8,56.8l56.8-56.8L512.7,241.5
		L512.7,241.5z"/>
</g>
<g>
	<path d="M513,310.3l33.4,80.4l-33.7,33.7l-33.5-33.5L513,310.3 M513,292.1l-42.1,100.4l41.8,41.8l42-42L513,292.1L513,292.1z"/>
</g>
<g>
	<path d="M513,285.3l40.8,98l-41.1,41.1l-40.9-40.9L513,285.3 M513,267.1l-49.5,118l49.1,49.1L562,385L513,267.1L513,267.1z"/>
</g>
<g>
	<path d="M513,361.2c17.2,0,33.5,5.9,46.6,16.9L513,424.7l-46.6-46.6C479.5,367.2,495.8,361.2,513,361.2 M513,354.2
		c-20.4,0-40.9,7.8-56.5,23.4l-0.3,0.3l56.7,56.7l56.7-56.7l-0.3-0.3C553.9,362,533.4,354.2,513,354.2L513,354.2z"/>
</g>
<g>
	<path d="M513,374c17.2,0,33.5,5.9,46.6,16.9L513,437.5l-46.6-46.6C479.5,380,495.8,374,513,374 M513,367
		c-20.4,0-40.9,7.8-56.5,23.4l-0.3,0.3l56.7,56.7l56.7-56.7l-0.3-0.3C553.9,374.8,533.4,367,513,367L513,367z"/>
</g>
<g>
	<path d="M626.1,259.6l48.5,116.2l-48.5,48.5l-48.5-48.5L626.1,259.6 M626.1,241.5l-56.8,136l56.8,56.8l56.8-56.8L626.1,241.5
		L626.1,241.5z"/>
</g>
<g>
	<path d="M626.4,310.3l33.4,80.4l-33.7,33.7l-33.5-33.5L626.4,310.3 M626.4,292.1l-42.1,100.4l41.8,41.8l42-42L626.4,292.1
		L626.4,292.1z"/>
</g>
<g>
	<path d="M626.4,285.3l40.8,98l-41.1,41.1l-40.9-40.9L626.4,285.3 M626.4,267.1l-49.5,118l49.1,49.1l49.3-49.3L626.4,267.1
		L626.4,267.1z"/>
</g>
<g>
	<path d="M626.4,361.2c17.2,0,33.5,5.9,46.6,16.9l-46.6,46.6l-46.6-46.6C592.9,367.2,609.2,361.2,626.4,361.2 M626.4,354.2
		c-20.4,0-40.9,7.8-56.5,23.4l-0.3,0.3l56.7,56.7l56.7-56.7l-0.3-0.3C667.3,362,646.9,354.2,626.4,354.2L626.4,354.2z"/>
</g>
<g>
	<path d="M626.4,374c17.2,0,33.5,5.9,46.6,16.9l-46.6,46.6l-46.6-46.6C592.9,380,609.2,374,626.4,374 M626.4,367
		c-20.4,0-40.9,7.8-56.5,23.4l-0.3,0.3l56.7,56.7l56.7-56.7l-0.3-0.3C667.3,374.8,646.9,367,626.4,367L626.4,367z"/>
</g>
<g>
	<path d="M285.2,259.6l48.5,116.2l-48.5,48.5l-48.5-48.5L285.2,259.6 M285.2,241.5l-56.8,136l56.8,56.8l56.8-56.8L285.2,241.5
		L285.2,241.5z"/>
</g>
<g>
	<path d="M285.5,310.3l33.4,80.4l-33.7,33.7l-33.5-33.5L285.5,310.3 M285.5,292.1l-42.1,100.4l41.8,41.8l42-42L285.5,292.1
		L285.5,292.1z"/>
</g>
<g>
	<path d="M285.5,285.3l40.8,98l-41.1,41.1l-40.9-40.9L285.5,285.3 M285.5,267.1l-49.5,118l49.1,49.1l49.3-49.3L285.5,267.1
		L285.5,267.1z"/>
</g>
<g>
	<path d="M285.5,361.2c17.2,0,33.5,5.9,46.6,16.9l-46.6,46.6l-46.6-46.6C252,367.2,268.3,361.2,285.5,361.2 M285.5,354.2
		c-20.4,0-40.9,7.8-56.5,23.4l-0.3,0.3l56.7,56.7l56.7-56.7l-0.3-0.3C326.4,362,306,354.2,285.5,354.2L285.5,354.2z"/>
</g>
<g>
	<path d="M285.5,374c17.2,0,33.5,5.9,46.6,16.9l-46.6,46.6l-46.6-46.6C252,380,268.3,374,285.5,374 M285.5,367
		c-20.4,0-40.9,7.8-56.5,23.4l-0.3,0.3l56.7,56.7l56.7-56.7l-0.3-0.3C326.4,374.8,306,367,285.5,367L285.5,367z"/>
</g>
<g>
	<path d="M171.1,259.6l48.5,116.2l-48.5,48.5l-48.5-48.5L171.1,259.6 M171.1,241.5l-56.8,136l56.8,56.8l56.8-56.8L171.1,241.5
		L171.1,241.5z"/>
</g>
<g>
	<path d="M171.4,310.3l33.4,80.4l-33.7,33.7l-33.5-33.5L171.4,310.3 M171.4,292.1l-42.1,100.4l41.8,41.8l42-42L171.4,292.1
		L171.4,292.1z"/>
</g>
<g>
	<path d="M171.4,285.3l40.8,98l-41.1,41.1l-40.9-40.9L171.4,285.3 M171.4,267.1l-49.5,118l49.1,49.1l49.3-49.3L171.4,267.1
		L171.4,267.1z"/>
</g>
<g>
	<path d="M171.4,361.2c17.2,0,33.5,5.9,46.6,16.9l-46.6,46.6l-46.6-46.6C137.9,367.2,154.2,361.2,171.4,361.2 M171.4,354.2
		c-20.4,0-40.9,7.8-56.5,23.4l-0.3,0.3l56.7,56.7l56.7-56.7l-0.3-0.3C212.3,362,191.9,354.2,171.4,354.2L171.4,354.2z"/>
</g>
<g>
	<path d="M171.4,374c17.2,0,33.5,5.9,46.6,16.9l-46.6,46.6l-46.6-46.6C137.9,380,154.2,374,171.4,374 M171.4,367
		c-20.4,0-40.9,7.8-56.5,23.4l-0.3,0.3l56.7,56.7l56.7-56.7l-0.3-0.3C212.3,374.8,191.9,367,171.4,367L171.4,367z"/>
</g>
<g>
	<path d="M57,259.6l48.5,116.2L57,424.4L8.5,375.9L57,259.6 M57,241.5l-56.8,136L57,434.3l56.8-56.8L57,241.5L57,241.5z"/>
</g>
<g>
	<path d="M57.3,310.3l33.4,80.4L57,424.4l-33.5-33.5L57.3,310.3 M57.4,292.1L15.2,392.5L57,434.3l42-42L57.4,292.1L57.4,292.1z"/>
</g>
<g>
	<path d="M57.3,285.3l40.8,98L57,424.4l-40.9-40.9L57.3,285.3 M57.4,267.1l-49.5,118L57,434.3l49.3-49.3L57.4,267.1L57.4,267.1z"/>
</g>
<g>
	<path d="M57.4,361.2c17.2,0,33.5,5.9,46.6,16.9l-46.6,46.6l-46.6-46.6C23.8,367.2,40.1,361.2,57.4,361.2 M57.4,354.2
		c-20.4,0-40.9,7.8-56.5,23.4l-0.3,0.3l56.7,56.7l56.7-56.7l-0.3-0.3C98.2,362,77.8,354.2,57.4,354.2L57.4,354.2z"/>
</g>
<g>
	<path d="M57.4,374c17.2,0,33.5,5.9,46.6,16.9l-46.6,46.6l-46.6-46.6C23.8,380,40.1,374,57.4,374 M57.4,367
		c-20.4,0-40.9,7.8-56.5,23.4l-0.3,0.3l56.7,56.7l56.7-56.7l-0.3-0.3C98.2,374.8,77.8,367,57.4,367L57.4,367z"/>
</g>
<g>
	<path d="M1081.4,259.6l48.5,116.2l-48.5,48.5l-48.5-48.5L1081.4,259.6 M1081.4,241.5l-56.8,136l56.8,56.8l56.8-56.8L1081.4,241.5
		L1081.4,241.5z"/>
</g>
<g>
	<path d="M1081.7,310.3l33.4,80.4l-33.7,33.7l-33.5-33.5L1081.7,310.3 M1081.8,292.1l-42.1,100.4l41.8,41.8l42-42L1081.8,292.1
		L1081.8,292.1z"/>
</g>
<g>
	<path d="M1081.7,285.3l40.8,98l-41.1,41.1l-40.9-40.9L1081.7,285.3 M1081.8,267.1l-49.5,118l49.1,49.1l49.3-49.3L1081.8,267.1
		L1081.8,267.1z"/>
</g>
<g>
	<path d="M1081.8,361.2c17.2,0,33.5,5.9,46.6,16.9l-46.6,46.6l-46.6-46.6C1048.2,367.2,1064.5,361.2,1081.8,361.2 M1081.8,354.2
		c-20.4,0-40.9,7.8-56.5,23.4l-0.3,0.3l56.7,56.7l56.7-56.7l-0.3-0.3C1122.6,362,1102.2,354.2,1081.8,354.2L1081.8,354.2z"/>
</g>
<g>
	<path d="M1081.8,374c17.2,0,33.5,5.9,46.6,16.9l-46.6,46.6l-46.6-46.6C1048.2,380,1064.5,374,1081.8,374 M1081.8,367
		c-20.4,0-40.9,7.8-56.5,23.4l-0.3,0.3l56.7,56.7l56.7-56.7l-0.3-0.3C1122.6,374.8,1102.2,367,1081.8,367L1081.8,367z"/>
</g>
<g>
	<path d="M1194.8,259.6l48.5,116.2l-48.5,48.5l-48.5-48.5L1194.8,259.6 M1194.8,241.5l-56.8,136l56.8,56.8l56.8-56.8L1194.8,241.5
		L1194.8,241.5z"/>
</g>
<g>
	<path d="M1195.2,310.3l33.4,80.4l-33.7,33.7l-33.5-33.5L1195.2,310.3 M1195.2,292.1l-42.1,100.4l41.8,41.8l42-42L1195.2,292.1
		L1195.2,292.1z"/>
</g>
<g>
	<path d="M1195.2,285.3l40.8,98l-41.1,41.1l-40.9-40.9L1195.2,285.3 M1195.2,267.1l-49.5,118l49.1,49.1l49.3-49.3L1195.2,267.1
		L1195.2,267.1z"/>
</g>
<g>
	<path d="M1195.2,361.2c17.2,0,33.5,5.9,46.6,16.9l-46.6,46.6l-46.6-46.6C1161.6,367.2,1178,361.2,1195.2,361.2 M1195.2,354.2
		c-20.4,0-40.9,7.8-56.5,23.4l-0.3,0.3l56.7,56.7l56.7-56.7l-0.3-0.3C1236.1,362,1215.6,354.2,1195.2,354.2L1195.2,354.2z"/>
</g>
<g>
	<path d="M1195.2,374c17.2,0,33.5,5.9,46.6,16.9l-46.6,46.6l-46.6-46.6C1161.6,380,1178,374,1195.2,374 M1195.2,367
		c-20.4,0-40.9,7.8-56.5,23.4l-0.3,0.3l56.7,56.7l56.7-56.7l-0.3-0.3C1236.1,374.8,1215.6,367,1195.2,367L1195.2,367z"/>
</g>
<g>
	<path d="M1308.3,259.6l48.5,116.2l-48.5,48.5l-48.5-48.5L1308.3,259.6 M1308.3,241.5l-56.8,136l56.8,56.8l56.8-56.8L1308.3,241.5
		L1308.3,241.5z"/>
</g>
<g>
	<path d="M1308.6,310.3l33.4,80.4l-33.7,33.7l-33.5-33.5L1308.6,310.3 M1308.6,292.1l-42.1,100.4l41.8,41.8l42-42L1308.6,292.1
		L1308.6,292.1z"/>
</g>
<g>
	<path d="M1308.6,285.3l40.8,98l-41.1,41.1l-40.9-40.9L1308.6,285.3 M1308.6,267.1l-49.5,118l49.1,49.1l49.3-49.3L1308.6,267.1
		L1308.6,267.1z"/>
</g>
<g>
	<path d="M1308.6,361.2c17.2,0,33.5,5.9,46.6,16.9l-46.6,46.6l-46.6-46.6C1275,367.2,1291.4,361.2,1308.6,361.2 M1308.6,354.2
		c-20.4,0-40.9,7.8-56.5,23.4l-0.3,0.3l56.7,56.7l56.7-56.7l-0.3-0.3C1349.5,362,1329,354.2,1308.6,354.2L1308.6,354.2z"/>
</g>
<g>
	<path d="M1308.6,374c17.2,0,33.5,5.9,46.6,16.9l-46.6,46.6l-46.6-46.6C1275,380,1291.4,374,1308.6,374 M1308.6,367
		c-20.4,0-40.9,7.8-56.5,23.4l-0.3,0.3l56.7,56.7l56.7-56.7l-0.3-0.3C1349.5,374.8,1329,367,1308.6,367L1308.6,367z"/>
</g>
<g>
	<path d="M967.4,259.6l48.5,116.2l-48.5,48.5l-48.5-48.5L967.4,259.6 M967.4,241.5l-56.8,136l56.8,56.8l56.8-56.8L967.4,241.5
		L967.4,241.5z"/>
</g>
<g>
	<path d="M967.7,310.3l33.4,80.4l-33.7,33.7l-33.5-33.5L967.7,310.3 M967.7,292.1l-42.1,100.4l41.8,41.8l42-42L967.7,292.1
		L967.7,292.1z"/>
</g>
<g>
	<path d="M967.7,285.3l40.8,98l-41.1,41.1l-40.9-40.9L967.7,285.3 M967.7,267.1l-49.5,118l49.1,49.1l49.3-49.3L967.7,267.1
		L967.7,267.1z"/>
</g>
<g>
	<path d="M967.7,361.2c17.2,0,33.5,5.9,46.6,16.9l-46.6,46.6l-46.6-46.6C934.1,367.2,950.5,361.2,967.7,361.2 M967.7,354.2
		c-20.4,0-40.9,7.8-56.5,23.4l-0.3,0.3l56.7,56.7l56.7-56.7l-0.3-0.3C1008.6,362,988.1,354.2,967.7,354.2L967.7,354.2z"/>
</g>
<g>
	<path d="M967.7,374c17.2,0,33.5,5.9,46.6,16.9l-46.6,46.6l-46.6-46.6C934.1,380,950.5,374,967.7,374 M967.7,367
		c-20.4,0-40.9,7.8-56.5,23.4l-0.3,0.3l56.7,56.7l56.7-56.7l-0.3-0.3C1008.6,374.8,988.1,367,967.7,367L967.7,367z"/>
</g>
<g>
	<path d="M853.3,259.6l48.5,116.2l-48.5,48.5l-48.5-48.5L853.3,259.6 M853.3,241.5l-56.8,136l56.8,56.8l56.8-56.8L853.3,241.5
		L853.3,241.5z"/>
</g>
<g>
	<path d="M853.6,310.3l33.4,80.4l-33.7,33.7l-33.5-33.5L853.6,310.3 M853.6,292.1l-42.1,100.4l41.8,41.8l42-42L853.6,292.1
		L853.6,292.1z"/>
</g>
<g>
	<path d="M853.6,285.3l40.8,98l-41.1,41.1l-40.9-40.9L853.6,285.3 M853.6,267.1l-49.5,118l49.1,49.1l49.3-49.3L853.6,267.1
		L853.6,267.1z"/>
</g>
<g>
	<path d="M853.6,361.2c17.2,0,33.5,5.9,46.6,16.9l-46.6,46.6L807,378.1C820.1,367.2,836.4,361.2,853.6,361.2 M853.6,354.2
		c-20.4,0-40.9,7.8-56.5,23.4l-0.3,0.3l56.7,56.7l56.7-56.7l-0.3-0.3C894.5,362,874,354.2,853.6,354.2L853.6,354.2z"/>
</g>
<g>
	<path d="M853.6,374c17.2,0,33.5,5.9,46.6,16.9l-46.6,46.6L807,390.9C820.1,380,836.4,374,853.6,374 M853.6,367
		c-20.4,0-40.9,7.8-56.5,23.4l-0.3,0.3l56.7,56.7l56.7-56.7l-0.3-0.3C894.5,374.8,874,367,853.6,367L853.6,367z"/>
</g>
<g>
	<path d="M739.2,259.6l48.5,116.2l-48.5,48.5l-48.5-48.5L739.2,259.6 M739.2,241.5l-56.8,136l56.8,56.8l56.8-56.8L739.2,241.5
		L739.2,241.5z"/>
</g>
<g>
	<path d="M739.5,310.3l33.4,80.4l-33.7,33.7l-33.5-33.5L739.5,310.3 M739.5,292.1l-42.1,100.4l41.8,41.8l42-42L739.5,292.1
		L739.5,292.1z"/>
</g>
<g>
	<path d="M739.5,285.3l40.8,98l-41.1,41.1l-40.9-40.9L739.5,285.3 M739.5,267.1l-49.5,118l49.1,49.1l49.3-49.3L739.5,267.1
		L739.5,267.1z"/>
</g>
<g>
	<path d="M739.5,361.2c17.2,0,33.5,5.9,46.6,16.9l-46.6,46.6l-46.6-46.6C706,367.2,722.3,361.2,739.5,361.2 M739.5,354.2
		c-20.4,0-40.9,7.8-56.5,23.4l-0.3,0.3l56.7,56.7l56.7-56.7l-0.3-0.3C780.4,362,760,354.2,739.5,354.2L739.5,354.2z"/>
</g>
<g>
	<path d="M739.5,374c17.2,0,33.5,5.9,46.6,16.9l-46.6,46.6l-46.6-46.6C706,380,722.3,374,739.5,374 M739.5,367
		c-20.4,0-40.9,7.8-56.5,23.4l-0.3,0.3l56.7,56.7l56.7-56.7l-0.3-0.3C780.4,374.8,760,367,739.5,367L739.5,367z"/>
</g>
<g>
	<path d="M342.8,111.1l48.5,116.2l-48.5,48.5l-48.5-48.5L342.8,111.1 M342.8,93L286,229l56.8,56.8l56.8-56.8L342.8,93L342.8,93z"/>
</g>
<g>
	<path d="M343.1,161.8l33.4,80.4l-33.7,33.7l-33.5-33.5L343.1,161.8 M343.1,143.6L301,244l41.8,41.8l42-42L343.1,143.6L343.1,143.6z
		"/>
</g>
<g>
	<path d="M343.1,136.8l40.8,98l-41.1,41.1L301.9,235L343.1,136.8 M343.1,118.6l-49.5,118l49.1,49.1l49.3-49.3L343.1,118.6
		L343.1,118.6z"/>
</g>
<g>
	<path d="M343.1,212.7c17.2,0,33.5,5.9,46.6,16.9l-46.6,46.6l-46.6-46.6C309.6,218.7,325.9,212.7,343.1,212.7 M343.1,205.7
		c-20.4,0-40.9,7.8-56.5,23.4l-0.3,0.3l56.7,56.7l56.7-56.7l-0.3-0.3C384,213.5,363.5,205.7,343.1,205.7L343.1,205.7z"/>
</g>
<g>
	<path d="M343.1,225.5c17.2,0,33.5,5.9,46.6,16.9L343.1,289l-46.6-46.6C309.6,231.5,325.9,225.5,343.1,225.5 M343.1,218.5
		c-20.4,0-40.9,7.8-56.5,23.4l-0.3,0.3l56.7,56.7l56.7-56.7l-0.3-0.3C384,226.3,363.5,218.5,343.1,218.5L343.1,218.5z"/>
</g>
<g>
	<path d="M456.2,111.1l48.5,116.2l-48.5,48.5l-48.5-48.5L456.2,111.1 M456.2,93l-56.8,136l56.8,56.8L513,229L456.2,93L456.2,93z"/>
</g>
<g>
	<path d="M456.5,161.8l33.4,80.4l-33.7,33.7l-33.5-33.5L456.5,161.8 M456.5,143.6L414.4,244l41.8,41.8l42-42L456.5,143.6
		L456.5,143.6z"/>
</g>
<g>
	<path d="M456.5,136.8l40.8,98l-41.1,41.1L415.3,235L456.5,136.8 M456.5,118.6l-49.5,118l49.1,49.1l49.3-49.3L456.5,118.6
		L456.5,118.6z"/>
</g>
<g>
	<path d="M456.5,212.7c17.2,0,33.5,5.9,46.6,16.9l-46.6,46.6l-46.6-46.6C423,218.7,439.3,212.7,456.5,212.7 M456.5,205.7
		c-20.4,0-40.9,7.8-56.5,23.4l-0.3,0.3l56.7,56.7l56.7-56.7l-0.3-0.3C497.4,213.5,476.9,205.7,456.5,205.7L456.5,205.7z"/>
</g>
<g>
	<path d="M456.5,225.5c17.2,0,33.5,5.9,46.6,16.9L456.5,289l-46.6-46.6C423,231.5,439.3,225.5,456.5,225.5 M456.5,218.5
		c-20.4,0-40.9,7.8-56.5,23.4l-0.3,0.3l56.7,56.7l56.7-56.7l-0.3-0.3C497.4,226.3,476.9,218.5,456.5,218.5L456.5,218.5z"/>
</g>
<g>
	<path d="M569.6,111.1l48.5,116.2l-48.5,48.5L521,227.4L569.6,111.1 M569.6,93l-56.8,136l56.8,56.8l56.8-56.8L569.6,93L569.6,93z"/>
</g>
<g>
	<path d="M569.9,161.8l33.4,80.4l-33.7,33.7l-33.5-33.5L569.9,161.8 M569.9,143.6L527.8,244l41.8,41.8l42-42L569.9,143.6
		L569.9,143.6z"/>
</g>
<g>
	<path d="M569.9,136.8l40.8,98l-41.1,41.1L528.7,235L569.9,136.8 M569.9,118.6l-49.5,118l49.1,49.1l49.3-49.3L569.9,118.6
		L569.9,118.6z"/>
</g>
<g>
	<path d="M569.9,212.7c17.2,0,33.5,5.9,46.6,16.9l-46.6,46.6l-46.6-46.6C536.4,218.7,552.7,212.7,569.9,212.7 M569.9,205.7
		c-20.4,0-40.9,7.8-56.5,23.4l-0.3,0.3l56.7,56.7l56.7-56.7l-0.3-0.3C610.8,213.5,590.4,205.7,569.9,205.7L569.9,205.7z"/>
</g>
<g>
	<path d="M569.9,225.5c17.2,0,33.5,5.9,46.6,16.9L569.9,289l-46.6-46.6C536.4,231.5,552.7,225.5,569.9,225.5 M569.9,218.5
		c-20.4,0-40.9,7.8-56.5,23.4l-0.3,0.3l56.7,56.7l56.7-56.7l-0.3-0.3C610.8,226.3,590.4,218.5,569.9,218.5L569.9,218.5z"/>
</g>
<g>
	<path d="M228.7,111.1l48.5,116.2l-48.5,48.5l-48.5-48.5L228.7,111.1 M228.7,93l-56.8,136l56.8,56.8l56.8-56.8L228.7,93L228.7,93z"
		/>
</g>
<g>
	<path d="M229,161.8l33.4,80.4l-33.7,33.7l-33.5-33.5L229,161.8 M229,143.6L186.9,244l41.8,41.8l42-42L229,143.6L229,143.6z"/>
</g>
<g>
	<path d="M229,136.8l40.8,98l-41.1,41.1L187.8,235L229,136.8 M229,118.6l-49.5,118l49.1,49.1l49.3-49.3L229,118.6L229,118.6z"/>
</g>
<g>
	<path d="M229,212.7c17.2,0,33.5,5.9,46.6,16.9L229,276.2l-46.6-46.6C195.5,218.7,211.8,212.7,229,212.7 M229,205.7
		c-20.4,0-40.9,7.8-56.5,23.4l-0.3,0.3l56.7,56.7l56.7-56.7l-0.3-0.3C269.9,213.5,249.5,205.7,229,205.7L229,205.7z"/>
</g>
<g>
	<path d="M229,225.5c17.2,0,33.5,5.9,46.6,16.9L229,289l-46.6-46.6C195.5,231.5,211.8,225.5,229,225.5 M229,218.5
		c-20.4,0-40.9,7.8-56.5,23.4l-0.3,0.3l56.7,56.7l56.7-56.7l-0.3-0.3C269.9,226.3,249.5,218.5,229,218.5L229,218.5z"/>
</g>
<g>
	<path d="M114.6,111.1l48.5,116.2l-48.5,48.5l-48.5-48.5L114.6,111.1 M114.6,93L57.8,229l56.8,56.8l56.8-56.8L114.6,93L114.6,93z"/>
</g>
<g>
	<path d="M114.9,161.8l33.4,80.4l-33.7,33.7l-33.5-33.5L114.9,161.8 M114.9,143.6L72.8,244l41.8,41.8l42-42L114.9,143.6L114.9,143.6
		z"/>
</g>
<g>
	<path d="M114.9,136.8l40.8,98l-41.1,41.1L73.7,235L114.9,136.8 M114.9,118.6l-49.5,118l49.1,49.1l49.3-49.3L114.9,118.6
		L114.9,118.6z"/>
</g>
<g>
	<path d="M114.9,212.7c17.2,0,33.5,5.9,46.6,16.9l-46.6,46.6l-46.6-46.6C81.4,218.7,97.7,212.7,114.9,212.7 M114.9,205.7
		c-20.4,0-40.9,7.8-56.5,23.4l-0.3,0.3l56.7,56.7l56.7-56.7l-0.3-0.3C155.8,213.5,135.4,205.7,114.9,205.7L114.9,205.7z"/>
</g>
<g>
	<path d="M114.9,225.5c17.2,0,33.5,5.9,46.6,16.9L114.9,289l-46.6-46.6C81.4,231.5,97.7,225.5,114.9,225.5 M114.9,218.5
		c-20.4,0-40.9,7.8-56.5,23.4l-0.3,0.3l56.7,56.7l56.7-56.7l-0.3-0.3C155.8,226.3,135.4,218.5,114.9,218.5L114.9,218.5z"/>
</g>
<g>
	<path d="M0.5,111.1l48.5,116.2L0.5,275.9L-48,227.4L0.5,111.1 M0.5,93l-56.8,136l56.8,56.8L57.3,229L0.5,93L0.5,93z"/>
</g>
<g>
	<path d="M0.8,161.8l33.4,80.4L0.5,275.9L-33,242.4L0.8,161.8 M0.9,143.6L-41.3,244l41.8,41.8l42-42L0.9,143.6L0.9,143.6z"/>
</g>
<g>
	<path d="M0.8,136.8l40.8,98L0.5,275.9L-40.4,235L0.8,136.8 M0.9,118.6l-49.5,118l49.1,49.1l49.3-49.3L0.9,118.6L0.9,118.6z"/>
</g>
<g>
	<path d="M0.9,212.7c17.2,0,33.5,5.9,46.6,16.9L0.9,276.2l-46.6-46.6C-32.7,218.7-16.4,212.7,0.9,212.7 M0.9,205.7
		c-20.4,0-40.9,7.8-56.5,23.4l-0.3,0.3l56.7,56.7l56.7-56.7l-0.3-0.3C41.7,213.5,21.3,205.7,0.9,205.7L0.9,205.7z"/>
</g>
<g>
	<path d="M0.9,225.5c17.2,0,33.5,5.9,46.6,16.9L0.9,289l-46.6-46.6C-32.7,231.5-16.4,225.5,0.9,225.5 M0.9,218.5
		c-20.4,0-40.9,7.8-56.5,23.4l-0.3,0.3l56.7,56.7l56.7-56.7l-0.3-0.3C41.7,226.3,21.3,218.5,0.9,218.5L0.9,218.5z"/>
</g>
<g>
	<path d="M1365.5,111.1l48.5,116.2l-48.5,48.5l-48.5-48.5L1365.5,111.1 M1365.5,93l-56.8,136l56.8,56.8l56.8-56.8L1365.5,93
		L1365.5,93z"/>
</g>
<g>
	<path d="M1365.8,161.8l33.4,80.4l-33.7,33.7l-33.5-33.5L1365.8,161.8 M1365.9,143.6L1323.7,244l41.8,41.8l42-42L1365.9,143.6
		L1365.9,143.6z"/>
</g>
<g>
	<path d="M1365.8,136.8l40.8,98l-41.1,41.1l-40.9-40.9L1365.8,136.8 M1365.9,118.6l-49.5,118l49.1,49.1l49.3-49.3L1365.9,118.6
		L1365.9,118.6z"/>
</g>
<g>
	<path d="M1365.9,212.7c17.2,0,33.5,5.9,46.6,16.9l-46.6,46.6l-46.6-46.6C1332.3,218.7,1348.6,212.7,1365.9,212.7 M1365.9,205.7
		c-20.4,0-40.9,7.8-56.5,23.4l-0.3,0.3l56.7,56.7l56.7-56.7l-0.3-0.3C1406.7,213.5,1386.3,205.7,1365.9,205.7L1365.9,205.7z"/>
</g>
<g>
	<path d="M1365.9,225.5c17.2,0,33.5,5.9,46.6,16.9l-46.6,46.6l-46.6-46.6C1332.3,231.5,1348.6,225.5,1365.9,225.5 M1365.9,218.5
		c-20.4,0-40.9,7.8-56.5,23.4l-0.3,0.3l56.7,56.7l56.7-56.7l-0.3-0.3C1406.7,226.3,1386.3,218.5,1365.9,218.5L1365.9,218.5z"/>
</g>
<g>
	<path d="M1024.9,111.1l48.5,116.2l-48.5,48.5l-48.5-48.5L1024.9,111.1 M1024.9,93l-56.8,136l56.8,56.8l56.8-56.8L1024.9,93
		L1024.9,93z"/>
</g>
<g>
	<path d="M1025.2,161.8l33.4,80.4l-33.7,33.7l-33.5-33.5L1025.2,161.8 M1025.3,143.6L983.1,244l41.8,41.8l42-42L1025.3,143.6
		L1025.3,143.6z"/>
</g>
<g>
	<path d="M1025.2,136.8l40.8,98l-41.1,41.1L984.1,235L1025.2,136.8 M1025.3,118.6l-49.5,118l49.1,49.1l49.3-49.3L1025.3,118.6
		L1025.3,118.6z"/>
</g>
<g>
	<path d="M1025.3,212.7c17.2,0,33.5,5.9,46.6,16.9l-46.6,46.6l-46.6-46.6C991.7,218.7,1008,212.7,1025.3,212.7 M1025.3,205.7
		c-20.4,0-40.9,7.8-56.5,23.4l-0.3,0.3l56.7,56.7l56.7-56.7l-0.3-0.3C1066.1,213.5,1045.7,205.7,1025.3,205.7L1025.3,205.7z"/>
</g>
<g>
	<path d="M1025.3,225.5c17.2,0,33.5,5.9,46.6,16.9l-46.6,46.6l-46.6-46.6C991.7,231.5,1008,225.5,1025.3,225.5 M1025.3,218.5
		c-20.4,0-40.9,7.8-56.5,23.4l-0.3,0.3l56.7,56.7l56.7-56.7l-0.3-0.3C1066.1,226.3,1045.7,218.5,1025.3,218.5L1025.3,218.5z"/>
</g>
<g>
	<path d="M1138.3,111.1l48.5,116.2l-48.5,48.5l-48.5-48.5L1138.3,111.1 M1138.3,93l-56.8,136l56.8,56.8l56.8-56.8L1138.3,93
		L1138.3,93z"/>
</g>
<g>
	<path d="M1138.7,161.8l33.4,80.4l-33.7,33.7l-33.5-33.5L1138.7,161.8 M1138.7,143.6L1096.6,244l41.8,41.8l42-42L1138.7,143.6
		L1138.7,143.6z"/>
</g>
<g>
	<path d="M1138.7,136.8l40.8,98l-41.1,41.1l-40.9-40.9L1138.7,136.8 M1138.7,118.6l-49.5,118l49.1,49.1l49.3-49.3L1138.7,118.6
		L1138.7,118.6z"/>
</g>
<g>
	<path d="M1138.7,212.7c17.2,0,33.5,5.9,46.6,16.9l-46.6,46.6l-46.6-46.6C1105.1,218.7,1121.5,212.7,1138.7,212.7 M1138.7,205.7
		c-20.4,0-40.9,7.8-56.5,23.4l-0.3,0.3l56.7,56.7l56.7-56.7l-0.3-0.3C1179.6,213.5,1159.1,205.7,1138.7,205.7L1138.7,205.7z"/>
</g>
<g>
	<path d="M1138.7,225.5c17.2,0,33.5,5.9,46.6,16.9l-46.6,46.6l-46.6-46.6C1105.1,231.5,1121.5,225.5,1138.7,225.5 M1138.7,218.5
		c-20.4,0-40.9,7.8-56.5,23.4l-0.3,0.3l56.7,56.7l56.7-56.7l-0.3-0.3C1179.6,226.3,1159.1,218.5,1138.7,218.5L1138.7,218.5z"/>
</g>
<g>
	<path d="M1251.8,111.1l48.5,116.2l-48.5,48.5l-48.5-48.5L1251.8,111.1 M1251.8,93L1195,229l56.8,56.8l56.8-56.8L1251.8,93
		L1251.8,93z"/>
</g>
<g>
	<path d="M1252.1,161.8l33.4,80.4l-33.7,33.7l-33.5-33.5L1252.1,161.8 M1252.1,143.6L1210,244l41.8,41.8l42-42L1252.1,143.6
		L1252.1,143.6z"/>
</g>
<g>
	<path d="M1252.1,136.8l40.8,98l-41.1,41.1l-40.9-40.9L1252.1,136.8 M1252.1,118.6l-49.5,118l49.1,49.1l49.3-49.3L1252.1,118.6
		L1252.1,118.6z"/>
</g>
<g>
	<path d="M1252.1,212.7c17.2,0,33.5,5.9,46.6,16.9l-46.6,46.6l-46.6-46.6C1218.5,218.7,1234.9,212.7,1252.1,212.7 M1252.1,205.7
		c-20.4,0-40.9,7.8-56.5,23.4l-0.3,0.3l56.7,56.7l56.7-56.7l-0.3-0.3C1293,213.5,1272.5,205.7,1252.1,205.7L1252.1,205.7z"/>
</g>
<g>
	<path d="M1252.1,225.5c17.2,0,33.5,5.9,46.6,16.9l-46.6,46.6l-46.6-46.6C1218.5,231.5,1234.9,225.5,1252.1,225.5 M1252.1,218.5
		c-20.4,0-40.9,7.8-56.5,23.4l-0.3,0.3l56.7,56.7l56.7-56.7l-0.3-0.3C1293,226.3,1272.5,218.5,1252.1,218.5L1252.1,218.5z"/>
</g>
<g>
	<path d="M910.9,111.1l48.5,116.2l-48.5,48.5l-48.5-48.5L910.9,111.1 M910.9,93l-56.8,136l56.8,56.8l56.8-56.8L910.9,93L910.9,93z"
		/>
</g>
<g>
	<path d="M911.2,161.8l33.4,80.4l-33.7,33.7l-33.5-33.5L911.2,161.8 M911.2,143.6L869.1,244l41.8,41.8l42-42L911.2,143.6
		L911.2,143.6z"/>
</g>
<g>
	<path d="M911.2,136.8l40.8,98l-41.1,41.1L870,235L911.2,136.8 M911.2,118.6l-49.5,118l49.1,49.1l49.3-49.3L911.2,118.6L911.2,118.6
		z"/>
</g>
<g>
	<path d="M911.2,212.7c17.2,0,33.5,5.9,46.6,16.9l-46.6,46.6l-46.6-46.6C877.6,218.7,894,212.7,911.2,212.7 M911.2,205.7
		c-20.4,0-40.9,7.8-56.5,23.4l-0.3,0.3l56.7,56.7l56.7-56.7l-0.3-0.3C952.1,213.5,931.6,205.7,911.2,205.7L911.2,205.7z"/>
</g>
<g>
	<path d="M911.2,225.5c17.2,0,33.5,5.9,46.6,16.9L911.2,289l-46.6-46.6C877.6,231.5,894,225.5,911.2,225.5 M911.2,218.5
		c-20.4,0-40.9,7.8-56.5,23.4l-0.3,0.3l56.7,56.7l56.7-56.7l-0.3-0.3C952.1,226.3,931.6,218.5,911.2,218.5L911.2,218.5z"/>
</g>
<g>
	<path d="M796.8,111.1l48.5,116.2l-48.5,48.5l-48.5-48.5L796.8,111.1 M796.8,93L740,229l56.8,56.8l56.8-56.8L796.8,93L796.8,93z"/>
</g>
<g>
	<path d="M797.1,161.8l33.4,80.4l-33.7,33.7l-33.5-33.5L797.1,161.8 M797.1,143.6L755,244l41.8,41.8l42-42L797.1,143.6L797.1,143.6z
		"/>
</g>
<g>
	<path d="M797.1,136.8l40.8,98l-41.1,41.1L755.9,235L797.1,136.8 M797.1,118.6l-49.5,118l49.1,49.1l49.3-49.3L797.1,118.6
		L797.1,118.6z"/>
</g>
<g>
	<path d="M797.1,212.7c17.2,0,33.5,5.9,46.6,16.9l-46.6,46.6l-46.6-46.6C763.6,218.7,779.9,212.7,797.1,212.7 M797.1,205.7
		c-20.4,0-40.9,7.8-56.5,23.4l-0.3,0.3l56.7,56.7l56.7-56.7l-0.3-0.3C838,213.5,817.5,205.7,797.1,205.7L797.1,205.7z"/>
</g>
<g>
	<path d="M797.1,225.5c17.2,0,33.5,5.9,46.6,16.9L797.1,289l-46.6-46.6C763.6,231.5,779.9,225.5,797.1,225.5 M797.1,218.5
		c-20.4,0-40.9,7.8-56.5,23.4l-0.3,0.3l56.7,56.7l56.7-56.7l-0.3-0.3C838,226.3,817.5,218.5,797.1,218.5L797.1,218.5z"/>
</g>
<g>
	<path d="M682.7,111.1l48.5,116.2l-48.5,48.5l-48.5-48.5L682.7,111.1 M682.7,93l-56.8,136l56.8,56.8l56.8-56.8L682.7,93L682.7,93z"
		/>
</g>
<g>
	<path d="M683,161.8l33.4,80.4l-33.7,33.7l-33.5-33.5L683,161.8 M683,143.6L640.9,244l41.8,41.8l42-42L683,143.6L683,143.6z"/>
</g>
<g>
	<path d="M683,136.8l40.8,98l-41.1,41.1L641.8,235L683,136.8 M683,118.6l-49.5,118l49.1,49.1l49.3-49.3L683,118.6L683,118.6z"/>
</g>
<g>
	<path d="M683,212.7c17.2,0,33.5,5.9,46.6,16.9L683,276.2l-46.6-46.6C649.5,218.7,665.8,212.7,683,212.7 M683,205.7
		c-20.4,0-40.9,7.8-56.5,23.4l-0.3,0.3l56.7,56.7l56.7-56.7l-0.3-0.3C723.9,213.5,703.5,205.7,683,205.7L683,205.7z"/>
</g>
<g>
	<path d="M683,225.5c17.2,0,33.5,5.9,46.6,16.9L683,289l-46.6-46.6C649.5,231.5,665.8,225.5,683,225.5 M683,218.5
		c-20.4,0-40.9,7.8-56.5,23.4l-0.3,0.3l56.7,56.7l56.7-56.7l-0.3-0.3C723.9,226.3,703.5,218.5,683,218.5L683,218.5z"/>
</g>
<g>
	<path d="M399.3-39.4l48.5,116.2l-48.5,48.5l-48.5-48.5L399.3-39.4 M399.3-57.5l-56.8,136l56.8,56.8l56.8-56.8L399.3-57.5
		L399.3-57.5z"/>
</g>
<g>
	<path d="M399.6,11.3L433,91.7l-33.7,33.7l-33.5-33.5L399.6,11.3 M399.6-6.9L357.5,93.5l41.8,41.8l42-42L399.6-6.9L399.6-6.9z"/>
</g>
<g>
	<path d="M399.6-13.7l40.8,98l-41.1,41.1l-40.9-40.9L399.6-13.7 M399.6-31.9l-49.5,118l49.1,49.1L448.6,86L399.6-31.9L399.6-31.9z"
		/>
</g>
<g>
	<path d="M399.6,62.2c17.2,0,33.5,5.9,46.6,16.9l-46.6,46.6L353,79.1C366.1,68.2,382.4,62.2,399.6,62.2 M399.6,55.2
		c-20.4,0-40.9,7.8-56.5,23.4l-0.3,0.3l56.7,56.7l56.7-56.7l-0.3-0.3C440.5,63,420,55.2,399.6,55.2L399.6,55.2z"/>
</g>
<g>
	<path d="M399.6,75c17.2,0,33.5,5.9,46.6,16.9l-46.6,46.6L353,91.9C366.1,81,382.4,75,399.6,75 M399.6,68
		c-20.4,0-40.9,7.8-56.5,23.4l-0.3,0.3l56.7,56.7l56.7-56.7l-0.3-0.3C440.5,75.8,420,68,399.6,68L399.6,68z"/>
</g>
<g>
	<path d="M512.7-39.4l48.5,116.2l-48.5,48.5l-48.5-48.5L512.7-39.4 M512.7-57.5l-56.8,136l56.8,56.8l56.8-56.8L512.7-57.5
		L512.7-57.5z"/>
</g>
<g>
	<path d="M513,11.3l33.4,80.4l-33.7,33.7l-33.5-33.5L513,11.3 M513-6.9L470.9,93.5l41.8,41.8l42-42L513-6.9L513-6.9z"/>
</g>
<g>
	<path d="M513-13.7l40.8,98l-41.1,41.1l-40.9-40.9L513-13.7 M513-31.9l-49.5,118l49.1,49.1L562,86L513-31.9L513-31.9z"/>
</g>
<g>
	<path d="M513,62.2c17.2,0,33.5,5.9,46.6,16.9L513,125.7l-46.6-46.6C479.5,68.2,495.8,62.2,513,62.2 M513,55.2
		c-20.4,0-40.9,7.8-56.5,23.4l-0.3,0.3l56.7,56.7l56.7-56.7l-0.3-0.3C553.9,63,533.4,55.2,513,55.2L513,55.2z"/>
</g>
<g>
	<path d="M513,75c17.2,0,33.5,5.9,46.6,16.9L513,138.5l-46.6-46.6C479.5,81,495.8,75,513,75 M513,68c-20.4,0-40.9,7.8-56.5,23.4
		l-0.3,0.3l56.7,56.7l56.7-56.7l-0.3-0.3C553.9,75.8,533.4,68,513,68L513,68z"/>
</g>
<g>
	<path d="M626.1-39.4l48.5,116.2l-48.5,48.5l-48.5-48.5L626.1-39.4 M626.1-57.5l-56.8,136l56.8,56.8l56.8-56.8L626.1-57.5
		L626.1-57.5z"/>
</g>
<g>
	<path d="M626.4,11.3l33.4,80.4l-33.7,33.7l-33.5-33.5L626.4,11.3 M626.4-6.9L584.3,93.5l41.8,41.8l42-42L626.4-6.9L626.4-6.9z"/>
</g>
<g>
	<path d="M626.4-13.7l40.8,98l-41.1,41.1l-40.9-40.9L626.4-13.7 M626.4-31.9l-49.5,118l49.1,49.1L675.4,86L626.4-31.9L626.4-31.9z"
		/>
</g>
<g>
	<path d="M626.4,62.2c17.2,0,33.5,5.9,46.6,16.9l-46.6,46.6l-46.6-46.6C592.9,68.2,609.2,62.2,626.4,62.2 M626.4,55.2
		c-20.4,0-40.9,7.8-56.5,23.4l-0.3,0.3l56.7,56.7l56.7-56.7l-0.3-0.3C667.3,63,646.9,55.2,626.4,55.2L626.4,55.2z"/>
</g>
<g>
	<path d="M626.4,75C643.7,75,660,81,673,91.9l-46.6,46.6l-46.6-46.6C592.9,81,609.2,75,626.4,75 M626.4,68
		c-20.4,0-40.9,7.8-56.5,23.4l-0.3,0.3l56.7,56.7l56.7-56.7l-0.3-0.3C667.3,75.8,646.9,68,626.4,68L626.4,68z"/>
</g>
<g>
	<path d="M285.2-39.4l48.5,116.2l-48.5,48.5l-48.5-48.5L285.2-39.4 M285.2-57.5l-56.8,136l56.8,56.8L342,78.5L285.2-57.5L285.2-57.5
		z"/>
</g>
<g>
	<path d="M285.5,11.3l33.4,80.4l-33.7,33.7l-33.5-33.5L285.5,11.3 M285.5-6.9L243.4,93.5l41.8,41.8l42-42L285.5-6.9L285.5-6.9z"/>
</g>
<g>
	<path d="M285.5-13.7l40.8,98l-41.1,41.1l-40.9-40.9L285.5-13.7 M285.5-31.9L236,86.2l49.1,49.1L334.5,86L285.5-31.9L285.5-31.9z"/>
</g>
<g>
	<path d="M285.5,62.2c17.2,0,33.5,5.9,46.6,16.9l-46.6,46.6l-46.6-46.6C252,68.2,268.3,62.2,285.5,62.2 M285.5,55.2
		c-20.4,0-40.9,7.8-56.5,23.4l-0.3,0.3l56.7,56.7l56.7-56.7l-0.3-0.3C326.4,63,306,55.2,285.5,55.2L285.5,55.2z"/>
</g>
<g>
	<path d="M285.5,75c17.2,0,33.5,5.9,46.6,16.9l-46.6,46.6l-46.6-46.6C252,81,268.3,75,285.5,75 M285.5,68
		c-20.4,0-40.9,7.8-56.5,23.4l-0.3,0.3l56.7,56.7l56.7-56.7l-0.3-0.3C326.4,75.8,306,68,285.5,68L285.5,68z"/>
</g>
<g>
	<path d="M171.1-39.4l48.5,116.2l-48.5,48.5l-48.5-48.5L171.1-39.4 M171.1-57.5l-56.8,136l56.8,56.8l56.8-56.8L171.1-57.5
		L171.1-57.5z"/>
</g>
<g>
	<path d="M171.4,11.3l33.4,80.4l-33.7,33.7l-33.5-33.5L171.4,11.3 M171.4-6.9L129.3,93.5l41.8,41.8l42-42L171.4-6.9L171.4-6.9z"/>
</g>
<g>
	<path d="M171.4-13.7l40.8,98l-41.1,41.1l-40.9-40.9L171.4-13.7 M171.4-31.9L122,86.2l49.1,49.1L220.4,86L171.4-31.9L171.4-31.9z"/>
</g>
<g>
	<path d="M171.4,62.2c17.2,0,33.5,5.9,46.6,16.9l-46.6,46.6l-46.6-46.6C137.9,68.2,154.2,62.2,171.4,62.2 M171.4,55.2
		c-20.4,0-40.9,7.8-56.5,23.4l-0.3,0.3l56.7,56.7l56.7-56.7l-0.3-0.3C212.3,63,191.9,55.2,171.4,55.2L171.4,55.2z"/>
</g>
<g>
	<path d="M171.4,75c17.2,0,33.5,5.9,46.6,16.9l-46.6,46.6l-46.6-46.6C137.9,81,154.2,75,171.4,75 M171.4,68
		c-20.4,0-40.9,7.8-56.5,23.4l-0.3,0.3l56.7,56.7l56.7-56.7l-0.3-0.3C212.3,75.8,191.9,68,171.4,68L171.4,68z"/>
</g>
<g>
	<path d="M57-39.4l48.5,116.2L57,125.4L8.5,76.9L57-39.4 M57-57.5L0.2,78.5L57,135.3l56.8-56.8L57-57.5L57-57.5z"/>
</g>
<g>
	<path d="M57.3,11.3l33.4,80.4L57,125.4L23.5,91.9L57.3,11.3 M57.4-6.9L15.2,93.5L57,135.3l42-42L57.4-6.9L57.4-6.9z"/>
</g>
<g>
	<path d="M57.3-13.7l40.8,98L57,125.4L16.1,84.5L57.3-13.7 M57.4-31.9L7.9,86.2L57,135.3L106.4,86L57.4-31.9L57.4-31.9z"/>
</g>
<g>
	<path d="M57.4,62.2c17.2,0,33.5,5.9,46.6,16.9l-46.6,46.6L10.7,79.1C23.8,68.2,40.1,62.2,57.4,62.2 M57.4,55.2
		c-20.4,0-40.9,7.8-56.5,23.4l-0.3,0.3l56.7,56.7l56.7-56.7l-0.3-0.3C98.2,63,77.8,55.2,57.4,55.2L57.4,55.2z"/>
</g>
<g>
	<path d="M57.4,75C74.6,75,90.9,81,104,91.9l-46.6,46.6L10.7,91.9C23.8,81,40.1,75,57.4,75 M57.4,68c-20.4,0-40.9,7.8-56.5,23.4
		l-0.3,0.3l56.7,56.7l56.7-56.7l-0.3-0.3C98.2,75.8,77.8,68,57.4,68L57.4,68z"/>
</g>
<g>
	<path d="M1081.4-39.4L1130,76.9l-48.5,48.5l-48.5-48.5L1081.4-39.4 M1081.4-57.5l-56.8,136l56.8,56.8l56.8-56.8L1081.4-57.5
		L1081.4-57.5z"/>
</g>
<g>
	<path d="M1081.7,11.3l33.4,80.4l-33.7,33.7l-33.5-33.5L1081.7,11.3 M1081.8-6.9l-42.1,100.4l41.8,41.8l42-42L1081.8-6.9L1081.8-6.9
		z"/>
</g>
<g>
	<path d="M1081.7-13.7l40.8,98l-41.1,41.1l-40.9-40.9L1081.7-13.7 M1081.8-31.9l-49.5,118l49.1,49.1l49.3-49.3L1081.8-31.9
		L1081.8-31.9z"/>
</g>
<g>
	<path d="M1081.8,62.2c17.2,0,33.5,5.9,46.6,16.9l-46.6,46.6l-46.6-46.6C1048.2,68.2,1064.5,62.2,1081.8,62.2 M1081.8,55.2
		c-20.4,0-40.9,7.8-56.5,23.4l-0.3,0.3l56.7,56.7l56.7-56.7l-0.3-0.3C1122.6,63,1102.2,55.2,1081.8,55.2L1081.8,55.2z"/>
</g>
<g>
	<path d="M1081.8,75c17.2,0,33.5,5.9,46.6,16.9l-46.6,46.6l-46.6-46.6C1048.2,81,1064.5,75,1081.8,75 M1081.8,68
		c-20.4,0-40.9,7.8-56.5,23.4l-0.3,0.3l56.7,56.7l56.7-56.7l-0.3-0.3C1122.6,75.8,1102.2,68,1081.8,68L1081.8,68z"/>
</g>
<g>
	<path d="M1194.8-39.4l48.5,116.2l-48.5,48.5l-48.5-48.5L1194.8-39.4 M1194.8-57.5l-56.8,136l56.8,56.8l56.8-56.8L1194.8-57.5
		L1194.8-57.5z"/>
</g>
<g>
	<path d="M1195.2,11.3l33.4,80.4l-33.7,33.7l-33.5-33.5L1195.2,11.3 M1195.2-6.9l-42.1,100.4l41.8,41.8l42-42L1195.2-6.9L1195.2-6.9
		z"/>
</g>
<g>
	<path d="M1195.2-13.7l40.8,98l-41.1,41.1L1154,84.5L1195.2-13.7 M1195.2-31.9l-49.5,118l49.1,49.1l49.3-49.3L1195.2-31.9
		L1195.2-31.9z"/>
</g>
<g>
	<path d="M1195.2,62.2c17.2,0,33.5,5.9,46.6,16.9l-46.6,46.6l-46.6-46.6C1161.6,68.2,1178,62.2,1195.2,62.2 M1195.2,55.2
		c-20.4,0-40.9,7.8-56.5,23.4l-0.3,0.3l56.7,56.7l56.7-56.7l-0.3-0.3C1236.1,63,1215.6,55.2,1195.2,55.2L1195.2,55.2z"/>
</g>
<g>
	<path d="M1195.2,75c17.2,0,33.5,5.9,46.6,16.9l-46.6,46.6l-46.6-46.6C1161.6,81,1178,75,1195.2,75 M1195.2,68
		c-20.4,0-40.9,7.8-56.5,23.4l-0.3,0.3l56.7,56.7l56.7-56.7l-0.3-0.3C1236.1,75.8,1215.6,68,1195.2,68L1195.2,68z"/>
</g>
<g>
	<path d="M1308.3-39.4l48.5,116.2l-48.5,48.5l-48.5-48.5L1308.3-39.4 M1308.3-57.5l-56.8,136l56.8,56.8l56.8-56.8L1308.3-57.5
		L1308.3-57.5z"/>
</g>
<g>
	<path d="M1308.6,11.3l33.4,80.4l-33.7,33.7l-33.5-33.5L1308.6,11.3 M1308.6-6.9l-42.1,100.4l41.8,41.8l42-42L1308.6-6.9L1308.6-6.9
		z"/>
</g>
<g>
	<path d="M1308.6-13.7l40.8,98l-41.1,41.1l-40.9-40.9L1308.6-13.7 M1308.6-31.9l-49.5,118l49.1,49.1l49.3-49.3L1308.6-31.9
		L1308.6-31.9z"/>
</g>
<g>
	<path d="M1308.6,62.2c17.2,0,33.5,5.9,46.6,16.9l-46.6,46.6L1262,79.1C1275,68.2,1291.4,62.2,1308.6,62.2 M1308.6,55.2
		c-20.4,0-40.9,7.8-56.5,23.4l-0.3,0.3l56.7,56.7l56.7-56.7l-0.3-0.3C1349.5,63,1329,55.2,1308.6,55.2L1308.6,55.2z"/>
</g>
<g>
	<path d="M1308.6,75c17.2,0,33.5,5.9,46.6,16.9l-46.6,46.6L1262,91.9C1275,81,1291.4,75,1308.6,75 M1308.6,68
		c-20.4,0-40.9,7.8-56.5,23.4l-0.3,0.3l56.7,56.7l56.7-56.7l-0.3-0.3C1349.5,75.8,1329,68,1308.6,68L1308.6,68z"/>
</g>
<g>
	<path d="M967.4-39.4l48.5,116.2l-48.5,48.5l-48.5-48.5L967.4-39.4 M967.4-57.5l-56.8,136l56.8,56.8l56.8-56.8L967.4-57.5
		L967.4-57.5z"/>
</g>
<g>
	<path d="M967.7,11.3l33.4,80.4l-33.7,33.7l-33.5-33.5L967.7,11.3 M967.7-6.9L925.6,93.5l41.8,41.8l42-42L967.7-6.9L967.7-6.9z"/>
</g>
<g>
	<path d="M967.7-13.7l40.8,98l-41.1,41.1l-40.9-40.9L967.7-13.7 M967.7-31.9l-49.5,118l49.1,49.1l49.3-49.3L967.7-31.9L967.7-31.9z"
		/>
</g>
<g>
	<path d="M967.7,62.2c17.2,0,33.5,5.9,46.6,16.9l-46.6,46.6l-46.6-46.6C934.1,68.2,950.5,62.2,967.7,62.2 M967.7,55.2
		c-20.4,0-40.9,7.8-56.5,23.4l-0.3,0.3l56.7,56.7l56.7-56.7l-0.3-0.3C1008.6,63,988.1,55.2,967.7,55.2L967.7,55.2z"/>
</g>
<g>
	<path d="M967.7,75c17.2,0,33.5,5.9,46.6,16.9l-46.6,46.6l-46.6-46.6C934.1,81,950.5,75,967.7,75 M967.7,68
		c-20.4,0-40.9,7.8-56.5,23.4l-0.3,0.3l56.7,56.7l56.7-56.7l-0.3-0.3C1008.6,75.8,988.1,68,967.7,68L967.7,68z"/>
</g>
<g>
	<path d="M853.3-39.4l48.5,116.2l-48.5,48.5l-48.5-48.5L853.3-39.4 M853.3-57.5l-56.8,136l56.8,56.8l56.8-56.8L853.3-57.5
		L853.3-57.5z"/>
</g>
<g>
	<path d="M853.6,11.3L887,91.7l-33.7,33.7l-33.5-33.5L853.6,11.3 M853.6-6.9L811.5,93.5l41.8,41.8l42-42L853.6-6.9L853.6-6.9z"/>
</g>
<g>
	<path d="M853.6-13.7l40.8,98l-41.1,41.1l-40.9-40.9L853.6-13.7 M853.6-31.9l-49.5,118l49.1,49.1L902.6,86L853.6-31.9L853.6-31.9z"
		/>
</g>
<g>
	<path d="M853.6,62.2c17.2,0,33.5,5.9,46.6,16.9l-46.6,46.6L807,79.1C820.1,68.2,836.4,62.2,853.6,62.2 M853.6,55.2
		c-20.4,0-40.9,7.8-56.5,23.4l-0.3,0.3l56.7,56.7l56.7-56.7l-0.3-0.3C894.5,63,874,55.2,853.6,55.2L853.6,55.2z"/>
</g>
<g>
	<path d="M853.6,75c17.2,0,33.5,5.9,46.6,16.9l-46.6,46.6L807,91.9C820.1,81,836.4,75,853.6,75 M853.6,68
		c-20.4,0-40.9,7.8-56.5,23.4l-0.3,0.3l56.7,56.7l56.7-56.7l-0.3-0.3C894.5,75.8,874,68,853.6,68L853.6,68z"/>
</g>
<g>
	<path d="M739.2-39.4l48.5,116.2l-48.5,48.5l-48.5-48.5L739.2-39.4 M739.2-57.5l-56.8,136l56.8,56.8L796,78.5L739.2-57.5L739.2-57.5
		z"/>
</g>
<g>
	<path d="M739.5,11.3l33.4,80.4l-33.7,33.7l-33.5-33.5L739.5,11.3 M739.5-6.9L697.4,93.5l41.8,41.8l42-42L739.5-6.9L739.5-6.9z"/>
</g>
<g>
	<path d="M739.5-13.7l40.8,98l-41.1,41.1l-40.9-40.9L739.5-13.7 M739.5-31.9L690,86.2l49.1,49.1L788.5,86L739.5-31.9L739.5-31.9z"/>
</g>
<g>
	<path d="M739.5,62.2c17.2,0,33.5,5.9,46.6,16.9l-46.6,46.6l-46.6-46.6C706,68.2,722.3,62.2,739.5,62.2 M739.5,55.2
		c-20.4,0-40.9,7.8-56.5,23.4l-0.3,0.3l56.7,56.7l56.7-56.7l-0.3-0.3C780.4,63,760,55.2,739.5,55.2L739.5,55.2z"/>
</g>
<g>
	<path d="M739.5,75c17.2,0,33.5,5.9,46.6,16.9l-46.6,46.6l-46.6-46.6C706,81,722.3,75,739.5,75 M739.5,68
		c-20.4,0-40.9,7.8-56.5,23.4l-0.3,0.3l56.7,56.7l56.7-56.7l-0.3-0.3C780.4,75.8,760,68,739.5,68L739.5,68z"/>
</g>
<g>
	<g>
		<path d="M113.5,300c5.2,0,9.5,4.3,9.5,9.5s-4.3,9.5-9.5,9.5s-9.5-4.3-9.5-9.5S108.3,300,113.5,300 M113.5,293
			c-9.1,0-16.5,7.4-16.5,16.5s7.4,16.5,16.5,16.5s16.5-7.4,16.5-16.5S122.6,293,113.5,293L113.5,293z"/>
	</g>
</g>
<g>
	<g>
		<path d="M171.5,745c5.2,0,9.5,4.3,9.5,9.5s-4.3,9.5-9.5,9.5s-9.5-4.3-9.5-9.5S166.3,745,171.5,745 M171.5,738
			c-9.1,0-16.5,7.4-16.5,16.5s7.4,16.5,16.5,16.5s16.5-7.4,16.5-16.5S180.6,738,171.5,738L171.5,738z"/>
	</g>
</g>
<g>
	<g>
		<path d="M456.5,597c5.2,0,9.5,4.3,9.5,9.5s-4.3,9.5-9.5,9.5s-9.5-4.3-9.5-9.5S451.3,597,456.5,597 M456.5,590
			c-9.1,0-16.5,7.4-16.5,16.5s7.4,16.5,16.5,16.5s16.5-7.4,16.5-16.5S465.6,590,456.5,590L456.5,590z"/>
	</g>
</g>
<g>
	<g>
		<path d="M57.5,147c5.2,0,9.5,4.3,9.5,9.5s-4.3,9.5-9.5,9.5s-9.5-4.3-9.5-9.5S52.3,147,57.5,147 M57.5,140
			c-9.1,0-16.5,7.4-16.5,16.5S48.4,173,57.5,173S74,165.6,74,156.5S66.6,140,57.5,140L57.5,140z"/>
	</g>
</g>
<g>
	<g>
		<path d="M1308.5,147c5.2,0,9.5,4.3,9.5,9.5s-4.3,9.5-9.5,9.5s-9.5-4.3-9.5-9.5S1303.3,147,1308.5,147 M1308.5,140
			c-9.1,0-16.5,7.4-16.5,16.5s7.4,16.5,16.5,16.5s16.5-7.4,16.5-16.5S1317.6,140,1308.5,140L1308.5,140z"/>
	</g>
</g>
<g>
	<g>
		<path d="M739.5,745c5.2,0,9.5,4.3,9.5,9.5s-4.3,9.5-9.5,9.5s-9.5-4.3-9.5-9.5S734.3,745,739.5,745 M739.5,738
			c-9.1,0-16.5,7.4-16.5,16.5s7.4,16.5,16.5,16.5s16.5-7.4,16.5-16.5S748.6,738,739.5,738L739.5,738z"/>
	</g>
</g>
<g>
	<g>
		<path d="M569.5,300c5.2,0,9.5,4.3,9.5,9.5s-4.3,9.5-9.5,9.5s-9.5-4.3-9.5-9.5S564.3,300,569.5,300 M569.5,293
			c-9.1,0-16.5,7.4-16.5,16.5s7.4,16.5,16.5,16.5s16.5-7.4,16.5-16.5S578.6,293,569.5,293L569.5,293z"/>
	</g>
</g>
<g>
	<g>
		<path d="M1081.5,446c5.2,0,9.5,4.3,9.5,9.5s-4.3,9.5-9.5,9.5s-9.5-4.3-9.5-9.5S1076.3,446,1081.5,446 M1081.5,439
			c-9.1,0-16.5,7.4-16.5,16.5s7.4,16.5,16.5,16.5s16.5-7.4,16.5-16.5S1090.6,439,1081.5,439L1081.5,439z"/>
	</g>
</g>
<g>
	<g>
		<path d="M1025.5,596c5.2,0,9.5,4.3,9.5,9.5s-4.3,9.5-9.5,9.5c-5.2,0-9.5-4.3-9.5-9.5S1020.3,596,1025.5,596 M1025.5,589
			c-9.1,0-16.5,7.4-16.5,16.5s7.4,16.5,16.5,16.5s16.5-7.4,16.5-16.5S1034.6,589,1025.5,589L1025.5,589z"/>
	</g>
</g>
<g>
	<g>
		<path d="M854.5,147c5.2,0,9.5,4.3,9.5,9.5s-4.3,9.5-9.5,9.5s-9.5-4.3-9.5-9.5S849.3,147,854.5,147 M854.5,140
			c-9.1,0-16.5,7.4-16.5,16.5s7.4,16.5,16.5,16.5s16.5-7.4,16.5-16.5S863.6,140,854.5,140L854.5,140z"/>
	</g>
</g>
<g>
	<g>
		<path d="M1194.5,745c5.2,0,9.5,4.3,9.5,9.5s-4.3,9.5-9.5,9.5s-9.5-4.3-9.5-9.5S1189.3,745,1194.5,745 M1194.5,738
			c-9.1,0-16.5,7.4-16.5,16.5s7.4,16.5,16.5,16.5s16.5-7.4,16.5-16.5S1203.6,738,1194.5,738L1194.5,738z"/>
	</g>
</g>
<g>
	<g>
		<path d="M399.5,147c5.2,0,9.5,4.3,9.5,9.5s-4.3,9.5-9.5,9.5s-9.5-4.3-9.5-9.5S394.3,147,399.5,147 M399.5,140
			c-9.1,0-16.5,7.4-16.5,16.5s7.4,16.5,16.5,16.5s16.5-7.4,16.5-16.5S408.6,140,399.5,140L399.5,140z"/>
	</g>
</g>
</svg>
