<?xml version="1.0" encoding="utf-8"?>
<!-- Generator: Adobe Illustrator 21.0.0, SVG Export Plug-In . SVG Version: 6.00 Build 0)  -->
<svg version="1.1" id="Layer_1" xmlns="http://www.w3.org/2000/svg" xmlns:xlink="http://www.w3.org/1999/xlink" x="0px" y="0px"
	 viewBox="0 0 1366 896" style="enable-background:new 0 0 1366 896;" xml:space="preserve">
<style type="text/css">
	.st0{fill:#FBC926;}
</style>
<path d="M-58-34v979h1465V-34H-58z M1262.5,51c7.5,0,13.5,6,13.5,13.5c0,7.5-6,13.5-13.5,13.5s-13.5-6-13.5-13.5
	C1249,57,1255,51,1262.5,51z M818,78c26,0,47,21,47,47s-21,47-47,47s-47-21-47-47S792,78,818,78z M774.5,258c7.5,0,13.5,6,13.5,13.5
	c0,7.5-6,13.5-13.5,13.5s-13.5-6-13.5-13.5C761,264,767,258,774.5,258z M405,24c17.7,0,32,14.3,32,32c0,17.7-14.3,32-32,32
	s-32-14.3-32-32C373,38.3,387.3,24,405,24z M437,248c0,8.8-7.2,16-16,16s-16-7.2-16-16s7.2-16,16-16S437,239.2,437,248z M388,511
	c19.3,0,35,15.7,35,35s-15.7,35-35,35c-19.3,0-35-15.7-35-35S368.7,511,388,511z M342,375.5c0,7.5-6,13.5-13.5,13.5
	s-13.5-6-13.5-13.5c0-7.5,6-13.5,13.5-13.5S342,368,342,375.5z M291,156c21,0,38,17,38,38s-17,38-38,38s-38-17-38-38
	S270,156,291,156z M72,863c-18.2,0-33-14.8-33-33s14.8-33,33-33s33,14.8,33,33S90.2,863,72,863z M82.5,605C64,605,49,590,49,571.5
	S64,538,82.5,538s33.5,15,33.5,33.5S101,605,82.5,605z M85,434c-19.9,0-36-16.1-36-36s16.1-36,36-36s36,16.1,36,36S104.9,434,85,434
	z M125,228c-19.9,0-36-16.1-36-36s16.1-36,36-36s36,16.1,36,36S144.9,228,125,228z M181.5,51c-3.6,0-6.5-2.9-6.5-6.5
	s2.9-6.5,6.5-6.5s6.5,2.9,6.5,6.5S185.1,51,181.5,51z M343.5,872C284.7,872,237,824.3,237,765.5c0-58.8,47.7-106.5,106.5-106.5
	S450,706.7,450,765.5C450,824.3,402.3,872,343.5,872z M517,364.5c0-27.9,22.6-50.5,50.5-50.5s50.5,22.6,50.5,50.5
	S595.4,415,567.5,415S517,392.4,517,364.5z M611,818c-13.3,0-24-10.7-24-24s10.7-24,24-24s24,10.7,24,24S624.3,818,611,818z
	 M623.5,659c-14.6,0-26.5-11.9-26.5-26.5s11.9-26.5,26.5-26.5s26.5,11.9,26.5,26.5S638.1,659,623.5,659z M645,188
	c-26.5,0-48-21.5-48-48c0-26.5,21.5-48,48-48s48,21.5,48,48C693,166.5,671.5,188,645,188z M793,818c-17.7,0-32-14.3-32-32
	c0-17.7,14.3-32,32-32s32,14.3,32,32C825,803.7,810.7,818,793,818z M853.5,589c-36.7,0-66.5-29.8-66.5-66.5s29.8-66.5,66.5-66.5
	s66.5,29.8,66.5,66.5S890.2,589,853.5,589z M1002,337c-12.7,0-23-10.3-23-23c0-12.7,10.3-23,23-23s23,10.3,23,23
	C1025,326.7,1014.7,337,1002,337z M1052,688c-14.9,0-27-12.1-27-27s12.1-27,27-27s27,12.1,27,27S1066.9,688,1052,688z M1052,78
	c-14.9,0-27-12.1-27-27s12.1-27,27-27s27,12.1,27,27S1066.9,78,1052,78z M1104.5,797c-7.5,0-13.5-6-13.5-13.5
	c0-7.5,6-13.5,13.5-13.5s13.5,6,13.5,13.5C1118,791,1112,797,1104.5,797z M1118,193c0-11.6,9.4-21,21-21s21,9.4,21,21
	c0,11.6-9.4,21-21,21S1118,204.6,1118,193z M1141,417.5c0-37.3,30.2-67.5,67.5-67.5s67.5,30.2,67.5,67.5s-30.2,67.5-67.5,67.5
	S1141,454.8,1141,417.5z M1205.5,688c-8,0-14.5-6.5-14.5-14.5s6.5-14.5,14.5-14.5s14.5,6.5,14.5,14.5S1213.5,688,1205.5,688z
	 M1264.5,837c-18.5,0-33.5-15-33.5-33.5s15-33.5,33.5-33.5s33.5,15,33.5,33.5S1283,837,1264.5,837z"/>
</svg>
