<?xml version="1.0" encoding="utf-8"?>
<!-- Generator: Adobe Illustrator 21.0.0, SVG Export Plug-In . SVG Version: 6.00 Build 0)  -->
<svg version="1.1" id="Layer_1" xmlns="http://www.w3.org/2000/svg" xmlns:xlink="http://www.w3.org/1999/xlink" x="0px" y="0px"
	 viewBox="0 0 918.3 659" style="enable-background:new 0 0 918.3 659;" xml:space="preserve">
<style type="text/css">
	.st0{fill:#F23C55;}
	.st1{fill:#FBC926;}
	.st2{clip-path:url(#SVGID_2_);fill:#BDCCD4;}
	.st3{clip-path:url(#SVGID_2_);}
	.st4{fill:none;}
	.st5{fill:#A6A6A6;}
	.st6{fill:#FFFFFF;}
	.st7{clip-path:url(#SVGID_4_);fill:#BDCCD4;}
	.st8{clip-path:url(#SVGID_4_);}
	.st9{clip-path:url(#SVGID_6_);fill:#BDCCD4;}
	.st10{clip-path:url(#SVGID_6_);}
	.st11{clip-path:url(#SVGID_8_);fill:#BDCCD4;}
	.st12{clip-path:url(#SVGID_8_);}
	.st13{clip-path:url(#SVGID_10_);fill:#BDCCD4;}
	.st14{clip-path:url(#SVGID_10_);}
	.st15{clip-path:url(#SVGID_12_);fill:#BDCCD4;}
	.st16{clip-path:url(#SVGID_12_);}
	.st17{clip-path:url(#SVGID_14_);fill:#BDCCD4;}
	.st18{clip-path:url(#SVGID_14_);}
	.st19{clip-path:url(#SVGID_16_);fill:#BDCCD4;}
	.st20{clip-path:url(#SVGID_16_);}
	.st21{clip-path:url(#SVGID_18_);fill:#BDCCD4;}
	.st22{clip-path:url(#SVGID_18_);}
	.st23{clip-path:url(#SVGID_20_);fill:#BDCCD4;}
	.st24{clip-path:url(#SVGID_20_);}
	.st25{clip-path:url(#SVGID_22_);fill:#BDCCD4;}
	.st26{clip-path:url(#SVGID_22_);}
	.st27{clip-path:url(#SVGID_24_);fill:#BDCCD4;}
	.st28{clip-path:url(#SVGID_24_);}
	.st29{fill:#389984;}
	.st30{fill:#E4F2E7;}
	.st31{fill:#96DD93;}
	.st32{clip-path:url(#SVGID_26_);fill:#BDCCD4;}
	.st33{clip-path:url(#SVGID_26_);}
	.st34{fill:#BDCCD4;}
	.st35{fill:#2C4367;}
	.st36{fill:url(#SVGID_27_);}
	.st37{fill:none;stroke:#FFFFFF;stroke-width:3;stroke-linecap:round;stroke-linejoin:round;stroke-miterlimit:10;}
</style>
<path class="st34" d="M787.5,515c63.4-73.9,64.1-180.4,7.2-254.8c35.4,5.2,72.7-7.3,97.7-36.5c38.8-45.2,33.6-113.4-11.7-152.2
	c-42-36-103.8-34.1-143.5,2.6c-8.2-13.9-18.8-26.7-31.7-37.8c-63.4-54.4-158.9-47-213.2,16.4c-17,19.9-28,42.9-33.1,66.8
	c-44.4-14.4-95-1.9-127.3,35.7c-1.7,2-3.3,4-4.8,6c-7.9-13.4-18-25.7-30.5-36.3c-42.4-36.3-99.7-43.8-148.1-24.3
	c-4.3-12-11.7-23.2-22.2-32.1C94.2,41.1,45.9,44.9,18.4,76.9C-9.1,109-5.4,157.3,26.7,184.8c10.4,8.9,22.5,14.5,35.1,17
	c-11.9,50.8,4.3,106.4,46.7,142.7c22.5,19.3,49.3,30.5,76.7,33.8c-33.1,78.9-13.4,173.3,55,232c84.9,72.8,212.7,63,285.5-21.9
	c6.5-7.6,12.4-15.6,17.6-23.8C624.5,605,725.8,587,787.5,515z"/>
</svg>
