<?xml version="1.0" encoding="utf-8"?>
<!-- Generator: Adobe Illustrator 21.0.0, SVG Export Plug-In . SVG Version: 6.00 Build 0)  -->
<svg version="1.1" id="Layer_1" xmlns="http://www.w3.org/2000/svg" xmlns:xlink="http://www.w3.org/1999/xlink" x="0px" y="0px"
	 viewBox="0 0 681 576" style="enable-background:new 0 0 681 576;" xml:space="preserve">
<style type="text/css">
	.st0{fill:#F23C55;}
	.st1{fill:#FBC926;}
	.st2{clip-path:url(#SVGID_2_);fill:#BDCCD4;}
	.st3{clip-path:url(#SVGID_2_);}
	.st4{fill:none;}
	.st5{fill:#A6A6A6;}
	.st6{fill:#FFFFFF;}
	.st7{clip-path:url(#SVGID_4_);fill:#BDCCD4;}
	.st8{clip-path:url(#SVGID_4_);}
	.st9{clip-path:url(#SVGID_6_);fill:#BDCCD4;}
	.st10{clip-path:url(#SVGID_6_);}
	.st11{clip-path:url(#SVGID_8_);fill:#BDCCD4;}
	.st12{clip-path:url(#SVGID_8_);}
	.st13{clip-path:url(#SVGID_10_);fill:#BDCCD4;}
	.st14{clip-path:url(#SVGID_10_);}
	.st15{clip-path:url(#SVGID_12_);fill:#BDCCD4;}
	.st16{clip-path:url(#SVGID_12_);}
	.st17{clip-path:url(#SVGID_14_);fill:#BDCCD4;}
	.st18{clip-path:url(#SVGID_14_);}
	.st19{clip-path:url(#SVGID_16_);fill:#BDCCD4;}
	.st20{clip-path:url(#SVGID_16_);}
	.st21{clip-path:url(#SVGID_18_);fill:#BDCCD4;}
	.st22{clip-path:url(#SVGID_18_);}
	.st23{clip-path:url(#SVGID_20_);fill:#BDCCD4;}
	.st24{clip-path:url(#SVGID_20_);}
	.st25{clip-path:url(#SVGID_22_);fill:#BDCCD4;}
	.st26{clip-path:url(#SVGID_22_);}
	.st27{clip-path:url(#SVGID_24_);fill:#BDCCD4;}
	.st28{clip-path:url(#SVGID_24_);}
	.st29{fill:#389984;}
	.st30{fill:#E4F2E7;}
	.st31{fill:#96DD93;}
	.st32{clip-path:url(#SVGID_26_);fill:#BDCCD4;}
	.st33{clip-path:url(#SVGID_26_);}
	.st34{fill:#BDCCD4;}
	.st35{fill:#2C4367;}
	.st36{clip-path:url(#SVGID_28_);fill:#BDCCD4;}
	.st37{clip-path:url(#SVGID_30_);fill:#BDCCD4;}
</style>
<g>
	<defs>
		<rect id="SVGID_29_" x="1" width="679" height="576"/>
	</defs>
	<clipPath id="SVGID_2_">
		<use xlink:href="#SVGID_29_"  style="overflow:visible;"/>
	</clipPath>
	<path class="st2" d="M881,420.5c0-97.4-68.8-178.7-160.4-198.1c30.3-19.1,50.4-52.9,50.4-91.3c0-59.6-48.3-107.9-107.9-107.9
		c-55.4,0-101,41.7-107.2,95.4c-15.3-5.2-31.7-8-48.7-8c-83.5,0-151.2,67.7-151.2,151.2c0,26.2,6.7,50.8,18.4,72.3
		C331.3,352,301,394.4,301,444c0,2.6,0.1,5.2,0.3,7.7c-14.7-5-30.4-7.7-46.8-7.7c-55.8,0-104.2,31.6-128.3,78
		c-11.1-6.3-24-10-37.7-10C46.3,512,12,546.3,12,588.5c0,42.2,34.3,76.5,76.5,76.5c13.7,0,26.6-3.6,37.7-10
		c24.1,46.3,72.5,78,128.3,78c29.7,0,57.3-9,80.2-24.3C361,790.1,437.4,849,527.5,849C639.3,849,730,758.3,730,646.5
		c0-10-0.7-19.9-2.2-29.6C815.8,594.9,881,515.3,881,420.5z"/>
</g>
</svg>
