<?xml version="1.0" encoding="utf-8"?>
<!-- Generator: Adobe Illustrator 21.0.0, SVG Export Plug-In . SVG Version: 6.00 Build 0)  -->
<svg version="1.1" id="Layer_1" xmlns="http://www.w3.org/2000/svg" xmlns:xlink="http://www.w3.org/1999/xlink" x="0px" y="0px"
	 viewBox="0 0 716 513" style="enable-background:new 0 0 716 513;" xml:space="preserve">
<style type="text/css">
	.st0{fill:#F23C55;}
	.st1{fill:#FBC926;}
	.st2{clip-path:url(#SVGID_2_);fill:#BDCCD4;}
	.st3{clip-path:url(#SVGID_2_);}
	.st4{fill:none;}
	.st5{fill:#A6A6A6;}
	.st6{fill:#FFFFFF;}
	.st7{clip-path:url(#SVGID_4_);fill:#BDCCD4;}
	.st8{clip-path:url(#SVGID_4_);}
	.st9{clip-path:url(#SVGID_6_);fill:#BDCCD4;}
	.st10{clip-path:url(#SVGID_6_);}
	.st11{clip-path:url(#SVGID_8_);fill:#BDCCD4;}
	.st12{clip-path:url(#SVGID_8_);}
	.st13{clip-path:url(#SVGID_10_);fill:#BDCCD4;}
	.st14{clip-path:url(#SVGID_10_);}
	.st15{clip-path:url(#SVGID_12_);fill:#BDCCD4;}
	.st16{clip-path:url(#SVGID_12_);}
	.st17{clip-path:url(#SVGID_14_);fill:#BDCCD4;}
	.st18{clip-path:url(#SVGID_14_);}
	.st19{clip-path:url(#SVGID_16_);fill:#BDCCD4;}
	.st20{clip-path:url(#SVGID_16_);}
	.st21{clip-path:url(#SVGID_18_);fill:#BDCCD4;}
	.st22{clip-path:url(#SVGID_18_);}
	.st23{clip-path:url(#SVGID_20_);fill:#BDCCD4;}
	.st24{clip-path:url(#SVGID_20_);}
	.st25{clip-path:url(#SVGID_22_);fill:#BDCCD4;}
	.st26{clip-path:url(#SVGID_22_);}
	.st27{clip-path:url(#SVGID_24_);fill:#BDCCD4;}
	.st28{clip-path:url(#SVGID_24_);}
	.st29{fill:#389984;}
	.st30{fill:#E4F2E7;}
	.st31{fill:#96DD93;}
	.st32{clip-path:url(#SVGID_26_);fill:#BDCCD4;}
	.st33{clip-path:url(#SVGID_26_);}
	.st34{fill:#BDCCD4;}
	.st35{fill:#2C4367;}
	.st36{clip-path:url(#SVGID_28_);fill:#BDCCD4;}
	.st37{clip-path:url(#SVGID_30_);fill:#BDCCD4;}
</style>
<g>
	<defs>
		<rect id="SVGID_27_" width="716" height="513"/>
	</defs>
	<clipPath id="SVGID_2_">
		<use xlink:href="#SVGID_27_"  style="overflow:visible;"/>
	</clipPath>
	<path class="st2" d="M513.5,417c-39.7,0-76.7,11.4-107.9,31.1C400.6,387,349.4,339,287,339c-27.4,0-52.6,9.2-72.7,24.8
		c-10.7-35.5-30.9-66.8-57.6-91.1c17.8-14,29.3-35.7,29.3-60.2c0-42.2-34.2-76.5-76.5-76.5c-14.5,0-28,4-39.5,11c0-0.8,0-1.7,0-2.5
		C70,64.7,5.3,0-74.5,0S-219,64.7-219,144.5c0,62.5,39.7,115.8,95.3,135.9c-32.9,33.4-54.2,78-57.7,127.7
		c-23.6,33.1-37.5,73.7-37.5,117.4C-219,637.3-128.3,728-16.5,728c60.2,0,114.2-26.3,151.3-68c26.4,28.3,64,46,105.7,46
		c29.7,0,57.3-9,80.2-24.3C347,763.1,423.4,822,513.5,822C625.3,822,716,731.3,716,619.5S625.3,417,513.5,417z"/>
</g>
</svg>
