<?xml version="1.0" encoding="utf-8"?>
<!-- Generator: Adobe Illustrator 21.0.0, SVG Export Plug-In . SVG Version: 6.00 Build 0)  -->
<svg version="1.1" id="Layer_1" xmlns="http://www.w3.org/2000/svg" xmlns:xlink="http://www.w3.org/1999/xlink" x="0px" y="0px"
	 viewBox="0 0 597.7 177.9" style="enable-background:new 0 0 597.7 177.9;" xml:space="preserve">
<style type="text/css">
	.st0{fill:#FBC926;}
	.st1{fill:#F23C55;}
	.st2{fill:#E0FFB3;}
</style>
<g>
	<path class="st1" d="M0,155.4c-0.2-8.6,6-14.3,14.8-14.3c8.9,0,14.6,4.5,14.8,11.8c-0.2,6.4-3.9,8.4-3.7,11.3
		c-0.2,3.7,8.2,6.4,20.2,6.4c17.5,0,29.4-5.9,29.4-18.1c0-7.9-4.9-12.8-21.3-12.9h-16c-30.1-0.3-34.3-13.6-34.3-22.3
		c0-5,2.2-15.8,15.8-18.8C9.2,93.4,4.4,85,4.4,74.1C4.4,55.6,18.3,44,48.7,44c12.4,0,22.2,2,29.4,5.5c7.6-5.7,10.2-12.6,10.2-18.6
		c0-5.4-2.7-9.2-6.9-9.2c-2,0-3,1.2-3,2.9c0,0.8,0.3,1.8,0.3,2.5c0,7.6-5.5,11.3-12.1,11.3c-7.9,0-14.1-5-14.1-14.4
		C52.6,13.9,59.5,6,73.8,6c16.1,0,23.7,9.7,23.7,23.2c0,6.2-3.4,16.3-14.4,23.5c6.9,5.2,10.1,12.4,10.1,21.3
		c0,18.1-14.1,29.4-44.4,29.4c-8.4,0-15.6-0.8-21.5-2.5c-4.9,1-5.2,3.4-5.2,5.4c0,3.9,3.2,6.9,22,6.9h16.6
		c27.9,0,39.6,10.9,39.6,29.9c0,20.5-15.5,34.8-52.6,34.8C8.2,177.9-0.2,167.2,0,155.4z M66.7,74.1c0-11.3-6.6-18-18-18
		c-11.6,0-18.1,6.7-18.1,18c0,10.6,6.6,17.3,18.1,17.3C60.1,91.4,66.7,84.7,66.7,74.1z"/>
	<path class="st1" d="M105.7,89c0-27,17.3-45,51.9-45c34.6,0,51.7,18,51.7,45c0,26.9-17.1,44.7-51.7,44.7
		C123,133.7,105.7,115.9,105.7,89z M178.1,88.7c0-22-7.7-30.2-20.5-30.2c-13.1,0-20.5,8.4-20.5,30.2c0,21.2,7.1,30.6,20.5,30.6
		C171,119.3,178.1,110,178.1,88.7z"/>
	<path class="st1" d="M220.6,89c0-27,17.3-45,51.9-45c34.6,0,51.7,18,51.7,45c0,26.9-17.1,44.7-51.7,44.7
		C237.9,133.7,220.6,115.9,220.6,89z M293,88.7c0-22-7.7-30.2-20.5-30.2c-13.1,0-20.5,8.4-20.5,30.2c0,21.2,7.1,30.6,20.5,30.6
		C285.9,119.3,293,110,293,88.7z"/>
	<path class="st1" d="M333.8,155.4c-0.2-8.6,6-14.3,14.8-14.3c8.9,0,14.6,4.5,14.8,11.8c-0.2,6.4-3.9,8.4-3.7,11.3
		c-0.2,3.7,8.2,6.4,20.2,6.4c17.5,0,29.4-5.9,29.4-18.1c0-7.9-4.9-12.8-21.3-12.9h-16c-30.1-0.3-34.3-13.6-34.3-22.3
		c0-5,2.2-15.8,15.8-18.8c-10.4-4.9-15.3-13.3-15.3-24.2c0-18.5,13.9-30.1,44.4-30.1c12.4,0,22.2,2,29.4,5.5
		c7.6-5.7,10.2-12.6,10.2-18.6c0-5.4-2.7-9.2-6.9-9.2c-2,0-3,1.2-3,2.9c0,0.8,0.3,1.8,0.3,2.5c0,7.6-5.5,11.3-12.1,11.3
		c-7.9,0-14.1-5-14.1-14.4c0-9.9,6.9-17.8,21.2-17.8c16.1,0,23.7,9.7,23.7,23.2c0,6.2-3.4,16.3-14.4,23.5
		c6.9,5.2,10.1,12.4,10.1,21.3c0,18.1-14.1,29.4-44.4,29.4c-8.4,0-15.6-0.8-21.5-2.5c-4.9,1-5.2,3.4-5.2,5.4c0,3.9,3.2,6.9,22,6.9
		h16.6c27.9,0,39.6,10.9,39.6,29.9c0,20.5-15.5,34.8-52.6,34.8C342,177.9,333.6,167.2,333.8,155.4z M400.5,74.1c0-11.3-6.6-18-18-18
		c-11.6,0-18.1,6.7-18.1,18c0,10.6,6.6,17.3,18.1,17.3C394,91.4,400.5,84.7,400.5,74.1z"/>
	<path class="st1" d="M439.5,117.9l14.4-2V16.5l-14.4-1.8l1-14.6h43.3v115.9l14.4,2l-0.7,13.4h-57.5L439.5,117.9z"/>
	<path class="st1" d="M555.1,133.7c-31.9,0-49.7-17-49.7-45c0-28.7,17.5-44.7,47.5-44.7c31.8,0,48.4,16.6,44.2,46.7h-62.3
		c-1,17.8,10.8,25.5,28.2,25.5c13.9,0,20.5-5.7,21.3-15.6l0.2-2l10.1-0.5l0.3,3.4C597.1,122.8,580.1,133.7,555.1,133.7z M534.7,81.5
		h35.4c1.7-17.6-5.2-24.4-16.8-24.4C542.8,57.1,534.4,62.5,534.7,81.5z"/>
</g>
<g>
	<path class="st2" d="M19.9,151c-0.2-8,5.6-13.3,13.8-13.3c8.3,0,13.6,4.2,13.8,11c-0.2,6-3.6,7.8-3.4,10.5c-0.2,3.5,7.7,6,18.8,6
		c16.3,0,27.4-5.5,27.4-16.9c0-7.4-4.5-11.9-19.9-12.1H55.5c-28.1-0.3-32-12.7-32-20.9c0-4.7,2-14.7,14.7-17.6
		c-9.7-4.5-14.3-12.4-14.3-22.6C23.9,57.8,37,47,65.3,47c11.6,0,20.7,1.9,27.4,5.2c7.1-5.3,9.6-11.8,9.6-17.4c0-5-2.5-8.6-6.4-8.6
		c-1.9,0-2.8,1.1-2.8,2.7c0,0.8,0.3,1.7,0.3,2.4c0,7.1-5.2,10.5-11.3,10.5c-7.4,0-13.2-4.7-13.2-13.5c0-9.3,6.4-16.6,19.8-16.6
		c15.1,0,22.1,9.1,22.1,21.6c0,5.8-3.1,15.2-13.5,22c6.4,4.9,9.4,11.6,9.4,19.9c0,16.9-13.2,27.4-41.4,27.4
		c-7.8,0-14.6-0.8-20.1-2.4c-4.5,0.9-4.9,3.1-4.9,5c0,3.6,3,6.4,20.5,6.4h15.5c26,0,37,10.2,37,27.9c0,19.1-14.4,32.5-49.1,32.5
		C27.5,172,19.7,162,19.9,151z M82.1,75.1c0-10.5-6.1-16.8-16.8-16.8c-10.8,0-16.9,6.3-16.9,16.8c0,9.9,6.1,16.2,16.9,16.2
		C76,91.2,82.1,85,82.1,75.1z"/>
	<path class="st2" d="M118.5,89c0-25.3,16.2-42,48.5-42c32.3,0,48.3,16.8,48.3,42c0,25.1-16,41.7-48.3,41.7
		C134.7,130.8,118.5,114.1,118.5,89z M186.1,88.7c0-20.5-7.2-28.2-19.1-28.2c-12.2,0-19.1,7.8-19.1,28.2c0,19.8,6.6,28.5,19.1,28.5
		C179.5,117.3,186.1,108.6,186.1,88.7z"/>
	<path class="st2" d="M225.8,89c0-25.3,16.2-42,48.5-42c32.3,0,48.3,16.8,48.3,42c0,25.1-16,41.7-48.3,41.7
		C241.9,130.8,225.8,114.1,225.8,89z M293.4,88.7c0-20.5-7.2-28.2-19.1-28.2c-12.2,0-19.1,7.8-19.1,28.2c0,19.8,6.6,28.5,19.1,28.5
		C286.8,117.3,293.4,108.6,293.4,88.7z"/>
	<path class="st2" d="M331.5,151c-0.2-8,5.6-13.3,13.8-13.3c8.3,0,13.6,4.2,13.8,11c-0.2,6-3.6,7.8-3.4,10.5c-0.2,3.5,7.7,6,18.8,6
		c16.3,0,27.4-5.5,27.4-16.9c0-7.4-4.5-11.9-19.9-12.1h-14.9c-28.1-0.3-32-12.7-32-20.9c0-4.7,2-14.7,14.7-17.6
		c-9.7-4.5-14.3-12.4-14.3-22.6c0-17.3,13-28.1,41.4-28.1c11.6,0,20.7,1.9,27.4,5.2c7.1-5.3,9.6-11.8,9.6-17.4c0-5-2.5-8.6-6.4-8.6
		c-1.9,0-2.8,1.1-2.8,2.7c0,0.8,0.3,1.7,0.3,2.4c0,7.1-5.2,10.5-11.3,10.5c-7.4,0-13.2-4.7-13.2-13.5c0-9.3,6.4-16.6,19.8-16.6
		c15.1,0,22.1,9.1,22.1,21.6c0,5.8-3.1,15.2-13.5,22c6.4,4.9,9.4,11.6,9.4,19.9c0,16.9-13.2,27.4-41.4,27.4
		c-7.8,0-14.6-0.8-20.1-2.4c-4.5,0.9-4.9,3.1-4.9,5c0,3.6,3,6.4,20.5,6.4h15.5c26,0,37,10.2,37,27.9c0,19.1-14.4,32.5-49.1,32.5
		C339.2,172,331.3,162,331.5,151z M393.8,75.1c0-10.5-6.1-16.8-16.8-16.8c-10.8,0-16.9,6.3-16.9,16.8c0,9.9,6.1,16.2,16.9,16.2
		C387.6,91.2,393.8,85,393.8,75.1z"/>
	<path class="st2" d="M430.1,116l13.5-1.9V21.3l-13.5-1.7l0.9-13.6h40.5v108.2L485,116l-0.6,12.5h-53.6L430.1,116z"/>
	<path class="st2" d="M538,130.8c-29.8,0-46.4-15.8-46.4-42c0-26.8,16.3-41.7,44.4-41.7c29.6,0,45.2,15.5,41.2,43.6h-58.2
		c-0.9,16.6,10,23.8,26.3,23.8c13,0,19.1-5.3,19.9-14.6l0.2-1.9l9.4-0.5l0.3,3.1C577.3,120.6,561.4,130.8,538,130.8z M519.1,82h33.1
		c1.6-16.5-4.9-22.7-15.7-22.7C526.6,59.2,518.8,64.3,519.1,82z"/>
</g>
</svg>
