<svg id="Layer_1" data-name="Layer 1" xmlns="http://www.w3.org/2000/svg" viewBox="0 0 180.81 1395.01"><defs><style>.cls-1{fill:#2c4367;}</style></defs><title>hand4</title><path class="cls-1" d="M149.17,386.39c-2.46-17.94-7.83-56-3.81-73.63,3.81-16.69,29.69-44.64,27.16-61.63-.79-5.29,1.18-15.61.21-20.88-3.19-17.32,1.28-70,1.28-70L160.59,90.37s-1.21-16.54-6.66-17c-4.88-.42-12.53,8-14.13,12.19-2.13,5.59-2.09,23.7-2.09,23.7l-9.92-72.52s-9.15-16.38-14.88-16.24c-4.73.11-11,14-11,14L98.34,19.2S90.05.32,83.71,0c-5-.25-12.64,13.81-12.64,13.81L70,25.66s-9.4-10.09-13.79-10.17c-21.18-.38-11.93,24.32-11.93,24.32L59.36,61.76l3,37,2,63s-4,39-17.79,50.8c-1,.88-1.95,1.75-2.48.47-5.84-14.1-17.09-39.75-22.74-42.4-7.83-3.68-15.24-9.11-19-6.16C-3.6,169.07,3.56,185.95,4.69,193c.94,5.91,2.85,18.45,4.39,24.27,2.15,8.15,9.5,21.37,12.09,29.43,2.69,8.37,5.64,28.15,8.2,36.55,6.87,22.53,34,60.62,36.66,83.83,1.75,15.2-11.4,20.77-1.67,34.64C79.22,422.94,75,581.42,74.79,759.51,74.42,1049.24,90.71,1395,90.71,1395l90.09-4s-5.22-293.7-19.32-563.41c-10.65-203.67-12.26-387.83-11-400.8.67-6.82,4.76-16.75,3.71-23.55C153.56,399,149.75,390.61,149.17,386.39Z"/></svg>