<?xml version="1.0" encoding="utf-8"?>
<!-- Generator: Adobe Illustrator 21.0.0, SVG Export Plug-In . SVG Version: 6.00 Build 0)  -->
<svg version="1.1" id="Layer_1" xmlns="http://www.w3.org/2000/svg" xmlns:xlink="http://www.w3.org/1999/xlink" x="0px" y="0px"
	 viewBox="0 0 174.3 1394.2" style="enable-background:new 0 0 174.3 1394.2;" xml:space="preserve">
<style type="text/css">
	.st0{fill:#F23C55;}
	.st1{fill:#FBC926;}
	.st2{clip-path:url(#SVGID_2_);fill:#BDCCD4;}
	.st3{clip-path:url(#SVGID_2_);}
	.st4{fill:none;}
	.st5{fill:#A6A6A6;}
	.st6{fill:#FFFFFF;}
	.st7{clip-path:url(#SVGID_4_);fill:#BDCCD4;}
	.st8{clip-path:url(#SVGID_4_);}
	.st9{clip-path:url(#SVGID_6_);fill:#BDCCD4;}
	.st10{clip-path:url(#SVGID_6_);}
	.st11{clip-path:url(#SVGID_8_);fill:#BDCCD4;}
	.st12{clip-path:url(#SVGID_8_);}
	.st13{clip-path:url(#SVGID_10_);fill:#BDCCD4;}
	.st14{clip-path:url(#SVGID_10_);}
	.st15{clip-path:url(#SVGID_12_);fill:#BDCCD4;}
	.st16{clip-path:url(#SVGID_12_);}
	.st17{clip-path:url(#SVGID_14_);fill:#BDCCD4;}
	.st18{clip-path:url(#SVGID_14_);}
	.st19{clip-path:url(#SVGID_16_);fill:#BDCCD4;}
	.st20{clip-path:url(#SVGID_16_);}
	.st21{clip-path:url(#SVGID_18_);fill:#BDCCD4;}
	.st22{clip-path:url(#SVGID_18_);}
	.st23{clip-path:url(#SVGID_20_);fill:#BDCCD4;}
	.st24{clip-path:url(#SVGID_20_);}
	.st25{clip-path:url(#SVGID_22_);fill:#BDCCD4;}
	.st26{clip-path:url(#SVGID_22_);}
	.st27{clip-path:url(#SVGID_24_);fill:#BDCCD4;}
	.st28{clip-path:url(#SVGID_24_);}
	.st29{fill:#389984;}
	.st30{fill:#E4F2E7;}
	.st31{fill:#96DD93;}
	.st32{clip-path:url(#SVGID_26_);fill:#BDCCD4;}
	.st33{clip-path:url(#SVGID_26_);}
	.st34{fill:#BDCCD4;}
	.st35{fill:#2C4367;}
	.st36{clip-path:url(#SVGID_28_);fill:#BDCCD4;}
	.st37{clip-path:url(#SVGID_30_);fill:#BDCCD4;}
</style>
<path class="st35" d="M33.8,388.7c1.7-18-15.5-50.4-20.2-67.9c-4.5-16.5-10.4-49.3-8.5-66.4c0.6-5.3-1.8-15.6-1-20.9
	C6.6,216.2,0,163.7,0,163.7l10.6-70.3c0,0,0.6-16.6,6-17.3c4.9-0.6,12.8,7.5,14.6,11.6c2.3,5.5,3,23.6,3,23.6l7-72.9
	c0,0,8.5-16.7,14.2-16.8c4.7-0.1,11.6,13.5,11.6,13.5L70,19.8c0,0,7.5-19.2,13.8-19.8C88.8-0.4,97,13.3,97,13.3l1.5,11.8
	c0,0,9-10.5,13.4-10.7c21.1-1.2,12.9,23.8,12.9,23.8l-1.2,28.6L122,118l7.1,42.6c0,0,1,32.6,0.4,50.3c-0.1,1.4,2,1.7,2.5,0.4
	c5.3-14.3,15.5-40.4,21-43.3c7.7-4,14.9-9.7,18.8-6.9c6.1,4.4-0.4,21.5-1.2,28.6c-0.7,5.9-2.1,18.6-3.4,24.4
	c-1.8,8.2-8.6,21.7-10.9,29.9c-2.4,8.5-4.5,28.4-6.7,36.8c-6,22.8-31.6,61.9-33.3,85.2c-1.1,15.3,15.3,46.4,6.2,60.7
	c-14,21.8-6.6,153.8,0.7,331.8c11.9,289.5,9.4,635.6,9.4,635.6l-90.2-0.4c0,0-6.5-293.7-3.1-563.7c2.5-203.9-3.2-388-5-400.9
	c-0.9-6.8-5.4-16.5-4.6-23.4C29.9,401.5,33.4,392.9,33.8,388.7z"/>
</svg>
