<?xml version="1.0" encoding="utf-8"?>
<!-- Generator: Adobe Illustrator 21.0.0, SVG Export Plug-In . SVG Version: 6.00 Build 0)  -->
<svg version="1.1" id="Layer_1" xmlns="http://www.w3.org/2000/svg" xmlns:xlink="http://www.w3.org/1999/xlink" x="0px" y="0px"
	 viewBox="0 0 189.8 1390.8" style="enable-background:new 0 0 189.8 1390.8;" xml:space="preserve">
<style type="text/css">
	.st0{fill:#F23C55;}
	.st1{fill:#FBC926;}
	.st2{clip-path:url(#SVGID_2_);fill:#BDCCD4;}
	.st3{clip-path:url(#SVGID_2_);}
	.st4{fill:none;}
	.st5{fill:#A6A6A6;}
	.st6{fill:#FFFFFF;}
	.st7{clip-path:url(#SVGID_4_);fill:#BDCCD4;}
	.st8{clip-path:url(#SVGID_4_);}
	.st9{clip-path:url(#SVGID_6_);fill:#BDCCD4;}
	.st10{clip-path:url(#SVGID_6_);}
	.st11{clip-path:url(#SVGID_8_);fill:#BDCCD4;}
	.st12{clip-path:url(#SVGID_8_);}
	.st13{clip-path:url(#SVGID_10_);fill:#BDCCD4;}
	.st14{clip-path:url(#SVGID_10_);}
	.st15{clip-path:url(#SVGID_12_);fill:#BDCCD4;}
	.st16{clip-path:url(#SVGID_12_);}
	.st17{clip-path:url(#SVGID_14_);fill:#BDCCD4;}
	.st18{clip-path:url(#SVGID_14_);}
	.st19{clip-path:url(#SVGID_16_);fill:#BDCCD4;}
	.st20{clip-path:url(#SVGID_16_);}
	.st21{clip-path:url(#SVGID_18_);fill:#BDCCD4;}
	.st22{clip-path:url(#SVGID_18_);}
	.st23{clip-path:url(#SVGID_20_);fill:#BDCCD4;}
	.st24{clip-path:url(#SVGID_20_);}
	.st25{clip-path:url(#SVGID_22_);fill:#BDCCD4;}
	.st26{clip-path:url(#SVGID_22_);}
	.st27{clip-path:url(#SVGID_24_);fill:#BDCCD4;}
	.st28{clip-path:url(#SVGID_24_);}
	.st29{fill:#389984;}
	.st30{fill:#E4F2E7;}
	.st31{fill:#96DD93;}
	.st32{clip-path:url(#SVGID_26_);fill:#BDCCD4;}
	.st33{clip-path:url(#SVGID_26_);}
	.st34{fill:#BDCCD4;}
	.st35{fill:#2C4367;}
	.st36{clip-path:url(#SVGID_28_);fill:#BDCCD4;}
	.st37{clip-path:url(#SVGID_30_);fill:#BDCCD4;}
</style>
<path class="st35" d="M44.9,369.8c2.5-18.2-9.6-39.6-15.4-56.9C24,296.6,7.4,274.7,10,257.5c0.8-5.4-2.3-40.6-1.2-46
	c3.5-17.7-1.3-48-1.3-48L0,89.9c0,0,1-16.7,7.9-17.7C14.1,71.3,21.3,86,23.5,90c2.9,5.4,11.6,58.7,11.6,58.7l14.8-67.7
	c0.8-3.8,2.3-7.4,4.5-10.7l17-26.3c0,0,11.1-17.4,18.5-17.8c2.9-0.2,3.6,20-5,34.2c-9,14.9-12.3,64.4-12.3,64.4l19.3-64.5
	c0,0,8.9-26.3,12-36.3c1.8-5.9,12.2-28.2,18.5-23.1c21.3,17-2.9,46.7-2.9,46.7l-15.1,72.4c-0.5,0.8,19.6-52.5,27.4-59.8
	c9.6-8.8,33.3-44.7,40.8-46.1c26.7-5,12.7,25.7,12.7,25.7l-20.5,20.6l-21,38.6L138,144c0,0-5,39.1-3.4,58.1c0.1,1.4,2.4,18,8.5,16.8
	c22.9-4.6,13.3-27.4,19.5-57.5c2.2-10.6,7.4-24.2,21.5-18.6c8.1,3.2,5.7,13.7,4.6,20.9c-1,6,1.6,24-0.2,30
	c-2.5,8.4-6.2,22.9-9.2,31.3c-3.1,8.7-3,28.5-6,37.2c-8,23.3-39.2,32.1-35.8,81c1,15.5-4.5,19.1-8.1,35.2
	c-6.3,28.5,8.9,190.5,15.6,368.9c11,290.2,2.7,638.3,2.7,638.3l-115.4,5.3c0,0-4-294.8,4.3-566.4c6.2-205.1,10.4-376.9,8.3-389.8
	c-1.1-6.8-0.2-34.1,0.9-41C46.3,389.3,44.3,374.1,44.9,369.8z"/>
</svg>
