<svg id="Layer_1" data-name="Layer 1" xmlns="http://www.w3.org/2000/svg" viewBox="0 0 167.42 1394.69"><defs><style>.cls-1{fill:#2c4367;}.cls-2{fill:none;}</style></defs><title>hand4</title><path class="cls-1" d="M29.39,361.68c-1.38-18.05,7.81-39.56,3.31-57-4.27-16.58-15.5-24.39-13.44-41.44.64-5.31-1.6-15.58-.78-20.86C21.2,224.94,0,163,0,163L4.69,92.44s.76-16.57,6.19-17.18c4.86-.55,12.74,7.63,14.46,11.8,2.28,5.53-.55,57.67-.55,57.67L36,37.92s8.55-16.5,14.29-16.52C55,21.39,62,77.27,62,77.27L65,19.6S72.74.49,79.07,0c4.94-.38,13,13.46,13,13.46L86.83,65s15.74-50,20.13-50.23c21.16-1,16.54,22.78,16.54,22.78L112.87,68.66,98.54,123.83,93,164.9s4.13,45,25.6,49.7c1.33.29,2.47-.92,6-3.07,14.89-9.18,7.73-23.7,16.54-38.2,4.49-7.4,19.91-14,23.79-11.12,6,4.43-.66,21.5-1.6,28.62-.78,5.94-2.35,18.52-3.72,24.38-1.92,8.21-8.92,21.62-11.28,29.74-2.46,8.44-26.51,32.18-28.84,40.65-6.26,22.71-9.23,37.86-11.26,61.14-1.33,15.24,5.76,19.91-3.59,34C90.36,402.35,103.62,581,108.7,759c8.28,289.61,1.42,635.69,1.42,635.69L20,1393.15s-2.79-293.73,3.95-563.72C29,625.54,37.71,470.59,29.39,361.68Z"/><rect class="cls-2" x="-409.22" y="629.97" width="716" height="513"/></svg>