<svg id="Layer_1" data-name="Layer 1" xmlns="http://www.w3.org/2000/svg" viewBox="0 0 189.51 1396.59"><defs><style>.cls-1{fill:#2c4367;}.cls-2{fill:none;}</style></defs><title>hand4</title><path class="cls-1" d="M149.43,376.31c-3-18.15,8.58-39.87,13.9-57.25,5-16.47,12.08-47.8,9-65-1-5.36,10.19-31.66,9-37-3.92-17.58,6-97,6-97l-8.48-36.72s-1.4-16.67-8.37-17.51c-6.24-.75-13.06,14.12-15.15,18.23-1.16,2.27,8,16,9.32,28.92,2.08,20.33-11.32,42.08-11.32,42.08l-9-51-10-68.76S122.76,18.25,115.4,18c-2.94-.1-6.57,43.19.93,75.06,4,17-1,39-1,39l-15-78-18-32S72.1,2.4,64.18.45c-25.85-6.39,7.15,57.61,7.15,57.61l12,70s-8.56-26.68-18-45c-6.1-11.84-10.06-17.85-17-30-11.5-20.15-24.07-32-29-32-27.2,0-12,26-12,26l16,21,22,43-3,44s6,40,5,59c-.07,1.37-6.56,12.16-10,7-14-21,3.68-42.14-11-65-5.87-9.14-13.1-4.7-18-2-7.62,4.19-5.38,20.81-4,28,1.15,6-5.91,23.06-4,29,2.68,8.32,6.76,19.75,10,28,3.36,8.57,19.8,26.41,23,35,8.6,23.06,25,29,23,78-.63,15.48-3,50,1,66,7.07,28.29,4.24,159.64,2.27,338.16C56.39,1046.64,74,1394.38,74,1394.38l115.5,2.21s-3.92-294.78-19.46-566.13C158.32,625.55,146.57,531,148.33,518.06c.93-6.79,1.28-105.11,0-112C147.54,401.8,150.13,380.57,149.43,376.31Z"/><rect class="cls-2" x="-43.67" y="613.06" width="716" height="513"/></svg>