<?xml version="1.0" encoding="utf-8"?>
<!-- Generator: Adobe Illustrator 21.0.0, SVG Export Plug-In . SVG Version: 6.00 Build 0)  -->
<svg version="1.1" id="Layer_1" xmlns="http://www.w3.org/2000/svg" xmlns:xlink="http://www.w3.org/1999/xlink" x="0px" y="0px"
	 viewBox="0 0 111.2 71" style="enable-background:new 0 0 111.2 71;" xml:space="preserve">
<style type="text/css">
	.st0{fill:none;stroke:#000000;stroke-width:3;stroke-miterlimit:10;}
</style>
<path class="st0" d="M1.4,28.5c0,0,9-27,36-27S64.9,29,64.9,29s-6.5,40.5,20.5,40.5s34-51,8-52s-25,19-25,24s6,22,17,22s19-14,19-22
	s-1-20-11-20s-20,5-20,20s10,16,12,16s14-10,14-16s-4-16-7-16s-15,5-15,16s7,11,7,11"/>
</svg>
