<?xml version="1.0" encoding="utf-8"?>
<!-- Generator: Adobe Illustrator 21.0.0, SVG Export Plug-In . SVG Version: 6.00 Build 0)  -->
<svg version="1.1" id="Layer_1" xmlns="http://www.w3.org/2000/svg" xmlns:xlink="http://www.w3.org/1999/xlink" x="0px" y="0px"
	 viewBox="0 0 600 300" style="enable-background:new 0 0 600 300;" xml:space="preserve">
<style type="text/css">
	.st0{fill:#F23C55;}
	.st1{fill:#FBC926;}
	.st2{clip-path:url(#SVGID_2_);fill:#BDCCD4;}
	.st3{clip-path:url(#SVGID_2_);}
	.st4{fill:none;}
	.st5{fill:#A6A6A6;}
	.st6{fill:#FFFFFF;}
	.st7{clip-path:url(#SVGID_4_);fill:#BDCCD4;}
	.st8{clip-path:url(#SVGID_4_);}
	.st9{clip-path:url(#SVGID_6_);fill:#BDCCD4;}
	.st10{clip-path:url(#SVGID_6_);}
	.st11{clip-path:url(#SVGID_8_);fill:#BDCCD4;}
	.st12{clip-path:url(#SVGID_8_);}
	.st13{clip-path:url(#SVGID_10_);fill:#BDCCD4;}
	.st14{clip-path:url(#SVGID_10_);}
	.st15{clip-path:url(#SVGID_12_);fill:#BDCCD4;}
	.st16{clip-path:url(#SVGID_12_);}
	.st17{clip-path:url(#SVGID_14_);fill:#BDCCD4;}
	.st18{clip-path:url(#SVGID_14_);}
	.st19{clip-path:url(#SVGID_16_);fill:#BDCCD4;}
	.st20{clip-path:url(#SVGID_16_);}
	.st21{clip-path:url(#SVGID_18_);fill:#BDCCD4;}
	.st22{clip-path:url(#SVGID_18_);}
	.st23{clip-path:url(#SVGID_20_);fill:#BDCCD4;}
	.st24{clip-path:url(#SVGID_20_);}
	.st25{clip-path:url(#SVGID_22_);fill:#BDCCD4;}
	.st26{clip-path:url(#SVGID_22_);}
	.st27{clip-path:url(#SVGID_24_);fill:#BDCCD4;}
	.st28{clip-path:url(#SVGID_24_);}
	.st29{fill:#389984;}
	.st30{fill:#E4F2E7;}
	.st31{fill:#96DD93;}
	.st32{clip-path:url(#SVGID_26_);fill:#BDCCD4;}
	.st33{clip-path:url(#SVGID_26_);}
	.st34{fill:#BDCCD4;}
	.st35{fill:#2C4367;}
	.st36{clip-path:url(#SVGID_28_);fill:#BDCCD4;}
	.st37{clip-path:url(#SVGID_30_);fill:#BDCCD4;}
	.st38{fill:url(#SVGID_31_);}
</style>
<linearGradient id="SVGID_2_" gradientUnits="userSpaceOnUse" x1="300" y1="300" x2="300" y2="155">
	<stop  offset="0.5983" style="stop-color:#2C4367"/>
	<stop  offset="0.7043" style="stop-color:#2C466A"/>
	<stop  offset="0.7741" style="stop-color:#2B4E73"/>
	<stop  offset="0.8335" style="stop-color:#295D82"/>
	<stop  offset="0.887" style="stop-color:#277297"/>
	<stop  offset="0.9365" style="stop-color:#238CB2"/>
	<stop  offset="0.9826" style="stop-color:#20ADD3"/>
	<stop  offset="1" style="stop-color:#1EBBE2"/>
	<stop  offset="1" style="stop-color:#1EBBE2"/>
</linearGradient>
<path style="fill:url(#SVGID_2_);" d="M581.3,173.7c-6.6,0-12.5-3.5-15.8-8.7c-1.4-2.2-4.5-2.2-5.8,0c-3.3,5.2-9.2,8.7-15.8,8.7
	s-12.5-3.5-15.8-8.7c-1.4-2.2-4.5-2.2-5.8,0c-3.3,5.2-9.2,8.7-15.8,8.7s-12.5-3.5-15.8-8.7c-1.4-2.2-6.2-0.2-7.6,2
	c-3.3,5.2-7.5,5.8-14,6.7c-9,1.3-12.5-3.5-15.8-8.7c-1.4-2.2-4.5-2.2-5.8,0c-3.3,5.2-5.3,9-15.8,8.7c-6.6-0.2-11.5-1.5-14.8-6.7
	c-1.4-2.2-4.5-2.2-5.8,0c-3.3,5.2-10.2,6.4-16.8,6.7c-7.1,0.3-12.5-3.5-15.8-8.7c-2-3.2-6.6-3.6-9-0.6c-3.6,4.7-6.3,9.6-13.7,9.3
	c-6.6-0.3-12.5-3.5-15.8-8.7c-1.4-2.2-4.5-2.2-5.8,0c-3.3,5.2-9.2,8.7-15.8,8.7s-12.5-3.5-15.8-8.7c-1.4-2.2-4.5-2.2-5.8,0
	c-3.3,5.2-9.2,8.5-15.8,8.7c-9.8,0.3-14.5-4.5-17.8-9.7c-1.4-2.2-4.5-2.2-5.8,0c-3.3,5.2-7.2,9.7-13.8,9.7s-12.5-3.5-15.8-8.7
	c-1.4-2.2-4.5-2.2-5.8,0c-3.3,5.2-9.2,8.7-15.8,8.7c-6.6,0-12.5-3.5-15.8-8.7c-1.4-2.2-4.5-2.2-5.8,0c-3.3,5.2-5.6,11-12.3,11
	c-6.6,0-16-5.7-19.3-11c-1.4-2.2-4.5-2.2-5.8,0c-3.3,5.2-9.2,7.8-15.8,8.7c-9,1.3-12.5-3.5-15.8-8.7c-1.4-2.2-4.5-2.2-5.8,0
	c-3.3,5.2-5.4,10-15.8,8.7c-6.6-0.8-12.5-3.5-15.8-8.7c-1.4-2.2-4.5-2.2-5.8,0c-3.3,5.2-12.3,9-19,9s-7.3-4.7-10.6-10
	c-1.4-2.2-4.5-2.2-5.8,0c-3.3,5.2-7.5,12-17.8,9.7C8.6,171.5,0,165.3,0,155v141.6c0,1.9,1.5,3.4,3.4,3.4h593.2
	c1.9,0,3.4-1.5,3.4-3.4V155C600,165.3,591.6,173.7,581.3,173.7z"/>
</svg>
